<svg id="svg" xmlns="http://www.w3.org/2000/svg" xmlns:xlink="http://www.w3.org/1999/xlink" width="400" height="400" viewBox="0, 0, 400,400"><g id="svgg"><path id="path0" d="M175.600 0.400 C 175.600 0.642,173.896 0.802,171.300 0.805 C 166.501 0.812,165.200 1.034,165.200 1.847 C 165.200 2.281,164.339 2.400,161.200 2.400 C 157.467 2.400,157.200 2.453,157.200 3.200 C 157.200 3.930,156.933 4.000,154.163 4.000 C 151.462 4.000,151.102 4.089,150.916 4.800 C 150.731 5.509,150.370 5.600,147.753 5.600 C 145.067 5.600,144.800 5.672,144.800 6.400 C 144.800 7.124,144.533 7.200,142.003 7.200 C 139.640 7.200,139.129 7.324,138.707 8.000 C 138.361 8.554,137.774 8.800,136.800 8.800 C 135.826 8.800,135.239 9.046,134.893 9.600 C 134.511 10.211,133.960 10.400,132.559 10.400 C 131.062 10.400,130.687 10.547,130.516 11.200 C 130.339 11.875,129.970 12.000,128.153 12.000 C 126.506 12.000,126.000 12.141,126.000 12.600 C 126.000 13.033,125.556 13.200,124.400 13.200 C 123.373 13.200,122.533 13.467,122.055 13.945 C 121.645 14.355,120.672 14.810,119.893 14.956 C 119.115 15.102,118.384 15.464,118.271 15.760 C 118.157 16.057,117.419 16.420,116.632 16.568 C 115.769 16.730,115.200 17.067,115.200 17.418 C 115.200 17.819,114.754 18.000,113.763 18.000 C 112.662 18.000,112.276 18.187,112.116 18.800 C 111.957 19.406,111.570 19.600,110.516 19.600 C 109.462 19.600,109.075 19.794,108.916 20.400 C 108.752 21.027,108.370 21.200,107.153 21.200 C 105.867 21.200,105.600 21.337,105.600 22.000 C 105.600 22.652,105.333 22.800,104.163 22.800 C 103.062 22.800,102.676 22.987,102.516 23.600 C 102.401 24.041,101.970 24.400,101.557 24.400 C 101.144 24.400,100.582 24.760,100.307 25.200 C 100.032 25.640,99.384 26.000,98.866 26.000 C 98.262 26.000,97.850 26.286,97.716 26.800 C 97.559 27.401,97.170 27.600,96.153 27.600 C 95.067 27.600,94.800 27.758,94.800 28.400 C 94.800 28.933,94.533 29.200,94.000 29.200 C 93.556 29.200,93.200 29.467,93.200 29.800 C 93.200 30.222,92.774 30.400,91.763 30.400 C 90.685 30.400,90.275 30.591,90.126 31.162 C 89.999 31.648,89.432 32.018,88.563 32.181 C 87.813 32.321,87.200 32.613,87.200 32.828 C 87.200 33.044,86.750 33.391,86.200 33.600 C 85.650 33.809,85.200 34.255,85.200 34.590 C 85.200 34.933,84.850 35.200,84.400 35.200 C 83.867 35.200,83.600 35.467,83.600 36.000 C 83.600 36.628,83.333 36.800,82.363 36.800 C 81.462 36.800,81.068 37.017,80.916 37.600 C 80.800 38.043,80.370 38.400,79.953 38.400 C 79.467 38.400,79.200 38.683,79.200 39.200 C 79.200 39.733,78.933 40.000,78.400 40.000 C 77.867 40.000,77.600 40.267,77.600 40.800 C 77.600 41.452,77.333 41.600,76.163 41.600 C 75.062 41.600,74.676 41.787,74.516 42.400 C 74.400 42.843,73.970 43.200,73.553 43.200 C 73.067 43.200,72.800 43.483,72.800 44.000 C 72.800 44.533,72.533 44.800,72.000 44.800 C 71.560 44.800,71.200 45.049,71.200 45.353 C 71.200 45.658,70.840 46.001,70.400 46.116 C 69.960 46.231,69.600 46.612,69.600 46.963 C 69.600 47.333,69.265 47.600,68.800 47.600 C 68.360 47.600,68.000 47.825,67.999 48.100 C 67.999 48.579,67.724 48.799,64.872 50.600 C 64.175 51.040,63.604 51.604,63.603 51.853 C 63.601 52.103,63.240 52.401,62.800 52.516 C 62.360 52.631,62.000 53.012,62.000 53.363 C 62.000 53.733,61.665 54.000,61.200 54.000 C 60.667 54.000,60.400 54.267,60.400 54.800 C 60.400 55.333,60.133 55.600,59.600 55.600 C 59.067 55.600,58.800 55.867,58.800 56.400 C 58.800 56.933,58.533 57.200,58.000 57.200 C 57.467 57.200,57.200 57.467,57.200 58.000 C 57.200 58.533,56.933 58.800,56.400 58.800 C 55.867 58.800,55.600 59.067,55.600 59.600 C 55.600 60.133,55.333 60.400,54.800 60.400 C 54.283 60.400,54.000 60.667,54.000 61.153 C 54.000 61.570,53.643 62.000,53.200 62.116 C 52.760 62.231,52.400 62.612,52.400 62.963 C 52.400 63.313,52.175 63.601,51.900 63.603 C 51.625 63.604,51.040 64.175,50.600 64.872 C 48.799 67.724,48.579 67.999,48.100 67.999 C 47.825 68.000,47.600 68.339,47.600 68.753 C 47.600 69.170,47.243 69.600,46.800 69.716 C 46.360 69.831,46.000 70.212,46.000 70.563 C 46.000 70.913,45.730 71.200,45.400 71.200 C 45.067 71.200,44.800 71.556,44.800 72.000 C 44.800 72.533,44.533 72.800,44.000 72.800 C 43.483 72.800,43.200 73.067,43.200 73.553 C 43.200 73.970,42.843 74.400,42.400 74.516 C 41.787 74.676,41.600 75.062,41.600 76.163 C 41.600 77.333,41.452 77.600,40.800 77.600 C 40.267 77.600,40.000 77.867,40.000 78.400 C 40.000 78.933,39.733 79.200,39.200 79.200 C 38.667 79.200,38.400 79.467,38.400 80.000 C 38.400 80.440,38.149 80.800,37.843 80.800 C 37.231 80.800,36.800 81.641,36.800 82.833 C 36.800 83.333,36.522 83.600,36.000 83.600 C 35.467 83.600,35.200 83.867,35.200 84.400 C 35.200 84.850,34.933 85.200,34.590 85.200 C 34.255 85.200,33.809 85.650,33.600 86.200 C 33.391 86.750,33.044 87.200,32.828 87.200 C 32.613 87.200,32.321 87.813,32.181 88.563 C 32.018 89.432,31.648 89.999,31.162 90.126 C 30.591 90.275,30.400 90.685,30.400 91.763 C 30.400 92.774,30.222 93.200,29.800 93.200 C 29.467 93.200,29.200 93.556,29.200 94.000 C 29.200 94.533,28.933 94.800,28.400 94.800 C 27.758 94.800,27.600 95.067,27.600 96.153 C 27.600 97.170,27.401 97.559,26.800 97.716 C 26.286 97.850,26.000 98.262,26.000 98.866 C 26.000 99.384,25.640 100.032,25.200 100.307 C 24.760 100.582,24.400 101.144,24.400 101.557 C 24.400 101.970,24.041 102.401,23.600 102.516 C 22.987 102.676,22.800 103.062,22.800 104.163 C 22.800 105.333,22.652 105.600,22.000 105.600 C 21.337 105.600,21.200 105.867,21.200 107.153 C 21.200 108.370,21.027 108.752,20.400 108.916 C 19.794 109.075,19.600 109.462,19.600 110.516 C 19.600 111.570,19.406 111.957,18.800 112.116 C 18.187 112.276,18.000 112.662,18.000 113.763 C 18.000 114.754,17.819 115.200,17.418 115.200 C 17.067 115.200,16.730 115.769,16.568 116.632 C 16.420 117.419,16.051 118.159,15.747 118.276 C 15.444 118.392,15.085 119.179,14.950 120.025 C 14.814 120.871,14.365 121.869,13.952 122.244 C 13.464 122.685,13.200 123.465,13.200 124.462 C 13.200 125.562,13.029 126.000,12.600 126.000 C 12.141 126.000,12.000 126.506,12.000 128.153 C 12.000 129.970,11.875 130.339,11.200 130.516 C 10.547 130.687,10.400 131.062,10.400 132.559 C 10.400 133.960,10.211 134.511,9.600 134.893 C 9.046 135.239,8.800 135.826,8.800 136.800 C 8.800 137.774,8.554 138.361,8.000 138.707 C 7.324 139.129,7.200 139.640,7.200 142.003 C 7.200 144.533,7.124 144.800,6.400 144.800 C 5.672 144.800,5.600 145.067,5.600 147.753 C 5.600 150.370,5.509 150.731,4.800 150.916 C 4.089 151.102,4.000 151.462,4.000 154.163 C 4.000 156.933,3.930 157.200,3.200 157.200 C 2.453 157.200,2.400 157.467,2.400 161.200 C 2.400 164.339,2.281 165.200,1.847 165.200 C 1.034 165.200,0.812 166.501,0.805 171.300 C 0.802 173.896,0.642 175.600,0.400 175.600 C 0.138 175.600,0.000 184.000,0.000 200.000 C 0.000 216.000,0.138 224.400,0.400 224.400 C 0.642 224.400,0.802 226.104,0.805 228.700 C 0.812 233.499,1.034 234.800,1.847 234.800 C 2.281 234.800,2.400 235.661,2.400 238.800 C 2.400 242.533,2.453 242.800,3.200 242.800 C 3.933 242.800,4.000 243.067,4.000 246.000 C 4.000 248.933,4.067 249.200,4.800 249.200 C 5.528 249.200,5.600 249.467,5.600 252.153 C 5.600 254.770,5.691 255.131,6.400 255.316 C 7.088 255.496,7.200 255.862,7.200 257.930 C 7.200 260.696,7.457 261.600,8.243 261.600 C 8.621 261.600,8.800 262.086,8.800 263.112 C 8.800 264.165,9.043 264.798,9.600 265.200 C 10.208 265.638,10.400 266.235,10.400 267.688 C 10.400 269.333,10.512 269.600,11.200 269.600 C 11.903 269.600,12.000 269.867,12.000 271.800 C 12.000 273.489,12.139 274.000,12.600 274.000 C 13.028 274.000,13.200 274.436,13.200 275.525 C 13.200 276.455,13.488 277.359,13.940 277.844 C 14.348 278.281,14.807 279.314,14.962 280.140 C 15.117 280.966,15.487 281.735,15.783 281.849 C 16.079 281.962,16.439 282.682,16.583 283.449 C 16.727 284.215,17.104 284.942,17.422 285.064 C 17.740 285.186,18.000 285.800,18.000 286.429 C 18.000 287.162,18.286 287.725,18.800 288.000 C 19.321 288.279,19.600 288.838,19.600 289.600 C 19.600 290.362,19.879 290.921,20.400 291.200 C 20.964 291.502,21.200 292.038,21.200 293.014 C 21.200 294.133,21.354 294.400,22.000 294.400 C 22.652 294.400,22.800 294.667,22.800 295.837 C 22.800 296.938,22.987 297.324,23.600 297.484 C 24.045 297.600,24.400 298.030,24.400 298.451 C 24.400 298.867,24.760 299.516,25.200 299.893 C 25.640 300.270,26.000 300.988,26.000 301.489 C 26.000 302.133,26.234 302.400,26.800 302.400 C 27.442 302.400,27.600 302.667,27.600 303.753 C 27.600 304.770,27.799 305.159,28.400 305.316 C 28.879 305.441,29.200 305.862,29.200 306.363 C 29.200 306.840,29.458 307.200,29.800 307.200 C 30.204 307.200,30.400 307.604,30.400 308.437 C 30.400 309.318,30.620 309.732,31.162 309.874 C 31.651 310.002,32.018 310.571,32.184 311.458 C 32.327 312.219,32.704 312.942,33.022 313.064 C 33.340 313.186,33.600 313.626,33.600 314.043 C 33.600 314.533,33.882 314.800,34.400 314.800 C 34.933 314.800,35.200 315.067,35.200 315.600 C 35.200 316.133,35.467 316.400,36.000 316.400 C 36.619 316.400,36.800 316.667,36.800 317.577 C 36.800 318.256,37.107 318.976,37.526 319.277 C 37.926 319.565,38.370 320.115,38.514 320.500 C 38.657 320.885,39.051 321.200,39.387 321.200 C 39.733 321.200,40.000 321.548,40.000 322.000 C 40.000 322.533,40.267 322.800,40.800 322.800 C 41.428 322.800,41.600 323.067,41.600 324.037 C 41.600 324.938,41.817 325.332,42.400 325.484 C 42.843 325.600,43.200 326.030,43.200 326.447 C 43.200 326.933,43.483 327.200,44.000 327.200 C 44.533 327.200,44.800 327.467,44.800 328.000 C 44.800 328.444,45.067 328.800,45.400 328.800 C 45.733 328.800,46.000 329.156,46.000 329.600 C 46.000 330.133,46.267 330.400,46.800 330.400 C 47.240 330.400,47.600 330.662,47.600 330.982 C 47.600 331.302,48.005 331.980,48.500 332.489 C 48.995 332.997,49.760 333.929,50.200 334.558 C 50.640 335.188,51.675 336.386,52.500 337.220 C 53.325 338.055,54.000 338.919,54.000 339.142 C 54.000 339.364,54.360 339.660,54.800 339.800 C 55.240 339.940,55.600 340.329,55.600 340.664 C 55.600 341.000,55.960 341.369,56.400 341.484 C 56.840 341.599,57.200 341.942,57.200 342.247 C 57.200 342.551,57.560 342.800,58.000 342.800 C 58.533 342.800,58.800 343.067,58.800 343.600 C 58.800 344.133,59.067 344.400,59.600 344.400 C 60.133 344.400,60.400 344.667,60.400 345.200 C 60.400 345.733,60.667 346.000,61.200 346.000 C 61.665 346.000,62.000 346.267,62.000 346.637 C 62.000 346.988,62.360 347.369,62.800 347.484 C 63.240 347.599,63.600 347.948,63.600 348.259 C 63.600 348.570,63.901 348.941,64.269 349.082 C 64.951 349.343,65.478 349.745,67.373 351.445 C 67.958 351.970,68.698 352.400,69.018 352.400 C 69.338 352.400,69.600 352.760,69.600 353.200 C 69.600 353.733,69.867 354.000,70.400 354.000 C 70.933 354.000,71.200 354.267,71.200 354.800 C 71.200 355.333,71.467 355.600,72.000 355.600 C 72.452 355.600,72.800 355.867,72.800 356.213 C 72.800 356.549,73.115 356.941,73.500 357.082 C 73.885 357.224,74.344 357.578,74.520 357.870 C 74.696 358.161,75.388 358.400,76.057 358.400 C 76.938 358.400,77.333 358.621,77.484 359.200 C 77.600 359.643,78.030 360.000,78.447 360.000 C 78.933 360.000,79.200 360.283,79.200 360.800 C 79.200 361.317,79.467 361.600,79.953 361.600 C 80.370 361.600,80.800 361.957,80.916 362.400 C 81.068 362.983,81.462 363.200,82.363 363.200 C 83.333 363.200,83.600 363.372,83.600 364.000 C 83.600 364.533,83.867 364.800,84.400 364.800 C 84.933 364.800,85.200 365.067,85.200 365.600 C 85.200 366.129,85.467 366.400,85.986 366.400 C 86.418 366.400,86.965 366.760,87.200 367.200 C 87.480 367.724,88.038 368.000,88.814 368.000 C 89.733 368.000,90.000 368.180,90.000 368.800 C 90.000 369.467,90.267 369.600,91.600 369.600 C 92.933 369.600,93.200 369.733,93.200 370.400 C 93.200 370.933,93.467 371.200,94.000 371.200 C 94.440 371.200,94.800 371.462,94.800 371.782 C 94.800 372.127,95.354 372.468,96.163 372.619 C 97.032 372.782,97.599 373.152,97.726 373.638 C 97.854 374.128,98.278 374.400,98.914 374.400 C 99.457 374.400,100.126 374.670,100.400 375.000 C 100.674 375.330,101.215 375.600,101.602 375.600 C 101.990 375.600,102.401 375.960,102.516 376.400 C 102.676 377.013,103.062 377.200,104.163 377.200 C 105.333 377.200,105.600 377.348,105.600 378.000 C 105.600 378.667,105.867 378.800,107.200 378.800 C 108.533 378.800,108.800 378.933,108.800 379.600 C 108.800 380.263,109.067 380.400,110.353 380.400 C 111.570 380.400,111.952 380.573,112.116 381.200 C 112.275 381.806,112.662 382.000,113.716 382.000 C 114.770 382.000,115.157 382.194,115.316 382.800 C 115.464 383.366,115.862 383.600,116.674 383.600 C 117.327 383.600,118.117 383.945,118.507 384.400 C 118.884 384.840,119.644 385.200,120.196 385.200 C 120.748 385.200,121.560 385.560,122.000 386.000 C 122.533 386.533,123.333 386.800,124.400 386.800 C 125.496 386.800,126.000 386.974,126.000 387.353 C 126.000 387.972,127.194 388.386,129.004 388.395 C 129.770 388.398,130.389 388.691,130.707 389.200 C 131.072 389.783,131.640 390.000,132.807 390.000 C 133.913 390.000,134.620 390.247,135.093 390.800 C 135.522 391.301,136.273 391.600,137.101 391.600 C 137.909 391.600,138.515 391.834,138.655 392.200 C 138.831 392.658,139.583 392.800,141.843 392.800 C 144.533 392.800,144.800 392.872,144.800 393.600 C 144.800 394.329,145.067 394.400,147.800 394.400 C 150.533 394.400,150.800 394.471,150.800 395.200 C 150.800 395.933,151.067 396.000,154.000 396.000 C 156.933 396.000,157.200 396.067,157.200 396.800 C 157.200 397.547,157.467 397.600,161.200 397.600 C 164.352 397.600,165.200 397.718,165.200 398.157 C 165.200 399.032,166.140 399.200,171.033 399.200 C 173.811 399.200,175.600 399.357,175.600 399.600 C 175.600 399.862,184.000 400.000,200.000 400.000 C 216.000 400.000,224.400 399.862,224.400 399.600 C 224.400 399.357,226.189 399.200,228.967 399.200 C 233.860 399.200,234.800 399.032,234.800 398.157 C 234.800 397.718,235.648 397.600,238.800 397.600 C 242.533 397.600,242.800 397.547,242.800 396.800 C 242.800 396.067,243.067 396.000,246.000 396.000 C 248.933 396.000,249.200 395.933,249.200 395.200 C 249.200 394.472,249.467 394.400,252.173 394.400 C 254.795 394.400,255.176 394.305,255.400 393.600 C 255.622 392.901,256.005 392.800,258.440 392.800 C 260.547 392.800,261.281 392.654,261.455 392.200 C 261.594 391.838,262.198 391.600,262.981 391.600 C 263.768 391.600,264.560 391.286,265.000 390.800 C 265.442 390.311,266.232 390.000,267.029 390.000 C 268.732 390.000,269.600 389.648,269.600 388.957 C 269.600 388.596,270.058 388.398,270.900 388.395 C 272.800 388.387,274.000 387.984,274.000 387.353 C 274.000 386.974,274.504 386.800,275.600 386.800 C 276.667 386.800,277.467 386.533,278.000 386.000 C 278.443 385.557,279.333 385.200,279.997 385.200 C 280.760 385.200,281.374 384.910,281.693 384.400 C 281.996 383.915,282.626 383.600,283.293 383.600 C 283.960 383.600,284.590 383.285,284.893 382.800 C 285.220 382.276,285.826 382.000,286.650 382.000 C 287.570 382.000,287.963 381.786,288.116 381.200 C 288.275 380.591,288.662 380.400,289.736 380.400 C 290.795 380.400,291.209 380.201,291.400 379.600 C 291.589 379.005,292.005 378.800,293.027 378.800 C 294.133 378.800,294.400 378.645,294.400 378.000 C 294.400 377.333,294.667 377.200,296.000 377.200 C 297.333 377.200,297.600 377.067,297.600 376.400 C 297.600 375.877,297.867 375.600,298.371 375.600 C 298.796 375.600,299.413 375.330,299.743 375.000 C 300.073 374.670,300.733 374.400,301.209 374.400 C 301.724 374.400,302.156 374.091,302.274 373.638 C 302.401 373.152,302.968 372.782,303.837 372.619 C 304.646 372.468,305.200 372.127,305.200 371.782 C 305.200 371.458,305.571 371.200,306.037 371.200 C 306.538 371.200,306.959 370.879,307.084 370.400 C 307.241 369.799,307.630 369.600,308.647 369.600 C 309.733 369.600,310.000 369.442,310.000 368.800 C 310.000 368.178,310.267 368.000,311.197 368.000 C 311.960 368.000,312.574 367.710,312.893 367.200 C 313.168 366.760,313.709 366.400,314.096 366.400 C 314.533 366.400,314.800 366.097,314.800 365.600 C 314.800 365.067,315.067 364.800,315.600 364.800 C 316.133 364.800,316.400 364.533,316.400 364.000 C 316.400 363.381,316.667 363.200,317.577 363.200 C 318.256 363.200,318.976 362.893,319.277 362.474 C 319.565 362.074,320.115 361.630,320.500 361.486 C 320.885 361.343,321.200 360.949,321.200 360.613 C 321.200 360.267,321.548 360.000,322.000 360.000 C 322.533 360.000,322.800 359.733,322.800 359.200 C 322.800 358.552,323.067 358.400,324.200 358.400 C 325.125 358.400,325.600 358.212,325.600 357.847 C 325.600 357.542,325.960 357.199,326.400 357.084 C 326.840 356.969,327.200 356.588,327.200 356.237 C 327.200 355.867,327.535 355.600,328.000 355.600 C 328.533 355.600,328.800 355.333,328.800 354.800 C 328.800 354.267,329.067 354.000,329.600 354.000 C 330.133 354.000,330.400 353.733,330.400 353.200 C 330.400 352.760,330.662 352.400,330.982 352.400 C 331.302 352.400,332.042 351.970,332.627 351.445 C 334.714 349.572,335.205 349.200,335.586 349.200 C 335.798 349.200,336.165 348.840,336.400 348.400 C 336.635 347.960,337.092 347.600,337.414 347.600 C 337.736 347.600,338.000 347.313,338.000 346.963 C 338.000 346.612,338.354 346.233,338.787 346.119 C 339.219 346.006,339.675 345.592,339.800 345.200 C 339.925 344.808,340.381 344.394,340.813 344.281 C 341.246 344.167,341.600 343.788,341.600 343.437 C 341.600 343.087,341.870 342.800,342.200 342.800 C 342.530 342.800,342.800 342.551,342.800 342.247 C 342.800 341.942,343.160 341.599,343.600 341.484 C 344.040 341.369,344.400 341.000,344.400 340.664 C 344.400 340.329,344.760 339.940,345.200 339.800 C 345.640 339.660,346.000 339.271,346.000 338.936 C 346.000 338.600,346.360 338.231,346.800 338.116 C 347.240 338.001,347.600 337.664,347.600 337.367 C 347.600 337.071,347.960 336.635,348.400 336.400 C 348.840 336.165,349.200 335.798,349.200 335.586 C 349.200 335.194,349.587 334.681,351.391 332.682 C 351.946 332.067,352.400 331.302,352.400 330.982 C 352.400 330.662,352.760 330.400,353.200 330.400 C 353.733 330.400,354.000 330.133,354.000 329.600 C 354.000 329.067,354.267 328.800,354.800 328.800 C 355.317 328.800,355.600 328.533,355.600 328.047 C 355.600 327.630,355.957 327.200,356.400 327.084 C 356.840 326.969,357.200 326.588,357.200 326.237 C 357.200 325.887,357.470 325.600,357.800 325.600 C 358.219 325.600,358.400 325.178,358.400 324.200 C 358.400 323.067,358.552 322.800,359.200 322.800 C 359.733 322.800,360.000 322.533,360.000 322.000 C 360.000 321.548,360.267 321.200,360.613 321.200 C 360.949 321.200,361.343 320.885,361.486 320.500 C 361.630 320.115,362.074 319.565,362.474 319.277 C 362.893 318.976,363.200 318.256,363.200 317.577 C 363.200 316.667,363.381 316.400,364.000 316.400 C 364.533 316.400,364.800 316.133,364.800 315.600 C 364.800 315.067,365.067 314.800,365.600 314.800 C 366.097 314.800,366.400 314.533,366.400 314.096 C 366.400 313.709,366.760 313.168,367.200 312.893 C 367.710 312.574,368.000 311.960,368.000 311.197 C 368.000 310.267,368.178 310.000,368.800 310.000 C 369.442 310.000,369.600 309.733,369.600 308.647 C 369.600 307.630,369.799 307.241,370.400 307.084 C 370.879 306.959,371.200 306.538,371.200 306.037 C 371.200 305.571,371.458 305.200,371.782 305.200 C 372.127 305.200,372.468 304.646,372.619 303.837 C 372.782 302.968,373.152 302.401,373.638 302.274 C 374.091 302.156,374.400 301.724,374.400 301.209 C 374.400 300.733,374.670 300.073,375.000 299.743 C 375.330 299.413,375.600 298.796,375.600 298.371 C 375.600 297.867,375.877 297.600,376.400 297.600 C 377.067 297.600,377.200 297.333,377.200 296.000 C 377.200 294.667,377.333 294.400,378.000 294.400 C 378.645 294.400,378.800 294.133,378.800 293.027 C 378.800 292.005,379.005 291.589,379.600 291.400 C 380.201 291.209,380.400 290.795,380.400 289.736 C 380.400 288.662,380.591 288.275,381.200 288.116 C 381.786 287.963,382.000 287.570,382.000 286.650 C 382.000 285.826,382.276 285.220,382.800 284.893 C 383.285 284.590,383.600 283.960,383.600 283.293 C 383.600 282.626,383.915 281.996,384.400 281.693 C 384.910 281.374,385.200 280.760,385.200 279.997 C 385.200 279.333,385.557 278.443,386.000 278.000 C 386.533 277.467,386.800 276.667,386.800 275.600 C 386.800 274.504,386.974 274.000,387.353 274.000 C 387.984 274.000,388.387 272.800,388.395 270.900 C 388.398 270.058,388.596 269.600,388.957 269.600 C 389.648 269.600,390.000 268.732,390.000 267.029 C 390.000 266.232,390.311 265.442,390.800 265.000 C 391.286 264.560,391.600 263.768,391.600 262.981 C 391.600 262.198,391.838 261.594,392.200 261.455 C 392.654 261.281,392.800 260.547,392.800 258.440 C 392.800 256.005,392.901 255.622,393.600 255.400 C 394.305 255.176,394.400 254.795,394.400 252.173 C 394.400 249.467,394.472 249.200,395.200 249.200 C 395.933 249.200,396.000 248.933,396.000 246.000 C 396.000 243.067,396.067 242.800,396.800 242.800 C 397.547 242.800,397.600 242.533,397.600 238.800 C 397.600 235.648,397.718 234.800,398.157 234.800 C 399.032 234.800,399.200 233.860,399.200 228.967 C 399.200 226.189,399.357 224.400,399.600 224.400 C 399.862 224.400,400.000 216.000,400.000 200.000 C 400.000 184.000,399.862 175.600,399.600 175.600 C 399.357 175.600,399.200 173.811,399.200 171.033 C 399.200 166.140,399.032 165.200,398.157 165.200 C 397.718 165.200,397.600 164.352,397.600 161.200 C 397.600 157.467,397.547 157.200,396.800 157.200 C 396.070 157.200,396.000 156.933,396.000 154.163 C 396.000 151.462,395.911 151.102,395.200 150.916 C 394.491 150.731,394.400 150.370,394.400 147.753 C 394.400 145.067,394.328 144.800,393.600 144.800 C 392.878 144.800,392.800 144.533,392.800 142.049 C 392.800 140.092,392.627 139.154,392.200 138.800 C 391.870 138.526,391.600 137.734,391.600 137.040 C 391.600 136.273,391.286 135.509,390.800 135.093 C 390.247 134.620,390.000 133.913,390.000 132.807 C 390.000 131.640,389.783 131.072,389.200 130.707 C 388.691 130.389,388.398 129.770,388.395 129.004 C 388.386 127.194,387.972 126.000,387.353 126.000 C 386.974 126.000,386.800 125.496,386.800 124.400 C 386.800 123.333,386.533 122.533,386.000 122.000 C 385.560 121.560,385.200 120.748,385.200 120.196 C 385.200 119.644,384.840 118.884,384.400 118.507 C 383.945 118.117,383.600 117.327,383.600 116.674 C 383.600 115.862,383.366 115.464,382.800 115.316 C 382.194 115.157,382.000 114.770,382.000 113.716 C 382.000 112.662,381.806 112.275,381.200 112.116 C 380.573 111.952,380.400 111.570,380.400 110.353 C 380.400 109.067,380.263 108.800,379.600 108.800 C 378.933 108.800,378.800 108.533,378.800 107.200 C 378.800 105.867,378.667 105.600,378.000 105.600 C 377.348 105.600,377.200 105.333,377.200 104.163 C 377.200 103.062,377.013 102.676,376.400 102.516 C 375.960 102.401,375.600 101.990,375.600 101.602 C 375.600 101.215,375.330 100.674,375.000 100.400 C 374.670 100.126,374.400 99.457,374.400 98.914 C 374.400 98.278,374.128 97.854,373.638 97.726 C 373.152 97.599,372.782 97.032,372.619 96.163 C 372.468 95.354,372.127 94.800,371.782 94.800 C 371.462 94.800,371.200 94.440,371.200 94.000 C 371.200 93.467,370.933 93.200,370.400 93.200 C 369.733 93.200,369.600 92.933,369.600 91.600 C 369.600 90.267,369.467 90.000,368.800 90.000 C 368.180 90.000,368.000 89.733,368.000 88.814 C 368.000 88.038,367.724 87.480,367.200 87.200 C 366.760 86.965,366.400 86.418,366.400 85.986 C 366.400 85.467,366.129 85.200,365.600 85.200 C 365.067 85.200,364.800 84.933,364.800 84.400 C 364.800 83.867,364.533 83.600,364.000 83.600 C 363.372 83.600,363.200 83.333,363.200 82.363 C 363.200 81.462,362.983 81.068,362.400 80.916 C 361.957 80.800,361.600 80.370,361.600 79.953 C 361.600 79.467,361.317 79.200,360.800 79.200 C 360.283 79.200,360.000 78.933,360.000 78.447 C 360.000 78.030,359.643 77.600,359.200 77.484 C 358.615 77.331,358.400 76.938,358.400 76.025 C 358.400 75.322,358.155 74.681,357.839 74.560 C 357.531 74.441,357.188 73.997,357.077 73.572 C 356.966 73.148,356.588 72.800,356.237 72.800 C 355.867 72.800,355.600 72.465,355.600 72.000 C 355.600 71.467,355.333 71.200,354.800 71.200 C 354.267 71.200,354.000 70.933,354.000 70.400 C 354.000 69.867,353.733 69.600,353.200 69.600 C 352.760 69.600,352.400 69.338,352.400 69.018 C 352.400 68.698,351.970 67.958,351.445 67.373 C 349.745 65.478,349.343 64.951,349.082 64.269 C 348.941 63.901,348.570 63.600,348.259 63.600 C 347.948 63.600,347.599 63.240,347.484 62.800 C 347.369 62.360,346.988 62.000,346.637 62.000 C 346.267 62.000,346.000 61.665,346.000 61.200 C 346.000 60.667,345.733 60.400,345.200 60.400 C 344.667 60.400,344.400 60.133,344.400 59.600 C 344.400 59.067,344.133 58.800,343.600 58.800 C 343.067 58.800,342.800 58.533,342.800 58.000 C 342.800 57.560,342.551 57.200,342.247 57.200 C 341.942 57.200,341.599 56.840,341.484 56.400 C 341.369 55.960,341.000 55.600,340.664 55.600 C 340.329 55.600,339.940 55.240,339.800 54.800 C 339.660 54.360,339.364 54.000,339.142 54.000 C 338.919 54.000,338.055 53.325,337.220 52.500 C 336.386 51.675,335.188 50.640,334.558 50.200 C 333.929 49.760,332.997 48.995,332.489 48.500 C 331.980 48.005,331.302 47.600,330.982 47.600 C 330.662 47.600,330.400 47.240,330.400 46.800 C 330.400 46.267,330.133 46.000,329.600 46.000 C 329.156 46.000,328.800 45.733,328.800 45.400 C 328.800 45.067,328.444 44.800,328.000 44.800 C 327.467 44.800,327.200 44.533,327.200 44.000 C 327.200 43.483,326.933 43.200,326.447 43.200 C 326.030 43.200,325.600 42.843,325.484 42.400 C 325.332 41.817,324.938 41.600,324.037 41.600 C 323.067 41.600,322.800 41.428,322.800 40.800 C 322.800 40.267,322.533 40.000,322.000 40.000 C 321.548 40.000,321.200 39.733,321.200 39.387 C 321.200 39.051,320.885 38.657,320.500 38.514 C 320.115 38.370,319.565 37.926,319.277 37.526 C 318.976 37.107,318.256 36.800,317.577 36.800 C 316.667 36.800,316.400 36.619,316.400 36.000 C 316.400 35.467,316.133 35.200,315.600 35.200 C 315.067 35.200,314.800 34.933,314.800 34.400 C 314.800 33.882,314.533 33.600,314.043 33.600 C 313.626 33.600,313.186 33.340,313.064 33.022 C 312.942 32.704,312.219 32.327,311.458 32.184 C 310.571 32.018,310.002 31.651,309.874 31.162 C 309.732 30.620,309.318 30.400,308.437 30.400 C 307.604 30.400,307.200 30.204,307.200 29.800 C 307.200 29.458,306.840 29.200,306.363 29.200 C 305.862 29.200,305.441 28.879,305.316 28.400 C 305.159 27.799,304.770 27.600,303.753 27.600 C 302.667 27.600,302.400 27.442,302.400 26.800 C 302.400 26.234,302.133 26.000,301.489 26.000 C 300.988 26.000,300.270 25.640,299.893 25.200 C 299.516 24.760,298.867 24.400,298.451 24.400 C 298.030 24.400,297.600 24.045,297.484 23.600 C 297.324 22.987,296.938 22.800,295.837 22.800 C 294.667 22.800,294.400 22.652,294.400 22.000 C 294.400 21.354,294.133 21.200,293.014 21.200 C 292.038 21.200,291.502 20.964,291.200 20.400 C 290.921 19.879,290.362 19.600,289.600 19.600 C 288.838 19.600,288.279 19.321,288.000 18.800 C 287.725 18.286,287.162 18.000,286.429 18.000 C 285.800 18.000,285.186 17.740,285.064 17.422 C 284.942 17.104,284.215 16.727,283.449 16.583 C 282.682 16.439,281.962 16.079,281.849 15.783 C 281.735 15.487,280.966 15.117,280.140 14.962 C 279.314 14.807,278.281 14.348,277.844 13.940 C 277.359 13.488,276.455 13.200,275.525 13.200 C 274.436 13.200,274.000 13.028,274.000 12.600 C 274.000 12.139,273.489 12.000,271.800 12.000 C 269.867 12.000,269.600 11.903,269.600 11.200 C 269.600 10.512,269.333 10.400,267.688 10.400 C 266.235 10.400,265.638 10.208,265.200 9.600 C 264.798 9.043,264.165 8.800,263.112 8.800 C 262.086 8.800,261.600 8.621,261.600 8.243 C 261.600 7.457,260.696 7.200,257.930 7.200 C 255.862 7.200,255.496 7.088,255.316 6.400 C 255.131 5.691,254.770 5.600,252.153 5.600 C 249.467 5.600,249.200 5.528,249.200 4.800 C 249.200 4.067,248.933 4.000,246.000 4.000 C 243.067 4.000,242.800 3.933,242.800 3.200 C 242.800 2.453,242.533 2.400,238.800 2.400 C 235.661 2.400,234.800 2.281,234.800 1.847 C 234.800 1.034,233.499 0.812,228.700 0.805 C 226.104 0.802,224.400 0.642,224.400 0.400 C 224.400 0.138,216.000 0.000,200.000 0.000 C 184.000 0.000,175.600 0.138,175.600 0.400 M219.600 32.560 C 223.890 32.920,228.750 33.500,230.400 33.849 C 239.782 35.834,243.142 36.679,248.600 38.430 C 249.920 38.854,251.243 39.200,251.540 39.200 C 251.836 39.200,252.646 39.462,253.340 39.782 C 254.715 40.417,257.195 41.333,259.987 42.236 C 260.970 42.554,261.951 42.991,262.167 43.207 C 262.383 43.423,262.839 43.602,263.180 43.603 C 263.521 43.605,265.293 44.325,267.117 45.203 C 268.942 46.082,270.514 46.800,270.610 46.800 C 270.901 46.800,278.078 50.403,279.800 51.412 C 280.680 51.929,282.647 53.008,284.171 53.812 C 285.695 54.615,287.746 55.886,288.729 56.636 C 289.711 57.386,290.655 58.000,290.826 58.000 C 292.123 58.000,305.494 68.162,313.170 74.983 C 322.778 83.519,342.400 106.873,342.400 109.772 C 342.400 109.944,342.916 110.741,343.547 111.542 C 344.178 112.344,345.393 114.311,346.247 115.913 C 347.101 117.516,348.188 119.496,348.663 120.313 C 349.867 122.386,352.464 127.666,353.920 131.000 C 354.592 132.540,355.424 134.340,355.769 135.000 C 356.113 135.660,356.396 136.426,356.398 136.701 C 356.399 136.977,356.760 137.875,357.200 138.696 C 357.640 139.516,358.000 140.434,358.000 140.734 C 358.000 141.034,358.243 141.846,358.540 142.540 C 359.659 145.149,360.785 148.254,361.173 149.800 C 361.990 153.054,363.118 157.029,363.500 158.000 C 363.716 158.550,364.024 160.068,364.184 161.374 C 364.345 162.680,364.644 164.191,364.850 164.732 C 365.056 165.273,365.414 167.085,365.645 168.758 C 365.877 170.431,366.321 172.781,366.632 173.979 C 366.943 175.178,367.382 179.228,367.608 182.979 C 367.834 186.731,368.185 192.140,368.387 195.000 C 368.719 199.677,368.324 213.470,367.809 215.200 C 367.711 215.530,367.440 218.050,367.207 220.800 C 366.811 225.465,366.207 229.394,365.147 234.200 C 364.905 235.300,364.466 237.370,364.173 238.800 C 363.880 240.230,363.174 243.020,362.604 245.000 C 362.035 246.980,361.323 249.500,361.022 250.600 C 360.721 251.700,359.998 253.860,359.415 255.400 C 358.833 256.940,358.166 258.829,357.932 259.598 C 357.699 260.367,357.259 261.352,356.954 261.787 C 356.649 262.222,356.400 262.819,356.400 263.114 C 356.400 263.408,355.930 264.673,355.356 265.925 C 352.065 273.097,351.520 274.254,351.176 274.800 C 350.968 275.130,350.619 275.850,350.399 276.400 C 350.180 276.950,349.820 277.670,349.599 278.000 C 349.379 278.330,349.006 279.050,348.771 279.599 C 348.536 280.149,348.107 280.869,347.817 281.199 C 347.527 281.530,346.783 282.790,346.163 284.000 C 345.543 285.210,344.443 287.053,343.718 288.096 C 342.993 289.139,342.400 290.077,342.400 290.182 C 342.400 290.286,341.854 291.143,341.187 292.086 C 340.520 293.029,339.667 294.250,339.292 294.800 C 338.917 295.350,338.383 296.038,338.105 296.329 C 337.827 296.619,337.600 297.002,337.600 297.180 C 337.600 297.601,333.569 302.851,330.943 305.851 C 329.812 307.143,327.580 309.730,325.983 311.600 C 321.197 317.203,320.092 318.329,314.245 323.553 C 311.162 326.307,308.348 328.839,307.991 329.180 C 306.096 330.990,304.320 332.428,301.800 334.191 C 300.260 335.268,298.280 336.659,297.400 337.282 C 296.520 337.905,294.810 339.076,293.600 339.884 C 292.390 340.693,290.770 341.837,290.000 342.426 C 288.713 343.411,286.035 344.903,277.400 349.445 C 271.604 352.494,266.861 354.800,266.387 354.800 C 266.131 354.800,265.354 355.062,264.660 355.382 C 263.497 355.920,262.658 356.239,258.200 357.845 C 257.320 358.162,256.240 358.592,255.800 358.800 C 253.267 359.998,247.090 361.873,243.353 362.578 C 241.788 362.873,240.168 363.291,239.753 363.506 C 239.339 363.722,238.130 364.024,237.067 364.178 C 236.003 364.333,234.455 364.698,233.625 364.991 C 232.796 365.284,229.436 365.889,226.159 366.337 C 206.791 368.981,189.607 369.068,176.000 366.589 C 174.350 366.288,171.650 365.925,170.000 365.780 C 167.192 365.535,163.832 364.762,159.600 363.387 C 158.610 363.066,156.990 362.639,156.000 362.440 C 155.010 362.240,153.660 361.896,153.000 361.674 C 152.340 361.453,150.450 360.871,148.800 360.381 C 144.564 359.123,141.167 357.958,140.000 357.364 C 138.388 356.543,134.811 354.987,131.828 353.811 C 130.304 353.209,128.774 352.575,128.428 352.401 C 128.083 352.226,126.090 351.238,124.000 350.203 C 121.910 349.169,119.930 348.082,119.599 347.789 C 119.269 347.496,118.549 347.059,117.999 346.818 C 117.450 346.578,116.335 345.980,115.523 345.491 C 114.710 345.001,112.370 343.621,110.323 342.424 C 106.963 340.461,101.518 336.585,99.411 334.658 C 98.965 334.250,98.150 333.623,97.600 333.265 C 89.370 327.905,72.443 310.866,66.241 301.700 C 65.609 300.765,64.953 300.000,64.784 300.000 C 64.229 300.000,59.613 292.929,54.514 284.268 C 53.241 282.106,51.891 279.856,51.512 279.268 C 51.134 278.681,50.277 277.030,49.608 275.600 C 48.939 274.170,48.034 272.334,47.596 271.521 C 47.158 270.707,46.800 269.859,46.800 269.636 C 46.800 269.413,46.149 267.829,45.354 266.115 C 44.559 264.402,43.577 262.280,43.173 261.400 C 42.769 260.520,41.966 258.270,41.389 256.400 C 40.812 254.530,40.091 252.370,39.787 251.600 C 39.483 250.830,39.061 249.570,38.849 248.800 C 38.638 248.030,38.283 246.860,38.061 246.200 C 37.162 243.522,36.065 239.251,35.648 236.800 C 35.132 233.774,34.557 230.845,33.762 227.196 C 33.449 225.764,33.012 221.714,32.789 218.196 C 32.567 214.678,32.181 210.630,31.933 209.200 C 31.031 204.008,32.172 178.495,33.359 177.308 C 33.640 177.027,35.039 177.753,38.000 179.716 C 38.990 180.372,41.330 181.723,43.200 182.718 C 45.070 183.713,47.391 184.948,48.358 185.463 C 49.325 185.977,50.315 186.557,50.558 186.750 C 50.801 186.944,51.450 187.228,52.000 187.383 C 53.435 187.786,57.262 189.222,58.187 189.705 C 59.327 190.300,64.795 192.000,65.568 192.000 C 65.930 192.000,67.210 192.280,68.413 192.622 C 76.682 194.974,96.596 196.127,103.000 194.625 C 104.320 194.316,106.750 193.933,108.400 193.776 C 110.050 193.618,111.850 193.314,112.400 193.098 C 112.950 192.883,114.660 192.363,116.200 191.944 C 117.740 191.524,119.900 190.933,121.000 190.631 C 123.702 189.888,127.251 188.509,127.752 188.008 C 127.976 187.784,128.442 187.600,128.786 187.600 C 129.130 187.600,130.039 187.265,130.806 186.856 C 131.573 186.447,132.620 185.980,133.134 185.818 C 134.017 185.540,138.949 182.788,142.729 180.463 C 143.679 179.878,145.792 178.365,147.423 177.100 C 149.053 175.835,150.475 174.800,150.582 174.800 C 151.880 174.800,164.794 161.158,168.000 156.400 C 168.330 155.910,169.050 154.920,169.600 154.199 C 171.482 151.732,175.515 144.888,177.157 141.376 C 177.871 139.849,178.639 138.261,178.864 137.847 C 179.089 137.433,179.547 136.353,179.882 135.447 C 180.217 134.541,180.933 132.630,181.473 131.200 C 182.455 128.601,183.295 125.566,184.075 121.800 C 184.303 120.700,184.751 118.920,185.071 117.845 C 187.037 111.232,187.112 90.596,185.200 82.200 C 184.799 80.440,184.267 78.100,184.017 77.000 C 182.876 71.984,182.459 70.519,181.854 69.400 C 181.497 68.740,181.198 67.930,181.189 67.600 C 181.180 67.270,180.825 66.280,180.400 65.400 C 179.975 64.520,179.621 63.568,179.614 63.284 C 179.606 63.000,178.379 60.300,176.887 57.284 C 174.495 52.447,172.702 49.334,168.718 43.094 C 163.967 35.655,163.858 34.449,167.926 34.382 C 168.517 34.373,169.720 34.105,170.600 33.787 C 171.480 33.469,174.630 33.006,177.600 32.758 C 180.570 32.509,184.260 32.162,185.800 31.987 C 190.200 31.486,211.001 31.839,219.600 32.560 " stroke="none" fill="#ffffff" fill-rule="evenodd"></path><path id="path1" d="M185.800 31.987 C 184.260 32.162,180.570 32.509,177.600 32.758 C 174.630 33.006,171.480 33.469,170.600 33.787 C 169.720 34.105,168.517 34.373,167.926 34.382 C 163.858 34.449,163.967 35.655,168.718 43.094 C 172.702 49.334,174.495 52.447,176.887 57.284 C 178.379 60.300,179.606 63.000,179.614 63.284 C 179.621 63.568,179.975 64.520,180.400 65.400 C 180.825 66.280,181.180 67.270,181.189 67.600 C 181.198 67.930,181.497 68.740,181.854 69.400 C 182.459 70.519,182.876 71.984,184.017 77.000 C 184.267 78.100,184.799 80.440,185.200 82.200 C 187.112 90.596,187.037 111.232,185.071 117.845 C 184.751 118.920,184.303 120.700,184.075 121.800 C 183.295 125.566,182.455 128.601,181.473 131.200 C 180.933 132.630,180.217 134.541,179.882 135.447 C 179.547 136.353,179.089 137.433,178.864 137.847 C 178.639 138.261,177.871 139.849,177.157 141.376 C 175.515 144.888,171.482 151.732,169.600 154.199 C 169.050 154.920,168.330 155.910,168.000 156.400 C 164.794 161.158,151.880 174.800,150.582 174.800 C 150.475 174.800,149.053 175.835,147.423 177.100 C 145.792 178.365,143.679 179.878,142.729 180.463 C 138.949 182.788,134.017 185.540,133.134 185.818 C 132.620 185.980,131.573 186.447,130.806 186.856 C 130.039 187.265,129.130 187.600,128.786 187.600 C 128.442 187.600,127.976 187.784,127.752 188.008 C 127.251 188.509,123.702 189.888,121.000 190.631 C 119.900 190.933,117.740 191.524,116.200 191.944 C 114.660 192.363,112.950 192.883,112.400 193.098 C 111.850 193.314,110.050 193.618,108.400 193.776 C 106.750 193.933,104.320 194.316,103.000 194.625 C 96.596 196.127,76.682 194.974,68.413 192.622 C 67.210 192.280,65.930 192.000,65.568 192.000 C 64.795 192.000,59.327 190.300,58.187 189.705 C 57.262 189.222,53.435 187.786,52.000 187.383 C 51.450 187.228,50.801 186.944,50.558 186.750 C 50.315 186.557,49.325 185.977,48.358 185.463 C 47.391 184.948,45.070 183.713,43.200 182.718 C 41.330 181.723,38.990 180.372,38.000 179.716 C 35.039 177.753,33.640 177.027,33.359 177.308 C 32.172 178.495,31.031 204.008,31.933 209.200 C 32.181 210.630,32.567 214.678,32.789 218.196 C 33.012 221.714,33.449 225.764,33.762 227.196 C 34.557 230.845,35.132 233.774,35.648 236.800 C 36.065 239.251,37.162 243.522,38.061 246.200 C 38.283 246.860,38.638 248.030,38.849 248.800 C 39.061 249.570,39.483 250.830,39.787 251.600 C 40.091 252.370,40.812 254.530,41.389 256.400 C 41.966 258.270,42.769 260.520,43.173 261.400 C 43.577 262.280,44.559 264.402,45.354 266.115 C 46.149 267.829,46.800 269.413,46.800 269.636 C 46.800 269.859,47.158 270.707,47.596 271.521 C 48.034 272.334,48.939 274.170,49.608 275.600 C 50.277 277.030,51.134 278.681,51.512 279.268 C 51.891 279.856,53.241 282.106,54.514 284.268 C 59.613 292.929,64.229 300.000,64.784 300.000 C 64.953 300.000,65.609 300.765,66.241 301.700 C 72.443 310.866,89.370 327.905,97.600 333.265 C 98.150 333.623,98.965 334.250,99.411 334.658 C 101.518 336.585,106.963 340.461,110.323 342.424 C 112.370 343.621,114.710 345.001,115.523 345.491 C 116.335 345.980,117.450 346.578,117.999 346.818 C 118.549 347.059,119.269 347.496,119.599 347.789 C 119.930 348.082,121.910 349.169,124.000 350.203 C 126.090 351.238,128.083 352.226,128.428 352.401 C 128.774 352.575,130.304 353.209,131.828 353.811 C 134.811 354.987,138.388 356.543,140.000 357.364 C 141.167 357.958,144.564 359.123,148.800 360.381 C 150.450 360.871,152.340 361.453,153.000 361.674 C 153.660 361.896,155.010 362.240,156.000 362.440 C 156.990 362.639,158.610 363.066,159.600 363.387 C 163.832 364.762,167.192 365.535,170.000 365.780 C 171.650 365.925,174.350 366.288,176.000 366.589 C 189.607 369.068,206.791 368.981,226.159 366.337 C 229.436 365.889,232.796 365.284,233.625 364.991 C 234.455 364.698,236.003 364.333,237.067 364.178 C 238.130 364.024,239.339 363.722,239.753 363.506 C 240.168 363.291,241.788 362.873,243.353 362.578 C 247.090 361.873,253.267 359.998,255.800 358.800 C 256.240 358.592,257.320 358.162,258.200 357.845 C 262.658 356.239,263.497 355.920,264.660 355.382 C 265.354 355.062,266.131 354.800,266.387 354.800 C 266.861 354.800,271.604 352.494,277.400 349.445 C 286.035 344.903,288.713 343.411,290.000 342.426 C 290.770 341.837,292.390 340.693,293.600 339.884 C 294.810 339.076,296.520 337.905,297.400 337.282 C 298.280 336.659,300.260 335.268,301.800 334.191 C 304.320 332.428,306.096 330.990,307.991 329.180 C 308.348 328.839,311.162 326.307,314.245 323.553 C 320.092 318.329,321.197 317.203,325.983 311.600 C 327.580 309.730,329.812 307.143,330.943 305.851 C 333.569 302.851,337.600 297.601,337.600 297.180 C 337.600 297.002,337.827 296.619,338.105 296.329 C 338.383 296.038,338.917 295.350,339.292 294.800 C 339.667 294.250,340.520 293.029,341.187 292.086 C 341.854 291.143,342.400 290.286,342.400 290.182 C 342.400 290.077,342.993 289.139,343.718 288.096 C 344.443 287.053,345.543 285.210,346.163 284.000 C 346.783 282.790,347.527 281.530,347.817 281.199 C 348.107 280.869,348.536 280.149,348.771 279.599 C 349.006 279.050,349.379 278.330,349.599 278.000 C 349.820 277.670,350.180 276.950,350.399 276.400 C 350.619 275.850,350.968 275.130,351.176 274.800 C 351.520 274.254,352.065 273.097,355.356 265.925 C 355.930 264.673,356.400 263.408,356.400 263.114 C 356.400 262.819,356.649 262.222,356.954 261.787 C 357.259 261.352,357.699 260.367,357.932 259.598 C 358.166 258.829,358.833 256.940,359.415 255.400 C 359.998 253.860,360.721 251.700,361.022 250.600 C 361.323 249.500,362.035 246.980,362.604 245.000 C 363.174 243.020,363.880 240.230,364.173 238.800 C 364.466 237.370,364.905 235.300,365.147 234.200 C 366.207 229.394,366.811 225.465,367.207 220.800 C 367.440 218.050,367.711 215.530,367.809 215.200 C 368.324 213.470,368.719 199.677,368.387 195.000 C 368.185 192.140,367.834 186.731,367.608 182.979 C 367.382 179.228,366.943 175.178,366.632 173.979 C 366.321 172.781,365.877 170.431,365.645 168.758 C 365.414 167.085,365.056 165.273,364.850 164.732 C 364.644 164.191,364.345 162.680,364.184 161.374 C 364.024 160.068,363.716 158.550,363.500 158.000 C 363.118 157.029,361.990 153.054,361.173 149.800 C 360.785 148.254,359.659 145.149,358.540 142.540 C 358.243 141.846,358.000 141.034,358.000 140.734 C 358.000 140.434,357.640 139.516,357.200 138.696 C 356.760 137.875,356.399 136.977,356.398 136.701 C 356.396 136.426,356.113 135.660,355.769 135.000 C 355.424 134.340,354.592 132.540,353.920 131.000 C 352.464 127.666,349.867 122.386,348.663 120.313 C 348.188 119.496,347.101 117.516,346.247 115.913 C 345.393 114.311,344.178 112.344,343.547 111.542 C 342.916 110.741,342.400 109.944,342.400 109.772 C 342.400 108.424,331.522 94.078,325.017 86.847 C 323.319 84.958,314.829 76.457,313.170 74.983 C 305.494 68.162,292.123 58.000,290.826 58.000 C 290.655 58.000,289.711 57.386,288.729 56.636 C 287.746 55.886,285.695 54.615,284.171 53.812 C 282.647 53.008,280.680 51.929,279.800 51.412 C 278.078 50.403,270.901 46.800,270.610 46.800 C 270.514 46.800,268.942 46.082,267.117 45.203 C 265.293 44.325,263.521 43.605,263.180 43.603 C 262.839 43.602,262.383 43.423,262.167 43.207 C 261.951 42.991,260.970 42.554,259.987 42.236 C 257.195 41.333,254.715 40.417,253.340 39.782 C 252.646 39.462,251.836 39.200,251.540 39.200 C 251.243 39.200,249.920 38.854,248.600 38.430 C 243.142 36.679,239.782 35.834,230.400 33.849 C 223.162 32.319,193.696 31.088,185.800 31.987 M306.130 152.161 C 306.518 153.173,305.529 153.535,304.400 152.794 C 303.867 152.444,303.867 152.356,304.400 152.006 C 305.246 151.450,305.879 151.507,306.130 152.161 M194.400 153.600 C 194.400 154.705,194.289 154.800,193.000 154.800 C 191.461 154.800,191.229 154.273,192.262 153.131 C 193.330 151.952,194.400 152.186,194.400 153.600 M275.600 153.269 C 275.600 154.363,274.506 155.600,273.538 155.600 C 272.594 155.600,272.550 154.140,273.462 153.131 C 274.393 152.102,275.600 152.180,275.600 153.269 M240.800 154.751 C 240.800 155.696,239.784 156.621,239.410 156.016 C 239.016 155.379,239.575 154.000,240.227 154.000 C 240.542 154.000,240.800 154.338,240.800 154.751 M264.800 156.262 C 264.800 157.038,264.592 157.200,263.600 157.200 C 262.283 157.200,262.000 156.294,262.832 154.741 C 263.394 153.690,264.800 154.777,264.800 156.262 M185.927 156.100 C 186.050 157.172,186.001 157.200,184.027 157.200 C 182.342 157.200,182.000 157.079,182.000 156.480 C 182.000 154.465,185.697 154.107,185.927 156.100 M312.567 155.043 C 313.912 155.559,313.328 157.200,311.800 157.200 C 310.511 157.200,310.400 157.105,310.400 156.000 C 310.400 154.767,311.073 154.469,312.567 155.043 M331.000 155.600 C 331.000 155.930,330.595 156.258,330.100 156.328 C 329.407 156.426,329.200 156.259,329.200 155.600 C 329.200 154.941,329.407 154.774,330.100 154.872 C 330.595 154.942,331.000 155.270,331.000 155.600 M219.600 157.000 L 219.600 158.400 217.171 158.400 C 214.312 158.400,213.982 157.505,216.405 156.321 C 218.748 155.175,219.600 155.356,219.600 157.000 M252.400 157.000 C 252.400 158.376,252.372 158.400,250.730 158.400 L 249.061 158.400 249.930 159.326 C 250.409 159.835,250.800 160.645,250.800 161.126 C 250.800 162.377,255.081 162.436,256.200 161.200 C 257.375 159.902,260.597 160.498,262.197 162.310 C 263.254 163.508,265.600 162.820,265.600 161.312 C 265.600 160.565,265.817 160.400,266.800 160.400 C 267.733 160.400,268.000 160.222,268.000 159.600 C 268.000 158.978,268.267 158.800,269.200 158.800 C 271.111 158.800,271.019 161.473,269.100 161.711 C 267.973 161.850,268.026 161.880,269.500 161.936 C 271.164 161.999,271.200 162.030,271.200 163.400 C 271.200 164.533,271.352 164.800,272.000 164.800 C 272.614 164.800,272.800 164.533,272.800 163.654 C 272.800 162.595,272.939 162.490,274.656 162.254 C 277.677 161.840,278.800 161.934,278.800 162.600 C 278.800 163.033,279.244 163.200,280.400 163.200 C 281.962 163.200,282.000 163.167,282.000 161.800 L 282.000 160.400 284.592 160.400 C 287.024 160.400,287.200 160.462,287.436 161.400 C 287.689 162.409,288.198 162.606,289.377 162.153 C 289.786 161.997,289.892 161.741,289.668 161.453 C 288.699 160.205,288.457 158.472,289.164 157.833 C 290.160 156.931,290.800 157.050,290.800 158.136 C 290.800 158.746,291.148 159.230,291.800 159.527 C 292.626 159.904,292.808 160.280,292.846 161.691 C 292.872 162.631,292.975 163.085,293.076 162.700 C 293.205 162.205,293.690 161.986,294.729 161.954 C 295.538 161.928,295.885 161.825,295.500 161.724 C 294.225 161.391,294.635 159.763,296.100 159.345 C 296.991 159.090,297.440 158.694,297.528 158.087 C 297.778 156.353,300.800 156.827,300.800 158.600 C 300.800 159.969,300.763 160.002,299.100 160.070 L 297.400 160.140 299.100 160.293 C 300.464 160.416,300.800 160.600,300.800 161.223 C 300.800 161.650,301.048 162.000,301.350 162.000 C 301.653 162.000,302.463 162.113,303.150 162.250 C 304.296 162.479,304.400 162.413,304.400 161.450 C 304.400 160.517,304.556 160.400,305.800 160.400 C 306.570 160.400,307.200 160.220,307.200 160.000 C 307.200 158.745,310.001 159.628,310.054 160.900 C 310.094 161.840,310.157 161.951,310.282 161.300 C 310.422 160.575,310.723 160.400,311.828 160.400 C 312.933 160.400,313.200 160.245,313.200 159.600 C 313.200 159.067,313.467 158.800,314.000 158.800 C 314.533 158.800,314.800 158.533,314.800 158.000 C 314.800 157.307,315.067 157.200,316.800 157.200 C 319.276 157.200,319.812 158.769,317.600 159.540 C 316.072 160.073,315.731 163.200,317.200 163.200 C 317.733 163.200,318.000 163.467,318.000 164.000 C 318.000 164.533,318.267 164.800,318.800 164.800 C 319.467 164.800,319.600 164.533,319.600 163.200 C 319.600 162.320,319.420 161.600,319.200 161.600 C 318.397 161.600,318.780 159.660,319.637 159.388 C 320.275 159.186,320.409 158.919,320.204 158.261 C 319.379 155.618,319.385 155.600,321.153 155.600 L 322.800 155.600 322.800 157.800 C 322.800 159.799,322.718 160.005,321.900 160.054 L 321.000 160.109 321.900 160.282 C 322.539 160.405,322.800 160.738,322.800 161.428 C 322.800 162.272,322.984 162.400,324.200 162.400 C 325.502 162.400,325.604 162.491,325.654 163.700 C 325.694 164.640,325.757 164.751,325.882 164.100 C 326.252 162.183,328.789 162.866,328.854 164.900 C 328.884 165.835,328.987 166.195,329.082 165.700 C 329.178 165.205,329.513 164.800,329.828 164.800 C 330.215 164.800,330.400 164.348,330.400 163.400 C 330.400 162.267,330.552 162.000,331.200 162.000 C 331.733 162.000,332.000 161.733,332.000 161.200 C 332.000 160.533,332.267 160.400,333.600 160.400 C 335.162 160.400,335.200 160.433,335.200 161.800 C 335.200 162.933,335.352 163.200,336.000 163.200 C 336.444 163.200,336.800 162.933,336.800 162.600 C 336.800 162.167,337.244 162.000,338.400 162.000 C 339.556 162.000,340.000 162.167,340.000 162.600 C 340.000 163.067,340.533 163.200,342.400 163.200 C 344.212 163.200,344.800 163.060,344.800 162.629 C 344.800 162.315,345.115 161.976,345.500 161.876 C 345.885 161.775,345.525 161.672,344.700 161.646 C 342.438 161.576,342.341 158.800,344.600 158.800 C 345.733 158.800,346.000 158.952,346.000 159.600 C 346.000 160.311,346.267 160.400,348.400 160.400 C 350.533 160.400,350.800 160.489,350.800 161.200 C 350.800 161.933,351.067 162.000,354.000 162.000 C 356.933 162.000,357.200 161.933,357.200 161.200 C 357.200 160.552,357.467 160.400,358.600 160.400 L 360.000 160.400 360.000 162.600 C 360.000 164.680,360.055 164.800,361.000 164.800 C 361.786 164.800,362.000 164.597,362.000 163.849 C 362.000 163.326,362.270 162.674,362.600 162.400 C 363.125 161.964,363.200 162.327,363.200 165.322 C 363.200 168.038,363.343 168.886,363.895 169.438 C 364.409 169.952,364.663 171.132,364.870 173.953 C 365.079 176.818,365.315 177.895,365.812 178.258 C 366.822 178.997,366.948 219.268,365.945 220.800 C 365.489 221.496,365.208 223.183,365.020 226.352 C 364.865 228.967,364.525 231.265,364.222 231.752 C 363.931 232.218,363.594 234.022,363.473 235.760 C 363.342 237.633,363.050 239.046,362.754 239.228 C 362.479 239.398,362.175 240.652,362.076 242.020 C 361.952 243.733,361.664 244.736,361.148 245.252 C 360.623 245.777,360.400 246.578,360.400 247.938 C 360.400 249.368,360.190 250.066,359.600 250.600 C 359.058 251.090,358.800 251.832,358.800 252.899 C 358.800 253.868,358.492 254.865,358.000 255.491 C 357.560 256.050,357.200 257.024,357.200 257.654 C 357.200 258.284,356.840 259.160,356.400 259.600 C 355.902 260.098,355.600 260.933,355.600 261.813 C 355.600 262.702,355.377 263.311,354.998 263.456 C 354.667 263.583,354.285 264.377,354.151 265.219 C 354.016 266.061,353.680 266.837,353.403 266.943 C 353.127 267.049,352.784 267.762,352.640 268.528 C 352.496 269.293,352.114 270.140,351.789 270.409 C 351.465 270.678,351.200 271.104,351.200 271.355 C 351.200 271.606,350.840 272.484,350.400 273.304 C 349.960 274.125,349.600 275.043,349.600 275.345 C 349.600 275.646,349.240 276.350,348.800 276.909 C 348.360 277.469,348.000 278.123,348.000 278.363 C 348.000 278.603,347.640 279.160,347.200 279.600 C 346.760 280.040,346.400 280.720,346.400 281.111 C 346.400 281.502,346.040 282.130,345.600 282.507 C 345.160 282.884,344.800 283.514,344.800 283.907 C 344.800 284.300,344.440 284.930,344.000 285.307 C 343.560 285.684,343.200 286.224,343.200 286.507 C 343.200 286.790,342.840 287.330,342.400 287.707 C 341.960 288.084,341.600 288.754,341.600 289.196 C 341.600 289.638,341.450 290.000,341.267 290.000 C 340.940 290.000,338.400 293.681,338.400 294.156 C 338.400 294.290,338.085 294.747,337.700 295.171 C 336.199 296.825,335.783 297.404,335.319 298.482 C 335.055 299.097,334.650 299.600,334.419 299.600 C 334.189 299.600,334.000 299.864,334.000 300.186 C 334.000 300.508,333.640 300.965,333.200 301.200 C 332.760 301.435,332.400 301.892,332.400 302.214 C 332.400 302.536,332.252 302.800,332.072 302.800 C 331.641 302.800,327.600 307.848,327.600 308.385 C 327.600 308.613,327.324 308.800,326.987 308.800 C 326.651 308.800,326.274 309.063,326.150 309.385 C 325.513 311.047,311.085 325.498,309.428 326.134 C 309.083 326.266,308.800 326.630,308.800 326.941 C 308.800 327.252,308.440 327.601,308.000 327.716 C 307.560 327.831,307.200 328.212,307.200 328.563 C 307.200 328.913,306.990 329.200,306.734 329.200 C 306.477 329.200,305.982 329.469,305.634 329.798 C 304.272 331.083,302.464 332.400,302.062 332.400 C 301.830 332.400,301.496 332.626,301.320 332.901 C 300.920 333.528,297.891 335.600,297.375 335.600 C 297.164 335.600,296.768 335.960,296.493 336.400 C 296.218 336.840,295.725 337.200,295.397 337.200 C 295.068 337.200,294.800 337.384,294.800 337.610 C 294.800 337.835,294.310 338.206,293.711 338.434 C 293.112 338.662,292.347 339.099,292.011 339.405 C 291.675 339.712,290.995 340.331,290.500 340.781 C 290.005 341.232,289.332 341.600,289.003 341.600 C 288.675 341.600,288.182 341.960,287.907 342.400 C 287.632 342.840,287.115 343.200,286.758 343.200 C 286.400 343.200,285.650 343.560,285.091 344.000 C 284.531 344.440,283.861 344.800,283.600 344.800 C 283.339 344.800,282.669 345.160,282.109 345.600 C 281.550 346.040,280.796 346.400,280.435 346.400 C 280.074 346.400,279.470 346.760,279.093 347.200 C 278.716 347.640,278.074 348.000,277.666 348.000 C 277.258 348.000,276.598 348.360,276.200 348.800 C 275.802 349.240,275.157 349.600,274.767 349.600 C 274.376 349.600,273.811 349.846,273.510 350.147 C 273.209 350.448,272.521 350.833,271.981 351.002 C 271.442 351.172,270.571 351.645,270.046 352.055 C 269.521 352.465,268.688 352.800,268.195 352.800 C 267.702 352.800,267.090 353.050,266.836 353.357 C 266.582 353.663,265.560 354.035,264.564 354.185 C 263.568 354.334,262.662 354.695,262.550 354.987 C 262.438 355.278,261.563 355.635,260.606 355.778 C 259.649 355.922,258.667 356.278,258.425 356.570 C 258.183 356.861,257.292 357.211,256.444 357.347 C 255.597 357.482,254.678 357.864,254.403 358.196 C 254.127 358.528,253.318 358.800,252.605 358.800 C 251.892 358.800,250.879 359.133,250.354 359.540 C 249.802 359.968,248.413 360.379,247.059 360.515 C 245.771 360.645,244.421 361.009,244.059 361.325 C 243.693 361.644,242.191 361.990,240.681 362.105 C 238.989 362.233,237.692 362.554,237.249 362.955 C 236.797 363.365,235.817 363.600,234.563 363.600 C 233.406 363.600,232.011 363.908,231.194 364.343 C 230.173 364.887,228.569 365.148,225.200 365.319 C 222.638 365.449,219.891 365.820,219.000 366.158 C 216.218 367.213,182.564 367.078,179.496 366.000 C 177.929 365.449,176.189 365.199,173.910 365.198 C 171.672 365.196,170.211 364.991,169.400 364.564 C 168.740 364.216,166.881 363.830,165.268 363.706 C 163.514 363.571,162.104 363.247,161.758 362.901 C 161.440 362.583,160.104 362.225,158.790 362.106 C 157.475 361.986,156.400 361.751,156.400 361.584 C 156.400 361.115,154.045 360.400,152.503 360.400 C 151.732 360.400,150.679 360.048,150.109 359.600 C 149.455 359.086,148.486 358.800,147.395 358.800 C 146.416 358.800,145.498 358.559,145.226 358.231 C 144.966 357.918,144.055 357.544,143.200 357.400 C 142.345 357.256,141.438 356.886,141.183 356.579 C 140.928 356.272,140.114 355.908,139.374 355.769 C 138.634 355.630,137.824 355.270,137.574 354.969 C 137.324 354.668,136.506 354.306,135.755 354.165 C 135.005 354.024,134.296 353.755,134.179 353.566 C 134.062 353.376,133.209 353.020,132.283 352.774 C 131.357 352.527,130.330 352.092,130.000 351.807 C 129.670 351.522,128.815 351.165,128.100 351.013 C 127.385 350.861,126.800 350.585,126.800 350.400 C 126.800 350.215,126.215 349.935,125.500 349.778 C 124.785 349.621,123.965 349.157,123.677 348.746 C 123.390 348.336,122.812 348.000,122.393 348.000 C 121.974 348.000,121.309 347.685,120.916 347.300 C 120.522 346.915,119.312 346.150,118.227 345.600 C 117.141 345.050,115.926 344.285,115.527 343.900 C 115.127 343.515,114.480 343.200,114.089 343.200 C 113.698 343.200,113.070 342.840,112.693 342.400 C 112.316 341.960,111.640 341.600,111.191 341.600 C 110.742 341.600,110.271 341.330,110.145 341.000 C 110.018 340.670,109.677 340.400,109.388 340.400 C 109.098 340.400,108.327 339.950,107.673 339.400 C 107.019 338.850,106.273 338.400,106.015 338.400 C 105.757 338.400,104.952 337.770,104.226 337.000 C 103.500 336.230,102.696 335.600,102.440 335.600 C 102.184 335.600,101.878 335.346,101.759 335.037 C 101.640 334.727,101.015 334.255,100.371 333.988 C 99.727 333.721,99.200 333.339,99.200 333.139 C 99.200 332.939,98.885 332.654,98.500 332.506 C 98.115 332.359,97.089 331.554,96.220 330.719 C 95.350 329.883,94.433 329.200,94.181 329.200 C 93.930 329.200,93.398 328.840,93.000 328.400 C 92.602 327.960,92.034 327.600,91.738 327.600 C 91.442 327.600,91.200 327.330,91.200 327.000 C 91.200 326.670,91.022 326.400,90.804 326.400 C 90.300 326.400,74.000 310.107,74.000 309.603 C 74.000 309.397,73.640 309.035,73.200 308.800 C 72.760 308.565,72.400 308.108,72.400 307.786 C 72.400 307.464,72.250 307.200,72.068 307.200 C 71.885 307.200,71.480 306.705,71.168 306.100 C 70.855 305.495,69.970 304.322,69.200 303.492 C 67.570 301.737,66.757 300.769,66.200 299.921 C 64.658 297.575,64.097 296.851,62.924 295.701 C 62.196 294.986,61.600 294.156,61.600 293.855 C 61.600 293.554,61.240 292.850,60.800 292.291 C 60.360 291.731,60.000 291.105,60.000 290.899 C 60.000 290.693,59.640 290.198,59.200 289.800 C 58.760 289.402,58.400 288.772,58.400 288.400 C 58.400 288.028,58.040 287.398,57.600 287.000 C 57.160 286.602,56.800 285.972,56.800 285.600 C 56.800 285.228,56.440 284.598,56.000 284.200 C 55.560 283.802,55.200 283.256,55.200 282.987 C 55.200 282.718,54.942 282.283,54.626 282.021 C 54.310 281.759,53.936 281.017,53.794 280.372 C 53.652 279.728,53.281 279.200,52.968 279.200 C 52.656 279.200,52.400 278.864,52.400 278.454 C 52.400 278.044,52.051 277.264,51.625 276.722 C 51.198 276.180,50.731 275.263,50.586 274.685 C 50.440 274.106,50.069 273.423,49.761 273.167 C 49.452 272.911,49.200 272.274,49.200 271.751 C 49.200 271.228,48.840 270.440,48.400 270.000 C 47.960 269.560,47.600 268.774,47.600 268.254 C 47.600 267.734,47.240 266.850,46.800 266.291 C 46.360 265.731,46.000 264.805,46.000 264.233 C 46.000 263.661,45.640 262.884,45.200 262.507 C 44.757 262.128,44.400 261.327,44.400 260.714 C 44.400 260.040,44.087 259.411,43.600 259.107 C 43.030 258.751,42.800 258.174,42.800 257.102 C 42.800 256.274,42.440 254.925,42.000 254.104 C 41.560 253.284,41.200 252.083,41.200 251.437 C 41.200 250.791,40.915 249.948,40.566 249.563 C 40.217 249.177,39.834 248.083,39.714 247.131 C 39.593 246.179,39.222 245.087,38.889 244.704 C 38.547 244.311,38.173 242.806,38.030 241.252 C 37.892 239.736,37.582 238.250,37.343 237.948 C 37.103 237.647,36.806 235.993,36.682 234.274 C 36.559 232.554,36.203 230.754,35.891 230.274 C 35.545 229.739,35.223 227.704,35.062 225.029 C 34.892 222.213,34.586 220.333,34.199 219.743 C 33.542 218.740,33.262 178.800,33.912 178.800 C 34.083 178.800,34.483 179.160,34.800 179.600 C 35.117 180.040,35.654 180.400,35.992 180.400 C 36.331 180.400,36.832 180.760,37.107 181.200 C 37.419 181.699,38.040 182.000,38.757 182.000 C 39.570 182.000,39.968 182.234,40.116 182.800 C 40.275 183.406,40.662 183.600,41.716 183.600 C 42.770 183.600,43.157 183.794,43.316 184.400 C 43.434 184.853,43.862 185.200,44.301 185.200 C 44.727 185.200,45.402 185.560,45.800 186.000 C 46.198 186.440,46.837 186.800,47.219 186.800 C 47.602 186.800,48.014 187.060,48.136 187.378 C 48.258 187.696,49.042 188.079,49.879 188.229 C 50.716 188.379,51.670 188.733,52.000 189.017 C 52.330 189.300,53.278 189.658,54.106 189.812 C 54.934 189.965,55.750 190.339,55.919 190.641 C 56.089 190.944,57.121 191.311,58.214 191.456 C 59.306 191.602,60.344 191.964,60.520 192.260 C 60.730 192.614,61.637 192.800,63.158 192.800 C 64.968 192.800,65.635 192.975,66.200 193.600 C 66.797 194.259,67.432 194.400,69.815 194.400 C 72.370 194.400,72.731 194.493,72.916 195.200 C 73.114 195.957,73.467 196.001,79.463 196.013 C 84.400 196.023,85.971 196.155,86.576 196.613 C 87.572 197.365,88.569 197.361,89.200 196.600 C 89.616 196.099,91.201 196.000,98.835 196.000 C 107.562 196.000,107.991 195.964,108.400 195.200 C 108.776 194.497,109.238 194.400,112.200 194.400 C 115.162 194.400,115.624 194.303,116.000 193.600 C 116.348 192.949,116.838 192.800,118.627 192.800 C 120.212 192.800,120.889 192.633,121.055 192.200 C 121.210 191.797,121.844 191.600,122.989 191.600 C 124.046 191.600,125.054 191.316,125.646 190.852 C 126.171 190.441,127.230 189.971,128.000 189.808 C 128.770 189.644,129.670 189.281,130.000 189.000 C 130.330 188.719,131.170 188.368,131.867 188.220 C 132.563 188.072,133.233 187.692,133.354 187.376 C 133.479 187.050,134.101 186.800,134.784 186.800 C 135.560 186.800,136.172 186.513,136.493 186.000 C 136.768 185.560,137.294 185.200,137.664 185.200 C 138.766 185.200,139.600 184.751,139.600 184.157 C 139.600 183.829,140.012 183.600,140.604 183.600 C 141.156 183.600,141.916 183.240,142.293 182.800 C 142.670 182.360,143.298 182.000,143.689 182.000 C 144.133 182.000,144.400 181.700,144.400 181.200 C 144.400 180.617,144.667 180.400,145.384 180.400 C 145.926 180.400,146.691 180.069,147.084 179.664 C 147.478 179.259,148.115 178.815,148.500 178.677 C 148.885 178.538,149.200 178.149,149.200 177.813 C 149.200 177.467,149.548 177.200,150.000 177.200 C 150.533 177.200,150.800 176.933,150.800 176.400 C 150.800 175.807,151.067 175.600,151.831 175.600 C 152.504 175.600,153.414 175.043,154.447 174.000 C 155.318 173.120,156.204 172.400,156.415 172.400 C 156.627 172.400,156.800 172.142,156.800 171.827 C 156.800 171.512,157.160 171.140,157.600 171.000 C 158.040 170.860,158.400 170.488,158.400 170.173 C 158.400 169.858,158.760 169.600,159.200 169.600 C 159.733 169.600,160.000 169.333,160.000 168.800 C 160.000 168.267,160.267 168.000,160.800 168.000 C 161.333 168.000,161.600 167.733,161.600 167.200 C 161.600 166.735,161.867 166.400,162.237 166.400 C 162.588 166.400,162.969 166.040,163.084 165.600 C 163.200 165.157,163.630 164.800,164.047 164.800 C 164.533 164.800,164.800 164.517,164.800 164.000 C 164.800 163.560,165.067 163.200,165.392 163.200 C 165.718 163.200,166.106 162.705,166.254 162.100 C 166.664 160.424,168.000 159.736,168.000 161.200 C 168.000 161.733,168.267 162.000,168.800 162.000 C 169.333 162.000,169.600 161.733,169.600 161.200 C 169.600 160.533,169.867 160.400,171.200 160.400 C 172.533 160.400,172.800 160.533,172.800 161.200 C 172.800 161.848,173.067 162.000,174.200 162.000 L 175.600 162.000 175.676 164.300 L 175.751 166.600 175.896 164.300 L 176.040 162.000 177.420 162.000 C 178.380 162.000,178.800 162.183,178.800 162.600 C 178.800 162.933,179.156 163.200,179.600 163.200 C 180.248 163.200,180.400 162.933,180.400 161.800 C 180.400 160.667,180.552 160.400,181.200 160.400 C 181.640 160.400,182.000 160.220,182.000 160.000 C 182.000 159.780,182.720 159.600,183.600 159.600 C 185.111 159.600,185.200 159.667,185.200 160.800 C 185.200 161.733,185.378 162.000,186.000 162.000 C 186.444 162.000,186.800 162.267,186.800 162.600 C 186.800 162.933,187.156 163.200,187.600 163.200 C 188.248 163.200,188.400 162.933,188.400 161.800 C 188.400 160.433,188.438 160.400,190.000 160.400 C 190.880 160.400,191.600 160.220,191.600 160.000 C 191.600 159.417,194.297 159.509,194.535 160.100 C 194.646 160.375,194.751 160.195,194.768 159.700 C 194.819 158.251,199.445 158.339,200.000 159.800 C 200.209 160.350,200.655 160.800,200.990 160.800 C 201.374 160.800,201.600 160.429,201.600 159.800 C 201.600 159.250,201.780 158.800,202.000 158.800 C 202.220 158.800,202.400 158.440,202.400 158.000 C 202.400 157.333,202.667 157.200,204.000 157.200 C 205.945 157.200,206.559 159.760,204.700 160.118 C 204.205 160.213,204.565 160.316,205.500 160.346 C 206.951 160.392,207.200 160.283,207.200 159.600 C 207.200 158.952,207.467 158.800,208.600 158.800 C 210.856 158.800,210.760 161.566,208.500 161.667 L 207.000 161.734 208.500 161.891 C 209.466 161.992,210.000 162.253,210.000 162.624 C 210.000 162.972,210.396 163.200,211.000 163.200 C 211.876 163.200,212.000 163.027,212.000 161.800 C 212.000 160.822,212.181 160.400,212.600 160.400 C 212.933 160.400,213.200 160.044,213.200 159.600 C 213.200 158.933,213.467 158.800,214.800 158.800 C 216.133 158.800,216.400 158.933,216.400 159.600 C 216.400 160.267,216.667 160.400,218.000 160.400 C 219.333 160.400,219.600 160.267,219.600 159.600 C 219.600 158.933,219.867 158.800,221.200 158.800 C 222.533 158.800,222.800 158.933,222.800 159.600 C 222.800 160.133,223.067 160.400,223.600 160.400 C 224.133 160.400,224.400 160.133,224.400 159.600 C 224.400 158.952,224.667 158.800,225.800 158.800 C 227.027 158.800,227.200 158.924,227.200 159.800 C 227.200 160.676,227.027 160.800,225.800 160.800 C 224.822 160.800,224.400 160.981,224.400 161.400 C 224.400 161.730,224.670 162.000,225.000 162.000 C 225.419 162.000,225.600 162.422,225.600 163.400 C 225.600 164.533,225.752 164.800,226.400 164.800 C 226.933 164.800,227.200 165.067,227.200 165.600 C 227.200 166.125,227.467 166.400,227.977 166.400 C 228.600 166.400,228.784 166.736,228.907 168.100 C 228.992 169.042,229.091 168.329,229.130 166.500 C 229.195 163.443,229.141 163.200,228.400 163.200 C 227.752 163.200,227.600 162.933,227.600 161.800 C 227.600 160.176,231.183 159.482,231.213 161.100 C 231.225 161.791,232.089 163.200,232.500 163.200 C 232.616 163.200,232.829 162.570,232.974 161.800 C 233.189 160.652,233.413 160.400,234.218 160.400 C 234.933 160.400,235.200 160.183,235.200 159.600 C 235.200 158.933,235.467 158.800,236.800 158.800 C 237.680 158.800,238.400 158.620,238.400 158.400 C 238.400 158.180,239.120 158.000,240.000 158.000 C 241.156 158.000,241.600 158.167,241.600 158.600 C 241.600 159.033,241.156 159.200,240.000 159.200 C 238.174 159.200,237.979 159.700,239.270 161.074 C 239.841 161.682,240.596 162.000,241.470 162.000 C 242.386 162.000,242.800 162.187,242.800 162.600 C 242.800 162.930,242.980 163.200,243.200 163.200 C 243.420 163.200,243.600 163.560,243.600 164.000 C 243.600 164.622,243.867 164.800,244.800 164.800 C 245.905 164.800,246.000 164.689,246.000 163.400 C 246.000 162.319,246.164 162.000,246.720 162.000 C 248.623 162.000,249.036 159.707,247.200 159.340 C 246.540 159.208,246.000 158.960,246.000 158.789 C 246.000 158.618,246.540 158.290,247.200 158.060 C 248.111 157.743,248.400 157.395,248.400 156.621 C 248.400 155.663,248.522 155.600,250.400 155.600 L 252.400 155.600 252.400 157.000 M362.000 156.757 C 362.000 157.417,361.742 158.013,361.400 158.145 C 361.070 158.271,360.800 158.741,360.800 159.187 C 360.800 159.643,360.536 160.000,360.200 160.000 C 359.781 160.000,359.600 159.578,359.600 158.600 C 359.600 157.830,359.780 157.200,360.000 157.200 C 360.220 157.200,360.400 156.840,360.400 156.400 C 360.400 155.867,360.667 155.600,361.200 155.600 C 361.816 155.600,362.000 155.867,362.000 156.757 M191.600 157.400 C 191.600 158.133,191.387 158.400,190.800 158.400 C 190.267 158.400,190.000 158.667,190.000 159.200 C 190.000 159.867,189.733 160.000,188.400 160.000 C 186.374 160.000,186.223 158.956,188.031 157.436 C 189.703 156.028,191.600 156.010,191.600 157.400 M178.000 158.600 C 178.000 159.370,177.820 160.000,177.600 160.000 C 177.380 160.000,177.200 160.360,177.200 160.800 C 177.200 161.448,176.933 161.600,175.800 161.600 L 174.400 161.600 174.400 159.400 L 174.400 157.200 176.200 157.200 C 177.990 157.200,178.000 157.207,178.000 158.600 M285.200 158.600 C 285.200 159.967,285.162 160.000,283.600 160.000 C 281.807 160.000,281.506 159.341,282.700 158.033 C 283.938 156.678,285.200 156.964,285.200 158.600 M305.600 157.938 C 305.600 159.359,304.139 160.249,303.200 159.400 C 301.811 158.143,302.154 157.200,304.000 157.200 C 305.289 157.200,305.600 157.344,305.600 157.938 M352.400 159.000 C 352.400 159.844,352.213 160.000,351.200 160.000 C 350.041 160.000,349.513 159.020,350.267 158.267 C 350.996 157.537,352.400 158.020,352.400 159.000 M254.800 160.200 C 254.800 161.489,254.705 161.600,253.600 161.600 C 252.495 161.600,252.400 161.489,252.400 160.200 C 252.400 158.911,252.495 158.800,253.600 158.800 C 254.705 158.800,254.800 158.911,254.800 160.200 M327.200 160.200 C 327.200 161.784,326.387 162.074,325.131 160.938 C 323.875 159.801,324.187 158.800,325.800 158.800 C 327.133 158.800,327.200 158.867,327.200 160.200 M340.000 160.600 C 340.000 161.500,339.840 161.600,338.400 161.600 C 336.960 161.600,336.800 161.500,336.800 160.600 C 336.800 159.700,336.960 159.600,338.400 159.600 C 339.840 159.600,340.000 159.700,340.000 160.600 M195.604 161.395 C 195.204 161.877,195.233 162.038,195.755 162.238 C 196.643 162.579,197.600 162.151,197.600 161.413 C 197.600 160.628,196.250 160.617,195.604 161.395 M201.500 161.882 C 201.995 161.978,202.805 161.978,203.300 161.882 C 203.795 161.787,203.390 161.709,202.400 161.709 C 201.410 161.709,201.005 161.787,201.500 161.882 M214.800 163.200 L 214.800 164.800 218.000 164.800 L 221.200 164.800 221.200 163.200 C 221.200 161.867,221.067 161.600,220.400 161.600 C 219.867 161.600,219.600 161.867,219.600 162.400 C 219.600 163.067,219.333 163.200,218.000 163.200 C 216.667 163.200,216.400 163.067,216.400 162.400 C 216.400 161.867,216.133 161.600,215.600 161.600 C 214.933 161.600,214.800 161.867,214.800 163.200 M205.280 163.680 C 204.502 164.458,204.722 164.800,206.000 164.800 C 206.933 164.800,207.200 164.622,207.200 164.000 C 207.200 163.098,206.053 162.907,205.280 163.680 M285.200 164.000 C 285.200 164.533,285.467 164.800,286.000 164.800 C 286.533 164.800,286.800 164.533,286.800 164.000 C 286.800 163.467,286.533 163.200,286.000 163.200 C 285.467 163.200,285.200 163.467,285.200 164.000 M333.600 164.000 C 333.600 164.533,333.867 164.800,334.400 164.800 C 334.933 164.800,335.200 164.533,335.200 164.000 C 335.200 163.467,334.933 163.200,334.400 163.200 C 333.867 163.200,333.600 163.467,333.600 164.000 M171.200 165.600 C 171.200 166.133,171.467 166.400,172.000 166.400 C 172.533 166.400,172.800 166.133,172.800 165.600 C 172.800 165.067,172.533 164.800,172.000 164.800 C 171.467 164.800,171.200 165.067,171.200 165.600 M183.600 165.600 C 183.600 166.133,183.867 166.400,184.400 166.400 C 184.933 166.400,185.200 166.133,185.200 165.600 C 185.200 165.067,184.933 164.800,184.400 164.800 C 183.867 164.800,183.600 165.067,183.600 165.600 M208.509 166.400 C 208.509 167.390,208.587 167.795,208.682 167.300 C 208.778 166.805,208.778 165.995,208.682 165.500 C 208.587 165.005,208.509 165.410,208.509 166.400 M351.778 166.035 C 351.366 166.702,352.293 167.467,352.845 166.915 C 353.307 166.453,353.018 165.600,352.400 165.600 C 352.206 165.600,351.926 165.796,351.778 166.035 M192.854 168.100 C 192.884 169.035,192.987 169.395,193.082 168.900 C 193.191 168.337,193.545 168.000,194.028 168.000 C 194.533 168.000,194.800 167.724,194.800 167.200 C 194.800 166.613,194.533 166.400,193.800 166.400 C 192.882 166.400,192.804 166.539,192.854 168.100 " stroke="none" fill="#6554c3" fill-rule="evenodd"></path><path id="path2" d="M304.400 152.006 C 303.867 152.356,303.867 152.444,304.400 152.794 C 305.529 153.535,306.518 153.173,306.130 152.161 C 305.879 151.507,305.246 151.450,304.400 152.006 M192.262 153.131 C 191.229 154.273,191.461 154.800,193.000 154.800 C 194.289 154.800,194.400 154.705,194.400 153.600 C 194.400 152.186,193.330 151.952,192.262 153.131 M273.462 153.131 C 272.550 154.140,272.594 155.600,273.538 155.600 C 274.506 155.600,275.600 154.363,275.600 153.269 C 275.600 152.180,274.393 152.102,273.462 153.131 M239.401 154.796 C 239.262 155.234,239.266 155.783,239.410 156.016 C 239.784 156.621,240.800 155.696,240.800 154.751 C 240.800 153.752,239.722 153.787,239.401 154.796 M262.832 154.741 C 262.000 156.294,262.283 157.200,263.600 157.200 C 265.049 157.200,265.290 155.767,264.032 154.629 C 263.300 153.966,263.243 153.971,262.832 154.741 M182.498 155.262 C 181.310 156.450,181.902 157.200,184.027 157.200 C 186.001 157.200,186.050 157.172,185.927 156.100 C 185.784 154.860,183.467 154.293,182.498 155.262 M310.400 156.000 C 310.400 157.105,310.511 157.200,311.800 157.200 C 313.328 157.200,313.912 155.559,312.567 155.043 C 311.073 154.469,310.400 154.767,310.400 156.000 M329.200 155.600 C 329.200 156.259,329.407 156.426,330.100 156.328 C 330.595 156.258,331.000 155.930,331.000 155.600 C 331.000 155.270,330.595 154.942,330.100 154.872 C 329.407 154.774,329.200 154.941,329.200 155.600 M216.405 156.321 C 213.982 157.505,214.312 158.400,217.171 158.400 L 219.600 158.400 219.600 157.000 C 219.600 155.356,218.748 155.175,216.405 156.321 M248.400 156.621 C 248.400 157.395,248.111 157.743,247.200 158.060 C 246.540 158.290,246.000 158.618,246.000 158.789 C 246.000 158.960,246.540 159.208,247.200 159.340 C 249.036 159.707,248.623 162.000,246.720 162.000 C 246.164 162.000,246.000 162.319,246.000 163.400 C 246.000 164.689,245.905 164.800,244.800 164.800 C 243.867 164.800,243.600 164.622,243.600 164.000 C 243.600 163.560,243.420 163.200,243.200 163.200 C 242.980 163.200,242.800 162.930,242.800 162.600 C 242.800 162.187,242.386 162.000,241.470 162.000 C 240.596 162.000,239.841 161.682,239.270 161.074 C 237.979 159.700,238.174 159.200,240.000 159.200 C 241.156 159.200,241.600 159.033,241.600 158.600 C 241.600 158.167,241.156 158.000,240.000 158.000 C 239.120 158.000,238.400 158.180,238.400 158.400 C 238.400 158.620,237.680 158.800,236.800 158.800 C 235.467 158.800,235.200 158.933,235.200 159.600 C 235.200 160.183,234.933 160.400,234.218 160.400 C 233.413 160.400,233.189 160.652,232.974 161.800 C 232.829 162.570,232.616 163.200,232.500 163.200 C 232.089 163.200,231.225 161.791,231.213 161.100 C 231.183 159.482,227.600 160.176,227.600 161.800 C 227.600 162.933,227.752 163.200,228.400 163.200 C 229.141 163.200,229.195 163.443,229.130 166.500 C 229.091 168.329,228.992 169.042,228.907 168.100 C 228.784 166.736,228.600 166.400,227.977 166.400 C 227.467 166.400,227.200 166.125,227.200 165.600 C 227.200 165.067,226.933 164.800,226.400 164.800 C 225.752 164.800,225.600 164.533,225.600 163.400 C 225.600 162.422,225.419 162.000,225.000 162.000 C 224.670 162.000,224.400 161.730,224.400 161.400 C 224.400 160.981,224.822 160.800,225.800 160.800 C 227.027 160.800,227.200 160.676,227.200 159.800 C 227.200 158.924,227.027 158.800,225.800 158.800 C 224.667 158.800,224.400 158.952,224.400 159.600 C 224.400 160.133,224.133 160.400,223.600 160.400 C 223.067 160.400,222.800 160.133,222.800 159.600 C 222.800 158.933,222.533 158.800,221.200 158.800 C 219.867 158.800,219.600 158.933,219.600 159.600 C 219.600 160.267,219.333 160.400,218.000 160.400 C 216.667 160.400,216.400 160.267,216.400 159.600 C 216.400 158.933,216.133 158.800,214.800 158.800 C 213.467 158.800,213.200 158.933,213.200 159.600 C 213.200 160.044,212.933 160.400,212.600 160.400 C 212.181 160.400,212.000 160.822,212.000 161.800 C 212.000 163.027,211.876 163.200,211.000 163.200 C 210.396 163.200,210.000 162.972,210.000 162.624 C 210.000 162.253,209.466 161.992,208.500 161.891 L 207.000 161.734 208.500 161.667 C 210.760 161.566,210.856 158.800,208.600 158.800 C 207.467 158.800,207.200 158.952,207.200 159.600 C 207.200 160.283,206.951 160.392,205.500 160.346 C 204.565 160.316,204.205 160.213,204.700 160.118 C 206.559 159.760,205.945 157.200,204.000 157.200 C 202.667 157.200,202.400 157.333,202.400 158.000 C 202.400 158.440,202.220 158.800,202.000 158.800 C 201.780 158.800,201.600 159.250,201.600 159.800 C 201.600 160.429,201.374 160.800,200.990 160.800 C 200.655 160.800,200.209 160.350,200.000 159.800 C 199.445 158.339,194.819 158.251,194.768 159.700 C 194.751 160.195,194.646 160.375,194.535 160.100 C 194.297 159.509,191.600 159.417,191.600 160.000 C 191.600 160.220,190.880 160.400,190.000 160.400 C 188.438 160.400,188.400 160.433,188.400 161.800 C 188.400 162.933,188.248 163.200,187.600 163.200 C 187.156 163.200,186.800 162.933,186.800 162.600 C 186.800 162.267,186.444 162.000,186.000 162.000 C 185.378 162.000,185.200 161.733,185.200 160.800 C 185.200 159.667,185.111 159.600,183.600 159.600 C 182.720 159.600,182.000 159.780,182.000 160.000 C 182.000 160.220,181.640 160.400,181.200 160.400 C 180.552 160.400,180.400 160.667,180.400 161.800 C 180.400 162.933,180.248 163.200,179.600 163.200 C 179.156 163.200,178.800 162.933,178.800 162.600 C 178.800 162.183,178.380 162.000,177.420 162.000 L 176.040 162.000 175.896 164.300 L 175.751 166.600 175.676 164.300 L 175.600 162.000 174.200 162.000 C 173.067 162.000,172.800 161.848,172.800 161.200 C 172.800 160.533,172.533 160.400,171.200 160.400 C 169.867 160.400,169.600 160.533,169.600 161.200 C 169.600 161.733,169.333 162.000,168.800 162.000 C 168.267 162.000,168.000 161.733,168.000 161.200 C 168.000 159.736,166.664 160.424,166.254 162.100 C 166.106 162.705,165.718 163.200,165.392 163.200 C 165.067 163.200,164.800 163.560,164.800 164.000 C 164.800 164.517,164.533 164.800,164.047 164.800 C 163.630 164.800,163.200 165.157,163.084 165.600 C 162.969 166.040,162.588 166.400,162.237 166.400 C 161.867 166.400,161.600 166.735,161.600 167.200 C 161.600 167.733,161.333 168.000,160.800 168.000 C 160.267 168.000,160.000 168.267,160.000 168.800 C 160.000 169.333,159.733 169.600,159.200 169.600 C 158.760 169.600,158.400 169.858,158.400 170.173 C 158.400 170.488,158.040 170.860,157.600 171.000 C 157.160 171.140,156.800 171.512,156.800 171.827 C 156.800 172.142,156.627 172.400,156.415 172.400 C 156.204 172.400,155.318 173.120,154.447 174.000 C 153.414 175.043,152.504 175.600,151.831 175.600 C 151.067 175.600,150.800 175.807,150.800 176.400 C 150.800 176.933,150.533 177.200,150.000 177.200 C 149.548 177.200,149.200 177.467,149.200 177.813 C 149.200 178.149,148.885 178.538,148.500 178.677 C 148.115 178.815,147.478 179.259,147.084 179.664 C 146.691 180.069,145.926 180.400,145.384 180.400 C 144.667 180.400,144.400 180.617,144.400 181.200 C 144.400 181.700,144.133 182.000,143.689 182.000 C 143.298 182.000,142.670 182.360,142.293 182.800 C 141.916 183.240,141.156 183.600,140.604 183.600 C 140.012 183.600,139.600 183.829,139.600 184.157 C 139.600 184.751,138.766 185.200,137.664 185.200 C 137.294 185.200,136.768 185.560,136.493 186.000 C 136.172 186.513,135.560 186.800,134.784 186.800 C 134.101 186.800,133.479 187.050,133.354 187.376 C 133.233 187.692,132.563 188.072,131.867 188.220 C 131.170 188.368,130.330 188.719,130.000 189.000 C 129.670 189.281,128.770 189.644,128.000 189.808 C 127.230 189.971,126.171 190.441,125.646 190.852 C 125.054 191.316,124.046 191.600,122.989 191.600 C 121.844 191.600,121.210 191.797,121.055 192.200 C 120.889 192.633,120.212 192.800,118.627 192.800 C 116.838 192.800,116.348 192.949,116.000 193.600 C 115.624 194.303,115.162 194.400,112.200 194.400 C 109.238 194.400,108.776 194.497,108.400 195.200 C 107.991 195.964,107.562 196.000,98.835 196.000 C 91.201 196.000,89.616 196.099,89.200 196.600 C 88.569 197.361,87.572 197.365,86.576 196.613 C 85.971 196.155,84.400 196.023,79.463 196.013 C 73.467 196.001,73.114 195.957,72.916 195.200 C 72.731 194.493,72.370 194.400,69.815 194.400 C 67.432 194.400,66.797 194.259,66.200 193.600 C 65.635 192.975,64.968 192.800,63.158 192.800 C 61.637 192.800,60.730 192.614,60.520 192.260 C 60.344 191.964,59.306 191.602,58.214 191.456 C 57.121 191.311,56.089 190.944,55.919 190.641 C 55.750 190.339,54.934 189.965,54.106 189.812 C 53.278 189.658,52.330 189.300,52.000 189.017 C 51.670 188.733,50.716 188.379,49.879 188.229 C 49.042 188.079,48.258 187.696,48.136 187.378 C 48.014 187.060,47.602 186.800,47.219 186.800 C 46.837 186.800,46.198 186.440,45.800 186.000 C 45.402 185.560,44.727 185.200,44.301 185.200 C 43.862 185.200,43.434 184.853,43.316 184.400 C 43.157 183.794,42.770 183.600,41.716 183.600 C 40.662 183.600,40.275 183.406,40.116 182.800 C 39.968 182.234,39.570 182.000,38.757 182.000 C 38.040 182.000,37.419 181.699,37.107 181.200 C 36.832 180.760,36.331 180.400,35.992 180.400 C 35.654 180.400,35.117 180.040,34.800 179.600 C 34.483 179.160,34.083 178.800,33.912 178.800 C 33.262 178.800,33.542 218.740,34.199 219.743 C 34.586 220.333,34.892 222.213,35.062 225.029 C 35.223 227.704,35.545 229.739,35.891 230.274 C 36.203 230.754,36.559 232.554,36.682 234.274 C 36.806 235.993,37.103 237.647,37.343 237.948 C 37.582 238.250,37.892 239.736,38.030 241.252 C 38.173 242.806,38.547 244.311,38.889 244.704 C 39.222 245.087,39.593 246.179,39.714 247.131 C 39.834 248.083,40.217 249.177,40.566 249.563 C 40.915 249.948,41.200 250.791,41.200 251.437 C 41.200 252.083,41.560 253.284,42.000 254.104 C 42.440 254.925,42.800 256.274,42.800 257.102 C 42.800 258.174,43.030 258.751,43.600 259.107 C 44.087 259.411,44.400 260.040,44.400 260.714 C 44.400 261.327,44.757 262.128,45.200 262.507 C 45.640 262.884,46.000 263.661,46.000 264.233 C 46.000 264.805,46.360 265.731,46.800 266.291 C 47.240 266.850,47.600 267.734,47.600 268.254 C 47.600 268.774,47.960 269.560,48.400 270.000 C 48.840 270.440,49.200 271.228,49.200 271.751 C 49.200 272.274,49.452 272.911,49.761 273.167 C 50.069 273.423,50.440 274.106,50.586 274.685 C 50.731 275.263,51.198 276.180,51.625 276.722 C 52.051 277.264,52.400 278.044,52.400 278.454 C 52.400 278.864,52.656 279.200,52.968 279.200 C 53.281 279.200,53.652 279.728,53.794 280.372 C 53.936 281.017,54.310 281.759,54.626 282.021 C 54.942 282.283,55.200 282.718,55.200 282.987 C 55.200 283.256,55.560 283.802,56.000 284.200 C 56.440 284.598,56.800 285.228,56.800 285.600 C 56.800 285.972,57.160 286.602,57.600 287.000 C 58.040 287.398,58.400 288.028,58.400 288.400 C 58.400 288.772,58.760 289.402,59.200 289.800 C 59.640 290.198,60.000 290.693,60.000 290.899 C 60.000 291.105,60.360 291.731,60.800 292.291 C 61.240 292.850,61.600 293.554,61.600 293.855 C 61.600 294.156,62.196 294.986,62.924 295.701 C 64.097 296.851,64.658 297.575,66.200 299.921 C 66.757 300.769,67.570 301.737,69.200 303.492 C 69.970 304.322,70.855 305.495,71.168 306.100 C 71.480 306.705,71.885 307.200,72.068 307.200 C 72.250 307.200,72.400 307.464,72.400 307.786 C 72.400 308.108,72.760 308.565,73.200 308.800 C 73.640 309.035,74.000 309.397,74.000 309.603 C 74.000 310.107,90.300 326.400,90.804 326.400 C 91.022 326.400,91.200 326.670,91.200 327.000 C 91.200 327.330,91.442 327.600,91.738 327.600 C 92.034 327.600,92.602 327.960,93.000 328.400 C 93.398 328.840,93.930 329.200,94.181 329.200 C 94.433 329.200,95.350 329.883,96.220 330.719 C 97.089 331.554,98.115 332.359,98.500 332.506 C 98.885 332.654,99.200 332.939,99.200 333.139 C 99.200 333.339,99.727 333.721,100.371 333.988 C 101.015 334.255,101.640 334.727,101.759 335.037 C 101.878 335.346,102.184 335.600,102.440 335.600 C 102.696 335.600,103.500 336.230,104.226 337.000 C 104.952 337.770,105.757 338.400,106.015 338.400 C 106.273 338.400,107.019 338.850,107.673 339.400 C 108.327 339.950,109.098 340.400,109.388 340.400 C 109.677 340.400,110.018 340.670,110.145 341.000 C 110.271 341.330,110.742 341.600,111.191 341.600 C 111.640 341.600,112.316 341.960,112.693 342.400 C 113.070 342.840,113.698 343.200,114.089 343.200 C 114.480 343.200,115.127 343.515,115.527 343.900 C 115.926 344.285,117.141 345.050,118.227 345.600 C 119.312 346.150,120.522 346.915,120.916 347.300 C 121.309 347.685,121.974 348.000,122.393 348.000 C 122.812 348.000,123.390 348.336,123.677 348.746 C 123.965 349.157,124.785 349.621,125.500 349.778 C 126.215 349.935,126.800 350.215,126.800 350.400 C 126.800 350.585,127.385 350.861,128.100 351.013 C 128.815 351.165,129.670 351.522,130.000 351.807 C 130.330 352.092,131.357 352.527,132.283 352.774 C 133.209 353.020,134.062 353.376,134.179 353.566 C 134.296 353.755,135.005 354.024,135.755 354.165 C 136.506 354.306,137.324 354.668,137.574 354.969 C 137.824 355.270,138.634 355.630,139.374 355.769 C 140.114 355.908,140.928 356.272,141.183 356.579 C 141.438 356.886,142.345 357.256,143.200 357.400 C 144.055 357.544,144.966 357.918,145.226 358.231 C 145.498 358.559,146.416 358.800,147.395 358.800 C 148.486 358.800,149.455 359.086,150.109 359.600 C 150.679 360.048,151.732 360.400,152.503 360.400 C 154.045 360.400,156.400 361.115,156.400 361.584 C 156.400 361.751,157.475 361.986,158.790 362.106 C 160.104 362.225,161.440 362.583,161.758 362.901 C 162.104 363.247,163.514 363.571,165.268 363.706 C 166.881 363.830,168.740 364.216,169.400 364.564 C 170.211 364.991,171.672 365.196,173.910 365.198 C 176.189 365.199,177.929 365.449,179.496 366.000 C 182.564 367.078,216.218 367.213,219.000 366.158 C 219.891 365.820,222.638 365.449,225.200 365.319 C 228.569 365.148,230.173 364.887,231.194 364.343 C 232.011 363.908,233.406 363.600,234.563 363.600 C 235.817 363.600,236.797 363.365,237.249 362.955 C 237.692 362.554,238.989 362.233,240.681 362.105 C 242.191 361.990,243.693 361.644,244.059 361.325 C 244.421 361.009,245.771 360.645,247.059 360.515 C 248.413 360.379,249.802 359.968,250.354 359.540 C 250.879 359.133,251.892 358.800,252.605 358.800 C 253.318 358.800,254.127 358.528,254.403 358.196 C 254.678 357.864,255.597 357.482,256.444 357.347 C 257.292 357.211,258.183 356.861,258.425 356.570 C 258.667 356.278,259.649 355.922,260.606 355.778 C 261.563 355.635,262.438 355.278,262.550 354.987 C 262.662 354.695,263.568 354.334,264.564 354.185 C 265.560 354.035,266.582 353.663,266.836 353.357 C 267.090 353.050,267.702 352.800,268.195 352.800 C 268.688 352.800,269.521 352.465,270.046 352.055 C 270.571 351.645,271.442 351.172,271.981 351.002 C 272.521 350.833,273.209 350.448,273.510 350.147 C 273.811 349.846,274.376 349.600,274.767 349.600 C 275.157 349.600,275.802 349.240,276.200 348.800 C 276.598 348.360,277.258 348.000,277.666 348.000 C 278.074 348.000,278.716 347.640,279.093 347.200 C 279.470 346.760,280.074 346.400,280.435 346.400 C 280.796 346.400,281.550 346.040,282.109 345.600 C 282.669 345.160,283.339 344.800,283.600 344.800 C 283.861 344.800,284.531 344.440,285.091 344.000 C 285.650 343.560,286.400 343.200,286.758 343.200 C 287.115 343.200,287.632 342.840,287.907 342.400 C 288.182 341.960,288.675 341.600,289.003 341.600 C 289.332 341.600,290.005 341.232,290.500 340.781 C 290.995 340.331,291.675 339.712,292.011 339.405 C 292.347 339.099,293.112 338.662,293.711 338.434 C 294.310 338.206,294.800 337.835,294.800 337.610 C 294.800 337.384,295.068 337.200,295.397 337.200 C 295.725 337.200,296.218 336.840,296.493 336.400 C 296.768 335.960,297.164 335.600,297.375 335.600 C 297.891 335.600,300.920 333.528,301.320 332.901 C 301.496 332.626,301.830 332.400,302.062 332.400 C 302.464 332.400,304.272 331.083,305.634 329.798 C 305.982 329.469,306.477 329.200,306.734 329.200 C 306.990 329.200,307.200 328.913,307.200 328.563 C 307.200 328.212,307.560 327.831,308.000 327.716 C 308.440 327.601,308.800 327.252,308.800 326.941 C 308.800 326.630,309.083 326.266,309.428 326.134 C 311.085 325.498,325.513 311.047,326.150 309.385 C 326.274 309.063,326.651 308.800,326.987 308.800 C 327.324 308.800,327.600 308.613,327.600 308.385 C 327.600 307.848,331.641 302.800,332.072 302.800 C 332.252 302.800,332.400 302.536,332.400 302.214 C 332.400 301.892,332.760 301.435,333.200 301.200 C 333.640 300.965,334.000 300.508,334.000 300.186 C 334.000 299.864,334.189 299.600,334.419 299.600 C 334.650 299.600,335.055 299.097,335.319 298.482 C 335.783 297.404,336.199 296.825,337.700 295.171 C 338.085 294.747,338.400 294.290,338.400 294.156 C 338.400 293.681,340.940 290.000,341.267 290.000 C 341.450 290.000,341.600 289.638,341.600 289.196 C 341.600 288.754,341.960 288.084,342.400 287.707 C 342.840 287.330,343.200 286.790,343.200 286.507 C 343.200 286.224,343.560 285.684,344.000 285.307 C 344.440 284.930,344.800 284.300,344.800 283.907 C 344.800 283.514,345.160 282.884,345.600 282.507 C 346.040 282.130,346.400 281.502,346.400 281.111 C 346.400 280.720,346.760 280.040,347.200 279.600 C 347.640 279.160,348.000 278.603,348.000 278.363 C 348.000 278.123,348.360 277.469,348.800 276.909 C 349.240 276.350,349.600 275.646,349.600 275.345 C 349.600 275.043,349.960 274.125,350.400 273.304 C 350.840 272.484,351.200 271.606,351.200 271.355 C 351.200 271.104,351.465 270.678,351.789 270.409 C 352.114 270.140,352.496 269.293,352.640 268.528 C 352.784 267.762,353.127 267.049,353.403 266.943 C 353.680 266.837,354.016 266.061,354.151 265.219 C 354.285 264.377,354.667 263.583,354.998 263.456 C 355.377 263.311,355.600 262.702,355.600 261.813 C 355.600 260.933,355.902 260.098,356.400 259.600 C 356.840 259.160,357.200 258.284,357.200 257.654 C 357.200 257.024,357.560 256.050,358.000 255.491 C 358.492 254.865,358.800 253.868,358.800 252.899 C 358.800 251.832,359.058 251.090,359.600 250.600 C 360.190 250.066,360.400 249.368,360.400 247.938 C 360.400 246.578,360.623 245.777,361.148 245.252 C 361.664 244.736,361.952 243.733,362.076 242.020 C 362.175 240.652,362.479 239.398,362.754 239.228 C 363.050 239.046,363.342 237.633,363.473 235.760 C 363.594 234.022,363.931 232.218,364.222 231.752 C 364.525 231.265,364.865 228.967,365.020 226.352 C 365.208 223.183,365.489 221.496,365.945 220.800 C 366.948 219.268,366.822 178.997,365.812 178.258 C 365.315 177.895,365.079 176.818,364.870 173.953 C 364.663 171.132,364.409 169.952,363.895 169.438 C 363.343 168.886,363.200 168.038,363.200 165.322 C 363.200 162.327,363.125 161.964,362.600 162.400 C 362.270 162.674,362.000 163.326,362.000 163.849 C 362.000 164.597,361.786 164.800,361.000 164.800 C 360.055 164.800,360.000 164.680,360.000 162.600 L 360.000 160.400 358.600 160.400 C 357.467 160.400,357.200 160.552,357.200 161.200 C 357.200 161.933,356.933 162.000,354.000 162.000 C 351.067 162.000,350.800 161.933,350.800 161.200 C 350.800 160.489,350.533 160.400,348.400 160.400 C 346.267 160.400,346.000 160.311,346.000 159.600 C 346.000 158.952,345.733 158.800,344.600 158.800 C 342.341 158.800,342.438 161.576,344.700 161.646 C 345.525 161.672,345.885 161.775,345.500 161.876 C 345.115 161.976,344.800 162.315,344.800 162.629 C 344.800 163.060,344.212 163.200,342.400 163.200 C 340.533 163.200,340.000 163.067,340.000 162.600 C 340.000 162.167,339.556 162.000,338.400 162.000 C 337.244 162.000,336.800 162.167,336.800 162.600 C 336.800 162.933,336.444 163.200,336.000 163.200 C 335.352 163.200,335.200 162.933,335.200 161.800 C 335.200 160.433,335.162 160.400,333.600 160.400 C 332.267 160.400,332.000 160.533,332.000 161.200 C 332.000 161.733,331.733 162.000,331.200 162.000 C 330.552 162.000,330.400 162.267,330.400 163.400 C 330.400 164.348,330.215 164.800,329.828 164.800 C 329.513 164.800,329.178 165.205,329.082 165.700 C 328.987 166.195,328.884 165.835,328.854 164.900 C 328.789 162.866,326.252 162.183,325.882 164.100 C 325.757 164.751,325.694 164.640,325.654 163.700 C 325.604 162.491,325.502 162.400,324.200 162.400 C 322.984 162.400,322.800 162.272,322.800 161.428 C 322.800 160.738,322.539 160.405,321.900 160.282 L 321.000 160.109 321.900 160.054 C 322.718 160.005,322.800 159.799,322.800 157.800 L 322.800 155.600 321.153 155.600 C 319.385 155.600,319.379 155.618,320.204 158.261 C 320.409 158.919,320.275 159.186,319.637 159.388 C 318.780 159.660,318.397 161.600,319.200 161.600 C 319.420 161.600,319.600 162.320,319.600 163.200 C 319.600 164.533,319.467 164.800,318.800 164.800 C 318.267 164.800,318.000 164.533,318.000 164.000 C 318.000 163.467,317.733 163.200,317.200 163.200 C 315.731 163.200,316.072 160.073,317.600 159.540 C 319.812 158.769,319.276 157.200,316.800 157.200 C 315.067 157.200,314.800 157.307,314.800 158.000 C 314.800 158.533,314.533 158.800,314.000 158.800 C 313.467 158.800,313.200 159.067,313.200 159.600 C 313.200 160.245,312.933 160.400,311.828 160.400 C 310.723 160.400,310.422 160.575,310.282 161.300 C 310.157 161.951,310.094 161.840,310.054 160.900 C 310.001 159.628,307.200 158.745,307.200 160.000 C 307.200 160.220,306.570 160.400,305.800 160.400 C 304.556 160.400,304.400 160.517,304.400 161.450 C 304.400 162.413,304.296 162.479,303.150 162.250 C 302.463 162.113,301.653 162.000,301.350 162.000 C 301.048 162.000,300.800 161.650,300.800 161.223 C 300.800 160.600,300.464 160.416,299.100 160.293 L 297.400 160.140 299.100 160.070 C 300.763 160.002,300.800 159.969,300.800 158.600 C 300.800 156.827,297.778 156.353,297.528 158.087 C 297.440 158.694,296.991 159.090,296.100 159.345 C 294.635 159.763,294.225 161.391,295.500 161.724 C 295.885 161.825,295.538 161.928,294.729 161.954 C 293.690 161.986,293.205 162.205,293.076 162.700 C 292.975 163.085,292.872 162.631,292.846 161.691 C 292.808 160.280,292.626 159.904,291.800 159.527 C 291.148 159.230,290.800 158.746,290.800 158.136 C 290.800 157.050,290.160 156.931,289.164 157.833 C 288.457 158.472,288.699 160.205,289.668 161.453 C 289.892 161.741,289.786 161.997,289.377 162.153 C 288.198 162.606,287.689 162.409,287.436 161.400 C 287.200 160.462,287.024 160.400,284.592 160.400 L 282.000 160.400 282.000 161.800 C 282.000 163.167,281.962 163.200,280.400 163.200 C 279.244 163.200,278.800 163.033,278.800 162.600 C 278.800 161.934,277.677 161.840,274.656 162.254 C 272.939 162.490,272.800 162.595,272.800 163.654 C 272.800 164.533,272.614 164.800,272.000 164.800 C 271.352 164.800,271.200 164.533,271.200 163.400 C 271.200 162.030,271.164 161.999,269.500 161.936 C 268.026 161.880,267.973 161.850,269.100 161.711 C 271.019 161.473,271.111 158.800,269.200 158.800 C 268.267 158.800,268.000 158.978,268.000 159.600 C 268.000 160.222,267.733 160.400,266.800 160.400 C 265.817 160.400,265.600 160.565,265.600 161.312 C 265.600 162.820,263.254 163.508,262.197 162.310 C 260.597 160.498,257.375 159.902,256.200 161.200 C 255.081 162.436,250.800 162.377,250.800 161.126 C 250.800 160.645,250.409 159.835,249.930 159.326 L 249.061 158.400 250.730 158.400 C 252.372 158.400,252.400 158.376,252.400 157.000 L 252.400 155.600 250.400 155.600 C 248.522 155.600,248.400 155.663,248.400 156.621 M360.400 156.400 C 360.400 156.840,360.220 157.200,360.000 157.200 C 359.780 157.200,359.600 157.830,359.600 158.600 C 359.600 159.578,359.781 160.000,360.200 160.000 C 360.536 160.000,360.800 159.643,360.800 159.187 C 360.800 158.741,361.070 158.271,361.400 158.145 C 362.357 157.777,362.186 155.600,361.200 155.600 C 360.667 155.600,360.400 155.867,360.400 156.400 M188.031 157.436 C 186.223 158.956,186.374 160.000,188.400 160.000 C 189.733 160.000,190.000 159.867,190.000 159.200 C 190.000 158.667,190.267 158.400,190.800 158.400 C 191.387 158.400,191.600 158.133,191.600 157.400 C 191.600 156.010,189.703 156.028,188.031 157.436 M174.400 159.400 L 174.400 161.600 175.800 161.600 C 176.933 161.600,177.200 161.448,177.200 160.800 C 177.200 160.360,177.380 160.000,177.600 160.000 C 177.820 160.000,178.000 159.370,178.000 158.600 C 178.000 157.207,177.990 157.200,176.200 157.200 L 174.400 157.200 174.400 159.400 M282.700 158.033 C 281.506 159.341,281.807 160.000,283.600 160.000 C 285.162 160.000,285.200 159.967,285.200 158.600 C 285.200 156.964,283.938 156.678,282.700 158.033 M302.400 157.938 C 302.400 159.359,303.861 160.249,304.800 159.400 C 306.189 158.143,305.846 157.200,304.000 157.200 C 302.711 157.200,302.400 157.344,302.400 157.938 M350.267 158.267 C 349.513 159.020,350.041 160.000,351.200 160.000 C 352.213 160.000,352.400 159.844,352.400 159.000 C 352.400 158.020,350.996 157.537,350.267 158.267 M252.400 160.200 C 252.400 161.489,252.495 161.600,253.600 161.600 C 254.705 161.600,254.800 161.489,254.800 160.200 C 254.800 158.911,254.705 158.800,253.600 158.800 C 252.495 158.800,252.400 158.911,252.400 160.200 M324.400 159.538 C 324.400 160.430,325.609 161.600,326.531 161.600 C 327.029 161.600,327.200 161.242,327.200 160.200 C 327.200 158.867,327.133 158.800,325.800 158.800 C 324.706 158.800,324.400 158.961,324.400 159.538 M336.800 160.600 C 336.800 161.500,336.960 161.600,338.400 161.600 C 339.840 161.600,340.000 161.500,340.000 160.600 C 340.000 159.700,339.840 159.600,338.400 159.600 C 336.960 159.600,336.800 159.700,336.800 160.600 M197.600 161.413 C 197.600 162.151,196.643 162.579,195.755 162.238 C 195.233 162.038,195.204 161.877,195.604 161.395 C 196.250 160.617,197.600 160.628,197.600 161.413 M203.300 161.882 C 202.805 161.978,201.995 161.978,201.500 161.882 C 201.005 161.787,201.410 161.709,202.400 161.709 C 203.390 161.709,203.795 161.787,203.300 161.882 M216.400 162.400 C 216.400 163.067,216.667 163.200,218.000 163.200 C 219.333 163.200,219.600 163.067,219.600 162.400 C 219.600 161.867,219.867 161.600,220.400 161.600 C 221.067 161.600,221.200 161.867,221.200 163.200 L 221.200 164.800 218.000 164.800 L 214.800 164.800 214.800 163.200 C 214.800 161.867,214.933 161.600,215.600 161.600 C 216.133 161.600,216.400 161.867,216.400 162.400 M207.200 164.000 C 207.200 164.622,206.933 164.800,206.000 164.800 C 204.722 164.800,204.502 164.458,205.280 163.680 C 206.053 162.907,207.200 163.098,207.200 164.000 M286.800 164.000 C 286.800 164.533,286.533 164.800,286.000 164.800 C 285.467 164.800,285.200 164.533,285.200 164.000 C 285.200 163.467,285.467 163.200,286.000 163.200 C 286.533 163.200,286.800 163.467,286.800 164.000 M335.200 164.000 C 335.200 164.533,334.933 164.800,334.400 164.800 C 333.867 164.800,333.600 164.533,333.600 164.000 C 333.600 163.467,333.867 163.200,334.400 163.200 C 334.933 163.200,335.200 163.467,335.200 164.000 M172.800 165.600 C 172.800 166.133,172.533 166.400,172.000 166.400 C 171.467 166.400,171.200 166.133,171.200 165.600 C 171.200 165.067,171.467 164.800,172.000 164.800 C 172.533 164.800,172.800 165.067,172.800 165.600 M185.200 165.600 C 185.200 166.133,184.933 166.400,184.400 166.400 C 183.867 166.400,183.600 166.133,183.600 165.600 C 183.600 165.067,183.867 164.800,184.400 164.800 C 184.933 164.800,185.200 165.067,185.200 165.600 M208.682 167.300 C 208.587 167.795,208.509 167.390,208.509 166.400 C 208.509 165.410,208.587 165.005,208.682 165.500 C 208.778 165.995,208.778 166.805,208.682 167.300 M353.022 166.035 C 353.434 166.702,352.507 167.467,351.955 166.915 C 351.493 166.453,351.782 165.600,352.400 165.600 C 352.594 165.600,352.874 165.796,353.022 166.035 M194.800 167.200 C 194.800 167.724,194.533 168.000,194.028 168.000 C 193.545 168.000,193.191 168.337,193.082 168.900 C 192.987 169.395,192.884 169.035,192.854 168.100 C 192.804 166.539,192.882 166.400,193.800 166.400 C 194.533 166.400,194.800 166.613,194.800 167.200 " stroke="none" fill="#6554c3" fill-rule="evenodd"></path></g></svg>