<svg id="svg" xmlns="http://www.w3.org/2000/svg" xmlns:xlink="http://www.w3.org/1999/xlink" width="400" height="216" viewBox="0, 0, 400,216"><g id="svgg"><path id="path0" d="M277.670 2.457 C 277.620 2.500,276.714 2.598,275.656 2.674 C 274.598 2.749,273.623 2.902,273.489 3.012 C 273.356 3.123,272.737 3.281,272.113 3.364 C 271.489 3.447,270.927 3.599,270.863 3.702 C 270.799 3.805,270.583 3.890,270.382 3.891 C 270.181 3.891,269.433 4.182,268.720 4.538 C 268.006 4.894,267.296 5.185,267.140 5.186 C 266.985 5.186,266.917 5.284,266.991 5.402 C 267.064 5.521,266.946 5.619,266.729 5.619 C 266.216 5.619,262.129 8.333,262.129 8.673 C 262.129 8.776,262.033 8.860,261.917 8.860 C 261.683 8.860,259.734 10.809,258.887 11.890 C 258.590 12.269,258.225 12.708,258.077 12.865 C 257.928 13.022,257.807 13.234,257.807 13.335 C 257.807 13.436,257.612 13.685,257.374 13.888 C 257.137 14.092,256.942 14.460,256.942 14.705 C 256.942 14.951,256.855 15.099,256.749 15.033 C 256.643 14.968,256.495 15.156,256.421 15.453 C 256.347 15.749,256.190 15.991,256.074 15.991 C 255.957 15.991,255.862 16.144,255.862 16.331 C 255.862 16.518,255.716 16.816,255.538 16.995 C 255.359 17.173,255.213 17.506,255.213 17.736 C 255.213 17.965,255.116 18.152,254.997 18.152 C 254.878 18.152,254.781 18.374,254.781 18.645 C 254.781 18.915,254.648 19.328,254.484 19.563 C 254.321 19.797,254.118 20.402,254.033 20.906 C 253.948 21.411,253.799 21.874,253.700 21.934 C 253.538 22.035,253.128 25.169,253.227 25.554 C 253.250 25.643,253.177 25.716,253.066 25.716 C 252.818 25.716,252.790 31.553,253.036 31.869 C 253.132 31.991,253.273 32.626,253.350 33.279 C 253.540 34.879,253.579 35.074,253.765 35.373 C 253.854 35.514,253.984 36.049,254.056 36.561 C 254.127 37.074,254.320 37.685,254.483 37.920 C 254.647 38.154,254.781 38.567,254.781 38.838 C 254.781 39.109,254.885 39.330,255.011 39.330 C 255.282 39.330,255.199 40.184,254.889 40.577 C 253.428 42.433,199.556 95.948,199.149 95.948 C 198.872 95.948,198.366 95.803,198.026 95.625 C 197.685 95.448,197.159 95.302,196.856 95.301 C 196.553 95.300,196.204 95.199,196.081 95.076 C 195.957 94.953,195.576 94.801,195.234 94.739 C 194.891 94.677,194.468 94.510,194.293 94.369 C 194.043 94.167,194.009 94.170,194.137 94.381 C 194.226 94.530,194.196 94.652,194.070 94.652 C 193.944 94.652,193.841 94.562,193.841 94.453 C 193.841 94.343,193.185 94.193,192.382 94.119 C 191.580 94.044,190.559 93.901,190.112 93.800 C 189.645 93.694,189.250 93.698,189.181 93.810 C 189.115 93.916,188.672 94.003,188.197 94.003 C 187.563 94.003,187.376 93.931,187.495 93.733 C 187.590 93.576,187.487 93.598,187.250 93.787 C 186.923 94.047,186.880 94.051,187.028 93.804 C 187.173 93.565,187.123 93.535,186.799 93.668 C 186.572 93.761,185.413 93.926,184.225 94.034 C 183.036 94.142,181.869 94.319,181.632 94.428 C 181.394 94.538,180.787 94.690,180.282 94.766 C 179.778 94.843,179.310 94.994,179.243 95.103 C 179.176 95.211,178.975 95.300,178.798 95.300 C 178.286 95.300,174.989 96.793,174.860 97.083 C 174.821 97.172,174.709 97.245,174.612 97.245 C 174.362 97.245,172.149 98.754,172.372 98.773 C 172.473 98.781,172.399 98.854,172.208 98.935 C 171.125 99.393,167.611 102.772,167.837 103.137 C 167.913 103.261,167.878 103.302,167.759 103.228 C 167.419 103.018,164.736 106.917,164.850 107.455 C 164.868 107.545,164.797 107.618,164.691 107.618 C 164.585 107.618,164.437 107.861,164.363 108.158 C 164.288 108.455,164.132 108.698,164.015 108.698 C 163.899 108.698,163.803 108.871,163.803 109.082 C 163.803 109.293,163.661 109.669,163.487 109.917 C 163.314 110.165,163.114 110.695,163.044 111.094 C 162.973 111.494,162.833 111.871,162.732 111.934 C 162.632 111.996,162.477 112.534,162.390 113.128 C 162.302 113.722,162.153 114.259,162.059 114.320 C 161.964 114.382,161.852 114.937,161.809 115.555 C 161.766 116.172,161.662 116.746,161.579 116.829 C 161.378 117.031,161.381 122.627,161.582 122.828 C 161.668 122.914,161.768 123.434,161.803 123.983 C 161.839 124.532,161.951 125.086,162.052 125.214 C 162.153 125.341,162.306 125.932,162.392 126.526 C 162.477 127.120,162.633 127.712,162.739 127.840 C 162.920 128.060,163.103 128.777,163.139 129.402 C 163.148 129.558,163.232 129.638,163.326 129.579 C 163.420 129.521,163.512 129.661,163.529 129.891 C 163.576 130.514,165.105 133.549,165.372 133.549 C 165.500 133.549,165.542 133.611,165.466 133.687 C 165.325 133.829,166.091 135.050,166.494 135.324 C 166.619 135.409,166.721 135.570,166.721 135.683 C 166.721 135.994,167.853 137.316,169.530 138.962 C 171.631 141.025,171.809 141.186,172.658 141.778 C 173.070 142.066,173.539 142.423,173.700 142.572 C 173.860 142.720,174.184 142.842,174.420 142.842 C 174.657 142.842,174.795 142.931,174.727 143.040 C 174.660 143.149,174.897 143.303,175.255 143.382 C 175.612 143.460,175.905 143.603,175.905 143.700 C 175.905 143.796,176.171 143.942,176.497 144.024 C 176.823 144.106,177.147 144.267,177.219 144.382 C 177.290 144.498,177.559 144.608,177.815 144.627 C 178.072 144.647,178.282 144.731,178.282 144.815 C 178.282 144.900,178.598 145.036,178.984 145.119 C 179.371 145.201,179.784 145.346,179.903 145.441 C 180.022 145.536,180.556 145.679,181.091 145.759 C 181.626 145.839,182.200 146.017,182.367 146.156 C 182.788 146.505,192.353 146.509,192.781 146.161 C 193.053 145.940,194.367 145.692,195.421 145.662 C 195.636 145.656,195.751 145.554,195.678 145.435 C 195.601 145.311,195.802 145.218,196.151 145.217 C 196.485 145.217,197.037 145.071,197.377 144.893 C 197.718 144.716,198.131 144.571,198.296 144.571 C 198.461 144.571,198.595 144.484,198.595 144.378 C 198.595 144.273,198.929 144.124,199.336 144.047 C 199.743 143.971,200.108 143.839,200.146 143.753 C 200.185 143.668,200.687 143.355,201.263 143.058 C 201.839 142.761,202.549 142.299,202.841 142.031 C 203.133 141.764,203.426 141.545,203.492 141.545 C 204.130 141.545,209.292 136.327,209.292 135.683 C 209.292 135.570,209.394 135.409,209.519 135.324 C 210.179 134.875,212.422 130.795,212.424 130.038 C 212.425 129.830,212.523 129.660,212.642 129.660 C 212.761 129.660,212.859 129.441,212.859 129.173 C 212.860 128.906,212.998 128.423,213.167 128.100 C 213.336 127.777,213.501 127.242,213.536 126.911 C 213.570 126.581,213.678 126.199,213.775 126.063 C 213.996 125.757,214.379 121.504,214.222 121.097 C 214.160 120.933,214.216 120.800,214.347 120.800 C 214.479 120.800,214.577 120.532,214.565 120.205 L 214.544 119.611 214.354 120.151 C 214.191 120.617,214.177 120.587,214.248 119.935 C 214.358 118.923,213.938 114.485,213.704 114.194 C 213.602 114.067,213.496 113.661,213.468 113.291 C 213.440 112.921,213.343 112.663,213.254 112.718 C 213.164 112.774,213.026 112.331,212.947 111.735 C 212.868 111.139,212.731 110.696,212.643 110.750 C 212.505 110.836,212.210 109.363,212.210 108.585 C 212.210 108.158,267.279 53.178,267.850 53.034 C 268.136 52.963,268.691 53.064,269.117 53.266 C 269.893 53.634,270.367 53.763,271.055 53.792 C 271.270 53.801,271.396 53.890,271.335 53.989 C 271.274 54.088,271.341 54.180,271.484 54.193 C 272.627 54.301,273.716 54.562,273.844 54.760 C 274.063 55.097,284.423 55.090,284.840 54.751 C 285.007 54.616,285.654 54.437,286.278 54.353 C 286.902 54.269,287.412 54.112,287.412 54.005 C 287.412 53.897,287.631 53.808,287.898 53.807 C 288.166 53.807,288.634 53.676,288.939 53.517 C 289.244 53.357,289.763 53.160,290.092 53.077 C 290.421 52.995,291.069 52.688,291.532 52.395 C 291.995 52.103,292.473 51.864,292.594 51.864 C 292.716 51.864,292.815 51.768,292.815 51.652 C 292.815 51.535,293.051 51.381,293.339 51.308 C 293.628 51.236,293.919 51.033,293.986 50.858 C 294.053 50.683,294.207 50.601,294.327 50.675 C 294.448 50.750,294.601 50.668,294.668 50.494 C 294.735 50.320,294.987 50.126,295.228 50.063 C 295.470 50.000,295.603 49.844,295.525 49.717 C 295.446 49.590,295.539 49.487,295.731 49.487 C 296.170 49.487,299.997 45.638,299.828 45.365 C 299.760 45.255,299.872 45.165,300.077 45.165 C 300.282 45.165,300.396 45.110,300.329 45.043 C 300.262 44.977,300.443 44.668,300.730 44.358 C 301.018 44.048,301.308 43.574,301.375 43.306 C 301.443 43.038,301.635 42.766,301.802 42.702 C 301.970 42.638,302.107 42.436,302.107 42.254 C 302.107 42.072,302.183 41.923,302.276 41.923 C 302.435 41.923,302.693 41.394,303.285 39.858 C 303.425 39.495,303.496 39.058,303.442 38.886 C 303.388 38.714,303.424 38.648,303.522 38.739 C 303.732 38.936,304.466 37.471,304.477 36.834 C 304.481 36.590,304.575 36.299,304.685 36.186 C 304.796 36.073,304.953 35.397,305.035 34.684 C 305.116 33.971,305.269 33.333,305.374 33.267 C 305.743 33.033,305.716 24.401,305.344 23.879 C 305.259 23.760,305.122 23.130,305.039 22.480 C 304.956 21.829,304.811 21.197,304.715 21.075 C 304.620 20.953,304.488 20.610,304.423 20.313 C 304.190 19.263,303.675 18.094,303.576 18.391 C 303.521 18.557,303.412 18.291,303.334 17.802 C 303.255 17.312,303.045 16.790,302.865 16.641 C 302.686 16.492,302.539 16.198,302.539 15.988 C 302.539 15.778,302.392 15.549,302.213 15.480 C 302.034 15.411,301.905 15.279,301.928 15.187 C 301.985 14.954,301.172 13.617,300.972 13.616 C 300.883 13.615,300.810 13.468,300.810 13.290 C 300.810 13.112,300.659 12.966,300.473 12.966 C 300.288 12.966,300.189 12.881,300.254 12.776 C 300.445 12.467,296.272 8.337,294.767 7.347 C 294.496 7.169,294.160 6.915,294.021 6.782 C 293.881 6.649,293.528 6.467,293.237 6.378 C 292.945 6.289,292.557 6.085,292.374 5.925 C 291.921 5.529,289.171 4.106,288.855 4.105 C 288.715 4.104,288.313 3.953,287.962 3.770 C 287.611 3.587,286.881 3.378,286.341 3.306 C 285.801 3.234,285.311 3.102,285.251 3.013 C 285.037 2.693,277.988 2.175,277.670 2.457 M126.017 57.587 C 126.297 57.882,126.613 58.125,126.720 58.127 C 126.826 58.129,126.651 57.888,126.331 57.590 C 125.578 56.893,125.356 56.890,126.017 57.587 M136.143 67.747 C 136.546 68.163,136.924 68.504,136.984 68.504 C 137.043 68.504,136.762 68.163,136.359 67.747 C 135.956 67.331,135.577 66.991,135.518 66.991 C 135.458 66.991,135.739 67.331,136.143 67.747 M205.313 79.823 L 204.791 80.497 205.410 79.909 C 205.750 79.586,205.984 79.283,205.931 79.235 C 205.878 79.188,205.600 79.453,205.313 79.823 M249.487 190.641 L 249.055 191.088 249.529 190.843 C 250.028 190.584,250.391 190.158,250.094 190.180 C 249.998 190.187,249.724 190.394,249.487 190.641 M187.203 213.665 C 187.771 213.710,188.646 213.709,189.148 213.664 C 189.649 213.619,189.184 213.582,188.115 213.583 C 187.045 213.584,186.634 213.621,187.203 213.665 " stroke="none" fill="#4b4a4c" fill-rule="evenodd"></path><path id="path1" d="M135.659 42.351 C 135.628 42.417,135.068 42.810,134.416 43.224 C 133.763 43.638,133.068 44.122,132.872 44.300 C 132.150 44.955,131.368 45.580,131.218 45.622 C 130.973 45.690,129.653 46.723,128.833 47.488 C 128.419 47.874,128.018 48.190,127.941 48.190 C 127.865 48.190,127.397 48.579,126.902 49.055 C 126.407 49.530,125.950 49.919,125.886 49.919 C 125.642 49.919,124.905 50.798,124.905 51.090 C 124.905 51.258,124.793 51.433,124.656 51.479 C 124.213 51.626,125.905 53.809,126.462 53.809 C 126.571 53.809,126.604 53.899,126.536 54.009 C 126.468 54.120,126.609 54.272,126.850 54.349 C 127.092 54.426,127.233 54.578,127.165 54.689 C 127.097 54.799,127.132 54.889,127.244 54.889 C 127.518 54.889,134.587 61.991,134.450 62.128 C 134.390 62.188,134.448 62.237,134.577 62.237 C 134.883 62.237,136.143 63.496,136.143 63.802 C 136.143 63.931,136.190 63.990,136.248 63.932 C 136.396 63.784,141.913 69.224,141.816 69.422 C 141.772 69.511,141.831 69.584,141.947 69.584 C 142.237 69.584,144.138 71.506,144.138 71.798 C 144.138 71.927,144.190 71.981,144.254 71.918 C 144.387 71.785,152.134 79.487,152.134 79.752 C 152.134 79.849,152.330 79.990,152.569 80.066 C 152.809 80.142,152.953 80.287,152.890 80.389 C 152.827 80.491,152.973 80.637,153.214 80.713 C 153.456 80.790,153.597 80.943,153.529 81.053 C 153.461 81.163,153.498 81.253,153.612 81.253 C 153.787 81.253,155.714 83.146,160.271 87.793 C 163.646 91.235,164.032 91.478,164.963 90.746 C 165.516 90.311,165.866 88.369,165.332 88.699 C 165.221 88.767,165.061 88.603,164.976 88.334 C 164.891 88.065,164.593 87.543,164.313 87.176 C 164.032 86.808,163.803 86.402,163.803 86.273 C 163.803 86.144,163.670 85.905,163.507 85.742 C 163.344 85.579,163.039 85.111,162.829 84.700 C 162.618 84.290,162.387 83.906,162.315 83.847 C 162.181 83.737,162.032 83.486,161.044 81.703 C 160.743 81.158,160.427 80.665,160.342 80.605 C 160.257 80.546,160.120 80.278,160.036 80.011 C 159.953 79.743,159.794 79.525,159.683 79.525 C 159.572 79.525,159.481 79.379,159.481 79.200 C 159.481 79.022,159.368 78.876,159.229 78.876 C 159.091 78.876,159.041 78.812,159.120 78.733 C 159.199 78.655,159.021 78.272,158.724 77.883 C 158.427 77.494,158.185 77.073,158.185 76.946 C 158.185 76.819,158.088 76.715,157.969 76.715 C 157.850 76.715,157.753 76.576,157.753 76.407 C 157.753 76.237,157.631 75.969,157.482 75.812 C 157.334 75.655,156.977 75.089,156.689 74.554 C 156.102 73.462,154.645 71.126,154.303 70.728 C 154.180 70.584,154.079 70.356,154.079 70.221 C 154.079 70.087,153.884 69.729,153.647 69.427 C 153.409 69.125,153.214 68.745,153.214 68.582 C 153.214 68.420,153.119 68.287,153.002 68.287 C 152.886 68.287,152.729 68.044,152.655 67.747 C 152.580 67.450,152.433 67.207,152.327 67.207 C 152.221 67.207,152.134 67.058,152.134 66.876 C 152.134 66.694,151.988 66.489,151.810 66.421 C 151.632 66.352,151.486 66.118,151.486 65.900 C 151.486 65.682,151.382 65.440,151.256 65.362 C 151.130 65.284,150.936 65.011,150.825 64.755 C 150.577 64.184,150.171 63.541,149.811 63.149 C 149.662 62.987,149.541 62.715,149.541 62.545 C 149.541 62.376,149.445 62.237,149.329 62.237 C 149.212 62.237,149.056 61.994,148.981 61.696 C 148.907 61.399,148.765 61.156,148.668 61.156 C 148.570 61.156,148.420 60.937,148.336 60.670 C 148.251 60.402,147.953 59.883,147.673 59.515 C 147.393 59.147,147.164 58.797,147.164 58.737 C 147.164 58.676,146.737 57.978,146.216 57.184 C 145.695 56.390,144.945 55.112,144.551 54.343 C 144.156 53.574,143.756 52.944,143.662 52.944 C 143.567 52.944,143.490 52.798,143.490 52.620 C 143.490 52.442,143.377 52.296,143.238 52.296 C 143.099 52.296,143.045 52.237,143.117 52.165 C 143.189 52.093,143.055 51.827,142.820 51.575 C 142.585 51.323,142.337 50.895,142.270 50.626 C 142.202 50.356,142.060 50.135,141.954 50.135 C 141.848 50.135,141.761 50.002,141.761 49.840 C 141.761 49.678,141.577 49.311,141.352 49.025 C 140.929 48.488,140.392 47.609,139.605 46.166 C 139.354 45.707,139.007 45.189,138.834 45.016 C 138.661 44.843,138.520 44.514,138.520 44.285 C 138.520 44.056,138.424 43.868,138.308 43.868 C 138.191 43.868,138.039 43.642,137.970 43.366 C 137.771 42.575,135.935 41.768,135.659 42.351 M94.579 123.321 C 94.362 123.538,94.406 129.397,94.625 129.480 C 94.730 129.519,94.879 130.281,94.956 131.172 C 95.034 132.064,95.144 133.133,95.202 133.549 C 95.260 133.965,95.363 134.816,95.432 135.440 C 95.501 136.064,95.637 136.575,95.734 136.575 C 95.832 136.575,95.980 137.304,96.063 138.196 C 96.147 139.087,96.293 139.816,96.389 139.816 C 96.484 139.816,96.630 140.450,96.713 141.224 C 96.796 141.998,96.949 142.685,97.054 142.749 C 97.159 142.814,97.245 143.045,97.245 143.262 C 97.245 143.479,97.384 144.130,97.554 144.708 C 97.725 145.286,98.074 146.488,98.331 147.380 C 98.588 148.271,98.879 149.195,98.977 149.433 C 99.076 149.670,99.318 150.351,99.516 150.945 C 99.714 151.540,99.958 152.184,100.058 152.378 C 100.159 152.571,100.307 153.081,100.387 153.512 C 100.468 153.943,100.610 154.295,100.702 154.295 C 100.795 154.295,100.934 154.635,101.012 155.051 C 101.090 155.467,101.235 155.808,101.333 155.808 C 101.431 155.808,101.574 156.197,101.650 156.672 C 101.726 157.147,101.877 157.536,101.987 157.536 C 102.149 157.536,102.438 158.101,102.539 158.617 C 102.641 159.136,102.930 159.697,103.094 159.697 C 103.205 159.697,103.296 159.837,103.296 160.008 C 103.296 160.180,103.635 160.982,104.051 161.791 C 104.466 162.601,104.807 163.385,104.807 163.533 C 104.808 163.682,104.905 163.803,105.024 163.803 C 105.143 163.803,105.240 163.946,105.240 164.120 C 105.240 164.877,106.853 165.121,107.942 164.529 C 108.298 164.335,108.857 164.037,109.184 163.866 C 109.511 163.695,109.778 163.465,109.778 163.355 C 109.778 163.245,109.906 163.155,110.062 163.155 C 110.219 163.155,110.999 162.717,111.796 162.183 C 112.594 161.648,113.393 161.210,113.572 161.210 C 113.751 161.210,113.951 161.073,114.015 160.906 C 114.079 160.738,114.345 160.547,114.607 160.482 C 114.868 160.416,115.280 160.189,115.522 159.976 C 115.942 159.608,116.428 159.320,118.260 158.353 C 118.706 158.117,119.071 157.848,119.071 157.754 C 119.071 157.660,119.332 157.518,119.651 157.438 C 119.969 157.358,120.512 157.056,120.856 156.766 C 121.200 156.477,121.619 156.240,121.789 156.240 C 121.958 156.240,122.096 156.156,122.096 156.054 C 122.096 155.951,122.576 155.639,123.162 155.361 C 123.748 155.083,124.180 154.778,124.122 154.683 C 124.063 154.588,124.202 154.511,124.431 154.511 C 124.659 154.511,125.213 154.219,125.662 153.863 C 126.110 153.506,126.610 153.214,126.772 153.214 C 126.934 153.214,127.066 153.140,127.066 153.048 C 127.066 152.956,127.528 152.640,128.093 152.346 C 128.657 152.051,129.168 151.754,129.227 151.686 C 129.287 151.617,129.773 151.326,130.308 151.037 C 130.843 150.749,131.329 150.453,131.388 150.380 C 131.448 150.307,131.715 150.179,131.983 150.096 C 132.250 150.012,132.469 149.853,132.469 149.742 C 132.469 149.631,132.615 149.541,132.793 149.541 C 132.971 149.541,133.117 149.466,133.117 149.374 C 133.117 149.282,133.482 149.018,133.928 148.787 C 134.373 148.557,135.250 148.048,135.877 147.658 C 136.503 147.267,137.111 146.948,137.227 146.948 C 137.344 146.948,137.439 146.860,137.439 146.753 C 137.439 146.645,137.707 146.463,138.033 146.347 C 138.360 146.231,139.163 145.770,139.816 145.323 C 140.470 144.876,141.122 144.507,141.266 144.504 C 141.409 144.501,141.576 144.369,141.637 144.210 C 141.698 144.052,141.897 143.922,142.079 143.922 C 142.261 143.922,142.410 143.825,142.410 143.706 C 142.410 143.587,142.548 143.490,142.718 143.490 C 142.888 143.490,143.157 143.368,143.316 143.220 C 143.475 143.071,143.992 142.758,144.466 142.523 C 144.939 142.289,145.619 141.899,145.975 141.658 C 147.118 140.886,147.475 140.680,148.093 140.437 C 148.426 140.306,148.649 140.149,148.588 140.088 C 148.528 140.028,148.985 139.723,149.604 139.411 C 150.223 139.099,150.778 138.788,150.837 138.720 C 150.897 138.651,151.283 138.408,151.695 138.179 C 153.783 137.021,154.719 135.292,153.624 134.616 C 153.497 134.538,153.393 134.387,153.392 134.282 C 153.392 134.176,153.254 133.762,153.087 133.361 C 152.919 132.960,152.782 132.538,152.782 132.422 C 152.782 132.306,152.642 131.953,152.471 131.638 C 152.178 131.097,151.802 129.527,151.882 129.173 C 151.902 129.084,151.835 129.011,151.733 129.011 C 151.631 129.011,151.483 128.355,151.405 127.553 C 151.220 125.669,151.169 125.382,150.988 125.200 C 150.905 125.117,150.837 124.916,150.837 124.752 C 150.837 124.356,150.219 123.757,149.485 123.441 C 148.835 123.161,94.857 123.043,94.579 123.321 M206.066 152.758 C 206.000 152.864,205.679 153.018,205.353 153.100 C 205.026 153.182,204.707 153.332,204.644 153.435 C 204.581 153.537,204.247 153.671,203.903 153.734 C 203.558 153.796,203.219 153.940,203.149 154.054 C 203.079 154.168,202.754 154.328,202.427 154.410 C 202.100 154.492,201.779 154.645,201.714 154.751 C 201.649 154.857,201.358 154.943,201.068 154.943 C 200.778 154.943,200.540 155.045,200.540 155.169 C 200.540 155.293,200.419 155.377,200.270 155.356 C 199.835 155.294,198.595 155.631,198.595 155.810 C 198.595 155.901,198.133 156.044,197.569 156.128 C 197.004 156.213,196.493 156.361,196.433 156.458 C 196.325 156.633,194.810 156.844,193.450 156.873 C 193.032 156.882,192.791 156.978,192.869 157.104 C 192.992 157.303,191.862 157.364,188.006 157.364 C 184.369 157.364,183.024 157.298,183.130 157.127 C 183.196 157.021,183.031 156.933,182.765 156.933 C 181.789 156.930,179.680 156.608,179.449 156.427 C 179.318 156.324,178.759 156.178,178.206 156.103 C 177.654 156.027,177.202 155.881,177.202 155.778 C 177.202 155.676,176.958 155.592,176.661 155.592 C 176.364 155.592,176.121 155.497,176.121 155.382 C 176.121 155.267,175.975 155.229,175.797 155.297 C 175.619 155.366,175.473 155.314,175.473 155.182 C 175.473 154.118,172.716 155.472,172.324 156.729 C 172.241 156.995,172.094 157.263,171.998 157.326 C 171.901 157.388,171.769 157.740,171.705 158.108 C 171.640 158.475,171.441 159.056,171.262 159.399 C 171.083 159.741,170.937 160.192,170.936 160.400 C 170.935 160.608,170.842 160.778,170.728 160.778 C 170.615 160.778,170.458 161.118,170.380 161.534 C 170.302 161.950,170.152 162.291,170.046 162.291 C 169.941 162.291,169.854 162.433,169.854 162.607 C 169.854 162.782,169.695 163.292,169.500 163.742 C 169.305 164.192,169.068 164.754,168.972 164.992 C 168.876 165.230,168.533 166.008,168.209 166.721 C 167.885 167.434,167.585 168.212,167.542 168.449 C 167.499 168.687,167.272 169.249,167.038 169.699 C 166.804 170.148,166.613 170.707,166.613 170.941 C 166.613 171.175,166.523 171.367,166.414 171.367 C 166.304 171.367,166.146 171.683,166.062 172.069 C 165.979 172.455,165.849 172.820,165.775 172.880 C 165.612 173.010,165.099 174.311,164.945 174.986 C 164.884 175.254,164.755 175.473,164.660 175.473 C 164.564 175.473,164.417 175.789,164.333 176.175 C 164.249 176.561,164.047 177.069,163.884 177.304 C 163.721 177.538,163.587 177.951,163.587 178.222 C 163.587 178.493,163.490 178.714,163.371 178.714 C 163.252 178.714,163.155 178.902,163.155 179.131 C 163.155 179.360,163.024 179.679,162.864 179.839 C 162.704 179.999,162.505 180.492,162.422 180.935 C 162.339 181.377,162.178 181.740,162.065 181.740 C 161.951 181.740,161.858 181.928,161.858 182.159 C 161.858 182.390,161.760 182.640,161.639 182.714 C 161.518 182.789,161.471 182.934,161.534 183.036 C 161.598 183.139,161.551 183.284,161.430 183.358 C 161.309 183.433,161.210 183.683,161.210 183.913 C 161.210 184.144,161.121 184.333,161.011 184.333 C 160.902 184.333,160.747 184.631,160.667 184.996 C 160.587 185.360,160.385 185.919,160.219 186.238 C 160.052 186.557,159.916 186.939,159.915 187.088 C 159.914 187.237,159.816 187.358,159.697 187.358 C 159.579 187.358,159.481 187.583,159.481 187.857 C 159.481 188.132,159.339 188.545,159.164 188.776 C 158.990 189.006,158.844 189.310,158.840 189.450 C 158.833 189.693,157.746 192.237,157.311 193.028 C 157.197 193.234,157.104 193.527,157.104 193.679 C 157.104 193.831,156.910 194.318,156.672 194.762 C 156.434 195.206,156.240 195.715,156.240 195.893 C 156.240 196.072,156.151 196.218,156.043 196.218 C 155.934 196.218,155.780 196.607,155.700 197.083 C 155.619 197.558,155.465 197.947,155.356 197.947 C 155.248 197.947,155.159 198.120,155.159 198.331 C 155.159 198.542,155.028 198.907,154.867 199.142 C 154.707 199.376,154.505 199.859,154.418 200.214 C 154.332 200.569,154.166 200.918,154.051 200.990 C 153.936 201.061,153.825 201.329,153.806 201.586 C 153.787 201.843,153.689 202.053,153.588 202.053 C 153.487 202.053,153.461 202.143,153.529 202.254 C 153.598 202.365,153.555 202.516,153.434 202.591 C 153.313 202.666,153.211 202.940,153.208 203.200 C 153.204 203.461,153.058 203.862,152.883 204.093 C 151.885 205.413,152.611 206.942,154.552 207.604 C 155.183 207.819,155.748 208.060,155.808 208.138 C 155.868 208.216,156.281 208.349,156.727 208.432 C 157.172 208.516,157.536 208.670,157.536 208.776 C 157.536 208.882,157.804 208.969,158.131 208.969 C 158.458 208.970,158.978 209.103,159.288 209.264 C 159.597 209.426,160.300 209.625,160.849 209.708 C 161.399 209.790,161.897 209.936,161.957 210.033 C 162.043 210.173,162.963 210.407,164.055 210.568 C 164.135 210.579,164.272 210.662,164.362 210.751 C 164.451 210.840,164.734 210.913,164.992 210.913 C 165.249 210.913,165.533 210.986,165.622 211.075 C 165.711 211.164,165.849 211.243,165.928 211.250 C 166.744 211.324,168.496 211.639,168.666 211.742 C 168.784 211.815,168.979 211.880,169.098 211.887 C 170.103 211.947,172.145 212.293,172.231 212.417 C 172.291 212.503,173.506 212.689,174.932 212.832 C 176.359 212.975,178.498 213.192,179.687 213.314 C 180.969 213.446,185.144 213.496,189.951 213.436 C 197.852 213.338,198.470 213.311,198.920 213.040 C 199.038 212.968,200.181 212.840,201.459 212.755 C 202.736 212.670,203.782 212.526,203.782 212.436 C 203.782 212.345,204.390 212.199,205.132 212.111 C 206.776 211.916,207.041 211.871,207.455 211.716 C 207.634 211.650,208.169 211.523,208.644 211.435 C 209.119 211.348,209.606 211.247,209.724 211.211 C 209.843 211.175,210.378 211.037,210.913 210.903 C 211.448 210.770,212.080 210.609,212.318 210.547 C 212.555 210.484,213.066 210.384,213.452 210.325 C 213.838 210.266,214.155 210.140,214.155 210.045 C 214.155 209.951,214.641 209.806,215.235 209.724 C 215.829 209.643,216.316 209.488,216.316 209.380 C 216.316 209.272,216.437 209.186,216.586 209.187 C 217.024 209.192,219.875 208.232,219.953 208.052 C 219.993 207.962,220.218 207.888,220.454 207.888 C 220.689 207.888,221.094 207.771,221.354 207.628 C 221.614 207.485,222.013 207.338,222.241 207.300 C 222.470 207.262,222.770 207.136,222.909 207.021 C 223.049 206.905,223.226 206.875,223.305 206.953 C 223.383 207.031,223.447 206.998,223.447 206.878 C 223.447 206.759,223.982 206.479,224.635 206.257 C 225.289 206.035,225.824 205.776,225.824 205.682 C 225.824 205.588,225.994 205.510,226.202 205.510 C 226.410 205.509,227.337 205.126,228.261 204.658 C 229.186 204.190,229.985 203.826,230.037 203.848 C 230.089 203.871,230.328 203.722,230.568 203.517 C 230.807 203.311,231.248 203.082,231.547 203.007 C 231.846 202.932,232.091 202.792,232.091 202.695 C 232.091 202.598,232.382 202.455,232.739 202.377 C 233.096 202.299,233.387 202.162,233.387 202.074 C 233.387 201.986,233.839 201.688,234.390 201.413 C 236.415 200.401,236.596 199.807,235.444 197.947 C 235.040 197.293,234.492 196.345,234.226 195.840 C 233.960 195.335,233.647 194.922,233.529 194.922 C 233.412 194.922,233.376 194.861,233.449 194.788 C 233.523 194.714,233.345 194.302,233.053 193.873 C 232.762 193.444,232.523 192.980,232.523 192.842 C 232.523 192.704,232.377 192.535,232.199 192.466 C 232.021 192.398,231.875 192.193,231.875 192.011 C 231.875 191.829,231.777 191.680,231.659 191.680 C 231.540 191.680,231.442 191.595,231.442 191.491 C 231.442 191.326,230.943 190.403,230.084 188.979 C 229.940 188.741,229.604 188.237,229.336 187.859 C 229.068 187.480,228.849 187.067,228.849 186.940 C 228.849 186.814,228.763 186.710,228.657 186.710 C 228.551 186.710,228.403 186.467,228.328 186.170 C 228.254 185.873,228.105 185.629,227.998 185.629 C 227.891 185.629,227.741 185.346,227.665 184.999 C 227.589 184.653,227.380 184.313,227.202 184.244 C 227.023 184.176,226.931 184.032,226.997 183.925 C 227.064 183.818,226.973 183.674,226.795 183.606 C 226.617 183.538,226.472 183.281,226.472 183.036 C 226.472 182.791,226.326 182.534,226.148 182.466 C 225.970 182.398,225.824 182.199,225.824 182.025 C 225.824 181.851,225.702 181.573,225.554 181.408 C 225.126 180.930,224.878 180.576,224.491 179.892 C 222.890 177.059,222.503 176.425,222.288 176.286 C 222.153 176.199,222.122 176.126,222.220 176.124 C 222.318 176.123,222.196 175.865,221.950 175.552 C 221.703 175.238,221.502 174.849,221.502 174.687 C 221.502 174.525,221.405 174.392,221.286 174.392 C 221.167 174.392,221.070 174.303,221.070 174.195 C 221.070 174.087,220.729 173.481,220.313 172.849 C 219.897 172.218,219.557 171.561,219.557 171.390 C 219.557 171.219,219.498 171.138,219.426 171.210 C 219.354 171.282,219.000 170.788,218.640 170.111 C 218.280 169.435,217.805 168.650,217.583 168.366 C 217.361 168.083,217.180 167.718,217.180 167.556 C 217.180 167.394,217.094 167.261,216.989 167.261 C 216.884 167.261,216.741 167.091,216.671 166.883 C 216.532 166.470,216.019 165.571,215.343 164.558 C 214.527 163.334,214.358 163.046,214.231 162.669 C 214.161 162.461,214.012 162.291,213.900 162.291 C 213.788 162.291,213.746 162.212,213.805 162.115 C 213.865 162.019,213.676 161.663,213.386 161.325 C 213.095 160.987,212.858 160.542,212.858 160.335 C 212.858 160.129,212.712 159.904,212.534 159.835 C 212.355 159.767,212.210 159.562,212.210 159.380 C 212.210 159.198,212.135 159.049,212.045 159.049 C 211.873 159.049,211.548 158.497,211.121 157.482 C 210.983 157.156,210.783 156.888,210.676 156.888 C 210.569 156.888,210.481 156.706,210.481 156.482 C 210.481 156.259,210.335 155.956,210.157 155.808 C 209.978 155.660,209.833 155.405,209.833 155.241 C 209.833 155.077,209.735 154.943,209.616 154.943 C 209.498 154.943,209.400 154.794,209.400 154.612 C 209.400 154.430,209.254 154.225,209.076 154.157 C 208.898 154.089,208.752 153.901,208.752 153.740 C 208.752 152.914,206.482 152.085,206.066 152.758 " stroke="none" fill="#a0d046" fill-rule="evenodd"></path><path id="path2" d="M180.767 26.782 C 180.411 26.849,179.657 26.904,179.092 26.904 C 178.528 26.904,178.066 26.970,178.066 27.050 C 178.066 27.130,177.312 27.242,176.391 27.299 C 174.508 27.416,173.457 27.536,172.663 27.727 C 172.366 27.798,171.686 27.906,171.151 27.967 C 170.616 28.027,169.935 28.137,169.638 28.211 C 168.227 28.563,167.280 28.779,166.288 28.975 C 165.694 29.092,165.014 29.277,164.776 29.385 C 164.538 29.493,163.931 29.644,163.426 29.720 C 162.922 29.797,162.454 29.948,162.387 30.057 C 162.320 30.165,162.057 30.254,161.803 30.254 C 161.320 30.254,155.983 31.993,154.803 32.534 C 154.428 32.706,154.013 32.847,153.881 32.847 C 153.749 32.847,153.472 32.941,153.266 33.056 C 153.059 33.170,152.404 33.469,151.810 33.720 C 151.216 33.970,150.438 34.306,150.081 34.467 C 149.724 34.627,149.287 34.790,149.109 34.829 C 148.930 34.868,148.736 34.949,148.676 35.008 C 148.617 35.068,147.110 35.845,145.327 36.736 C 143.544 37.626,141.753 38.599,141.346 38.897 C 140.939 39.194,140.554 39.399,140.490 39.350 C 140.426 39.302,140.199 39.496,139.986 39.782 C 139.523 40.403,139.708 41.315,140.548 42.553 C 141.292 43.648,143.922 47.949,143.922 48.069 C 143.922 48.124,144.190 48.587,144.516 49.098 C 144.843 49.609,145.234 50.222,145.385 50.459 C 145.536 50.697,145.802 51.201,145.976 51.579 C 146.150 51.957,146.397 52.331,146.525 52.410 C 146.653 52.489,146.848 52.763,146.958 53.019 C 147.068 53.275,147.840 54.587,148.674 55.934 C 149.507 57.281,150.189 58.473,150.189 58.581 C 150.189 58.690,150.284 58.779,150.401 58.779 C 150.518 58.779,150.674 59.022,150.749 59.319 C 150.823 59.616,150.960 59.860,151.052 59.860 C 151.225 59.860,151.554 60.697,151.504 61.010 C 151.488 61.108,151.561 61.135,151.666 61.070 C 151.771 61.005,152.039 61.362,152.260 61.864 C 152.481 62.366,152.786 62.855,152.938 62.950 C 153.090 63.045,153.214 63.264,153.214 63.436 C 153.214 63.608,153.317 63.749,153.443 63.749 C 153.569 63.749,153.621 63.832,153.559 63.933 C 153.497 64.034,153.612 64.306,153.816 64.539 C 154.321 65.115,154.643 65.629,155.215 66.775 C 155.481 67.310,155.764 67.777,155.842 67.813 C 155.920 67.848,156.260 68.432,156.598 69.109 C 156.936 69.786,157.381 70.528,157.588 70.757 C 157.795 70.986,158.020 71.350,158.089 71.567 C 158.158 71.784,158.297 71.961,158.398 71.961 C 158.500 71.961,158.645 72.245,158.721 72.591 C 158.797 72.938,159.006 73.278,159.184 73.346 C 159.363 73.415,159.448 73.569,159.373 73.690 C 159.299 73.810,159.384 73.965,159.563 74.034 C 159.741 74.102,159.949 74.442,160.026 74.788 C 160.102 75.135,160.254 75.419,160.363 75.419 C 160.472 75.419,160.562 75.565,160.562 75.743 C 160.562 75.921,160.665 76.067,160.791 76.067 C 160.917 76.067,160.965 76.156,160.897 76.265 C 160.830 76.373,160.862 76.495,160.968 76.535 C 161.074 76.575,161.629 77.385,162.201 78.336 C 162.773 79.287,163.319 80.097,163.414 80.137 C 163.509 80.176,163.587 80.390,163.587 80.610 C 163.587 80.831,163.680 81.069,163.792 81.139 C 163.905 81.208,164.507 82.114,165.129 83.150 C 165.751 84.187,166.319 85.084,166.390 85.143 C 166.461 85.203,166.758 85.762,167.049 86.386 C 167.341 87.010,167.694 87.520,167.834 87.520 C 167.975 87.520,168.129 87.638,168.177 87.782 C 168.245 87.987,168.462 87.985,169.165 87.774 C 169.660 87.626,170.139 87.501,170.230 87.497 C 170.320 87.493,170.472 87.351,170.567 87.181 C 170.662 87.011,170.873 86.872,171.036 86.872 C 171.388 86.872,172.741 86.185,172.844 85.954 C 172.883 85.864,173.078 85.791,173.276 85.790 C 173.474 85.789,173.914 85.644,174.255 85.466 C 174.595 85.288,174.970 85.143,175.087 85.143 C 175.204 85.143,175.606 85.003,175.980 84.831 C 176.919 84.401,179.976 83.604,180.983 83.527 C 181.102 83.518,181.301 83.447,181.425 83.370 C 181.549 83.292,182.392 83.200,183.299 83.166 C 184.206 83.131,184.901 83.027,184.844 82.935 C 184.786 82.842,185.324 82.766,186.039 82.766 C 187.143 82.766,187.421 82.683,187.889 82.216 L 188.439 81.666 188.439 54.495 L 188.439 27.325 187.988 26.939 C 187.534 26.550,182.564 26.441,180.767 26.782 M226.688 119.773 C 226.688 119.862,226.505 119.935,226.281 119.935 C 225.502 119.935,225.221 120.797,225.057 123.686 C 224.971 125.195,224.816 126.481,224.714 126.544 C 224.611 126.608,224.527 127.027,224.527 127.475 C 224.527 127.924,224.460 128.359,224.377 128.441 C 224.218 128.601,224.155 128.850,223.950 130.146 C 223.880 130.592,223.738 130.956,223.634 130.956 C 223.531 130.956,223.463 131.029,223.483 131.118 C 223.564 131.477,223.170 132.901,222.991 132.901 C 222.885 132.901,222.810 132.974,222.824 133.063 C 222.838 133.152,222.831 133.274,222.808 133.333 C 222.784 133.393,222.730 133.629,222.687 133.858 C 222.645 134.087,222.464 134.573,222.287 134.938 C 222.110 135.303,221.777 136.013,221.547 136.515 C 221.318 137.017,221.084 137.381,221.028 137.325 C 220.972 137.269,220.926 137.360,220.926 137.526 C 220.926 137.836,219.679 139.910,219.183 140.426 C 219.032 140.583,218.909 140.856,218.909 141.033 C 218.909 141.210,218.811 141.294,218.693 141.221 C 218.574 141.148,218.474 141.215,218.471 141.370 C 218.469 141.526,218.128 142.029,217.715 142.487 C 217.302 142.946,216.964 143.388,216.964 143.470 C 216.964 143.551,216.487 144.133,215.904 144.764 C 215.322 145.394,214.803 146.131,214.751 146.400 C 214.656 146.901,215.214 148.460,215.488 148.460 C 215.571 148.460,224.054 156.872,234.338 167.153 C 256.052 188.860,253.593 186.933,256.171 184.264 C 258.605 181.743,260.140 180.039,260.054 179.954 C 260.011 179.910,260.338 179.476,260.782 178.990 C 261.764 177.914,261.941 177.692,262.470 176.872 C 262.698 176.518,263.102 176.025,263.368 175.775 C 263.633 175.526,263.800 175.272,263.739 175.210 C 263.678 175.149,263.872 174.867,264.171 174.584 C 264.470 174.300,264.716 173.991,264.718 173.897 C 264.720 173.802,264.965 173.463,265.262 173.142 C 265.559 172.822,265.802 172.437,265.802 172.287 C 265.802 172.138,265.888 172.015,265.993 172.015 C 266.098 172.015,266.238 171.845,266.304 171.637 C 266.485 171.066,267.172 169.985,267.477 169.789 C 267.626 169.694,267.747 169.528,267.747 169.419 C 267.747 169.310,268.265 168.367,268.898 167.323 C 269.531 166.278,270.673 164.160,271.437 162.615 C 272.201 161.070,272.898 159.773,272.988 159.733 C 273.077 159.694,273.151 159.499,273.154 159.301 C 273.156 159.103,273.447 158.415,273.802 157.772 C 274.156 157.129,274.446 156.484,274.446 156.338 C 274.446 156.192,274.592 155.795,274.769 155.454 C 274.947 155.114,275.092 154.665,275.093 154.457 C 275.094 154.249,275.176 154.079,275.276 154.079 C 275.376 154.079,275.638 153.447,275.859 152.674 C 276.080 151.902,276.339 151.270,276.434 151.270 C 276.529 151.270,276.591 151.197,276.572 151.108 C 276.508 150.814,277.341 147.861,277.686 147.157 C 277.776 146.974,277.916 146.488,277.997 146.076 C 278.078 145.664,278.228 145.132,278.330 144.895 C 278.587 144.297,279.417 140.593,279.417 140.047 C 279.417 139.801,279.538 139.599,279.687 139.597 C 279.867 139.595,279.849 139.524,279.633 139.384 C 279.454 139.269,279.414 139.173,279.544 139.171 C 279.674 139.169,279.885 138.375,280.018 137.385 C 280.150 136.405,280.357 135.068,280.480 134.414 C 280.602 133.760,280.751 132.788,280.812 132.253 C 280.873 131.718,281.025 130.454,281.151 129.444 C 281.277 128.433,281.427 125.987,281.483 124.007 L 281.586 120.407 280.934 120.119 C 280.575 119.960,280.281 119.780,280.281 119.720 C 280.281 119.660,268.223 119.611,253.485 119.611 C 238.747 119.611,226.688 119.684,226.688 119.773 M154.732 139.561 C 154.556 139.621,154.031 139.945,153.565 140.283 C 153.099 140.621,152.586 140.897,152.426 140.897 C 152.265 140.897,152.134 140.974,152.134 141.067 C 152.134 141.161,151.478 141.602,150.675 142.047 C 148.841 143.065,148.380 143.345,148.242 143.527 C 148.181 143.607,147.872 143.737,147.555 143.817 C 147.238 143.896,146.926 144.098,146.862 144.266 C 146.798 144.433,146.542 144.571,146.293 144.571 C 146.045 144.571,145.902 144.668,145.975 144.787 C 146.049 144.905,145.972 145.003,145.805 145.003 C 145.638 145.003,145.277 145.197,145.003 145.435 C 144.729 145.673,144.373 145.867,144.213 145.867 C 144.053 145.867,143.922 145.964,143.922 146.083 C 143.922 146.202,143.811 146.299,143.675 146.299 C 143.540 146.299,142.813 146.688,142.060 147.164 C 141.307 147.639,140.607 148.028,140.503 148.028 C 140.400 148.028,140.139 148.223,139.924 148.460 C 139.709 148.698,139.402 148.892,139.243 148.892 C 139.083 148.892,138.952 148.982,138.952 149.091 C 138.952 149.201,138.660 149.354,138.304 149.433 C 137.947 149.511,137.655 149.663,137.655 149.770 C 137.655 149.877,137.412 150.026,137.115 150.100 C 136.818 150.175,136.575 150.316,136.575 150.414 C 136.575 150.512,136.363 150.659,136.105 150.741 C 135.847 150.823,135.465 151.049,135.255 151.242 C 135.046 151.435,134.504 151.788,134.050 152.026 C 133.597 152.263,132.885 152.686,132.469 152.966 C 132.053 153.245,131.518 153.561,131.280 153.668 C 130.790 153.888,130.370 154.150,129.152 154.997 C 128.683 155.324,128.161 155.592,127.994 155.592 C 127.826 155.592,127.744 155.681,127.812 155.790 C 127.879 155.899,127.642 156.053,127.284 156.131 C 126.927 156.210,126.634 156.352,126.634 156.448 C 126.634 156.543,126.464 156.683,126.256 156.758 C 125.866 156.899,125.652 157.025,124.099 158.027 C 123.597 158.352,123.094 158.617,122.981 158.617 C 122.869 158.617,122.503 158.844,122.167 159.120 C 121.831 159.397,121.410 159.691,121.232 159.773 C 121.053 159.855,120.519 160.157,120.043 160.444 C 119.568 160.731,118.821 161.165,118.383 161.409 C 117.945 161.653,117.526 161.951,117.452 162.071 C 117.377 162.192,117.128 162.291,116.897 162.291 C 116.666 162.291,116.478 162.390,116.478 162.512 C 116.478 162.634,116.259 162.828,115.991 162.944 C 115.491 163.160,114.724 163.612,114.533 163.803 C 114.380 163.956,113.731 164.337,112.480 165.008 C 111.885 165.327,111.351 165.651,111.291 165.727 C 111.232 165.804,110.697 166.108,110.103 166.402 C 109.508 166.696,108.990 167.010,108.950 167.099 C 108.910 167.188,108.740 167.261,108.572 167.261 C 108.404 167.261,108.266 167.399,108.266 167.567 C 108.266 167.735,108.153 167.911,108.016 167.957 C 107.612 168.091,107.963 169.030,108.965 170.493 C 109.472 171.233,109.984 171.996,110.103 172.188 C 110.321 172.540,110.527 172.814,111.021 173.403 C 111.170 173.581,111.291 173.786,111.291 173.859 C 111.291 173.933,111.729 174.562,112.264 175.257 C 112.798 175.952,113.236 176.625,113.236 176.753 C 113.236 176.881,113.336 176.985,113.459 176.985 C 113.582 176.985,113.746 177.153,113.825 177.359 C 113.904 177.564,114.170 177.929,114.415 178.169 C 114.661 178.410,115.248 179.092,115.719 179.687 C 116.735 180.967,116.621 180.835,118.531 182.923 C 122.038 186.757,121.771 186.581,122.832 185.760 C 123.842 184.978,126.202 182.609,126.202 182.376 C 126.202 182.264,126.296 182.172,126.410 182.172 C 126.657 182.172,128.795 179.981,128.795 179.728 C 128.795 179.632,128.892 179.613,129.011 179.687 C 129.130 179.760,129.227 179.731,129.227 179.623 C 129.227 179.407,130.216 178.282,130.406 178.282 C 130.471 178.282,130.719 178.088,130.956 177.850 C 131.194 177.612,131.344 177.418,131.290 177.418 C 131.235 177.418,131.649 176.949,132.208 176.376 C 132.768 175.804,133.291 175.368,133.372 175.407 C 133.452 175.447,133.580 175.285,133.655 175.048 C 133.730 174.811,133.908 174.639,134.049 174.667 C 134.190 174.694,134.283 174.601,134.256 174.459 C 134.229 174.318,134.400 174.141,134.637 174.066 C 134.874 173.990,135.017 173.846,134.954 173.744 C 134.891 173.642,135.037 173.496,135.278 173.420 C 135.519 173.343,135.661 173.190,135.593 173.080 C 135.525 172.970,135.555 172.880,135.661 172.880 C 135.913 172.880,141.761 167.058,141.761 166.807 C 141.761 166.700,141.841 166.637,141.938 166.667 C 142.118 166.722,143.490 165.327,143.490 165.088 C 143.490 165.016,143.732 164.828,144.027 164.670 C 144.322 164.512,144.622 164.196,144.695 163.969 C 144.767 163.741,144.874 163.603,144.932 163.661 C 145.052 163.781,145.859 163.028,145.881 162.777 C 145.889 162.688,146.108 162.497,146.368 162.352 C 146.627 162.208,146.766 162.086,146.675 162.082 C 146.585 162.078,147.032 161.602,147.670 161.025 C 148.881 159.928,158.982 149.801,160.237 148.425 C 160.634 147.989,161.016 147.690,161.085 147.759 C 161.154 147.828,161.210 147.480,161.210 146.985 C 161.210 146.119,160.965 145.674,159.893 144.594 C 159.704 144.403,159.370 143.936,159.151 143.556 C 158.933 143.176,158.677 142.913,158.584 142.970 C 158.490 143.028,158.352 142.829,158.276 142.528 C 158.201 142.227,158.055 142.032,157.952 142.096 C 157.849 142.159,157.703 141.965,157.628 141.663 C 157.552 141.362,157.403 141.170,157.297 141.235 C 157.191 141.301,157.104 141.202,157.104 141.016 C 157.104 140.308,155.476 139.310,154.732 139.561 " stroke="none" fill="#79af4c" fill-rule="evenodd"></path><path id="path3" d="M191.817 27.111 L 191.248 27.680 191.248 54.561 C 191.248 85.417,191.067 83.176,193.558 83.191 C 194.175 83.195,194.745 83.304,194.825 83.433 C 194.905 83.562,195.154 83.620,195.378 83.561 C 195.603 83.503,195.786 83.522,195.786 83.604 C 195.786 83.685,196.044 83.774,196.358 83.800 C 196.673 83.826,197.054 83.949,197.204 84.074 C 197.838 84.600,200.244 84.581,201.010 84.043 C 201.833 83.466,205.721 79.506,205.724 79.242 C 205.726 79.146,205.817 79.123,205.927 79.191 C 206.037 79.259,206.190 79.119,206.266 78.879 C 206.342 78.640,206.495 78.444,206.606 78.444 C 206.717 78.444,207.367 77.850,208.050 77.125 C 208.733 76.399,209.415 75.694,209.566 75.558 C 209.716 75.422,211.369 73.776,213.239 71.900 C 215.109 70.023,217.053 68.079,217.559 67.578 C 221.071 64.098,224.777 60.402,225.550 59.609 C 226.529 58.606,228.930 56.185,229.216 55.914 C 235.899 49.573,240.735 44.422,240.735 43.645 C 240.735 42.799,240.119 41.923,239.523 41.923 C 239.377 41.923,239.226 41.845,239.186 41.750 C 239.146 41.654,238.482 41.198,237.709 40.737 C 236.937 40.275,236.256 39.832,236.197 39.754 C 236.086 39.608,235.095 39.035,234.900 39.005 C 234.639 38.964,233.273 38.166,233.004 37.897 C 232.841 37.735,232.521 37.601,232.291 37.601 C 232.062 37.601,231.875 37.515,231.875 37.409 C 231.875 37.303,231.632 37.155,231.334 37.080 C 231.037 37.006,230.794 36.849,230.794 36.733 C 230.794 36.616,230.607 36.521,230.377 36.521 C 230.148 36.521,229.832 36.395,229.675 36.242 C 229.518 36.088,229.049 35.830,228.633 35.668 C 228.217 35.506,227.147 35.040,226.256 34.633 C 225.365 34.226,224.441 33.805,224.203 33.698 C 222.382 32.875,216.785 30.906,216.261 30.904 C 216.053 30.903,215.883 30.826,215.883 30.733 C 215.883 30.640,214.887 30.339,213.668 30.065 C 212.450 29.790,211.299 29.487,211.110 29.390 C 210.921 29.293,210.216 29.144,209.543 29.060 C 208.870 28.976,208.320 28.821,208.320 28.716 C 208.320 28.611,207.890 28.525,207.365 28.525 C 206.840 28.525,206.379 28.433,206.339 28.321 C 206.299 28.209,205.489 28.017,204.538 27.893 C 203.587 27.770,202.534 27.615,202.197 27.549 C 201.860 27.483,200.839 27.346,199.928 27.245 C 199.017 27.143,198.062 27.008,197.807 26.945 C 195.825 26.454,192.379 26.549,191.817 27.111 M120.030 55.589 C 119.324 56.330,118.742 57.035,118.737 57.155 C 118.731 57.276,118.610 57.350,118.467 57.320 C 118.324 57.291,118.206 57.351,118.206 57.455 C 118.206 57.559,117.793 58.082,117.288 58.616 C 116.783 59.151,116.224 59.807,116.045 60.074 C 115.867 60.341,115.454 60.832,115.127 61.165 C 114.800 61.499,114.533 61.876,114.533 62.004 C 114.533 62.132,114.442 62.237,114.330 62.237 C 114.219 62.237,113.910 62.626,113.642 63.101 C 113.375 63.576,113.089 63.965,113.007 63.965 C 112.924 63.965,112.480 64.525,112.020 65.208 C 111.560 65.891,111.127 66.499,111.059 66.559 C 110.818 66.768,109.198 69.271,108.681 70.232 C 108.393 70.767,108.107 71.253,108.045 71.313 C 107.891 71.459,107.287 72.416,106.757 73.352 C 105.383 75.778,104.978 76.546,104.243 78.120 C 104.021 78.595,103.746 79.115,103.631 79.276 C 103.517 79.436,103.392 79.772,103.354 80.023 C 103.316 80.273,103.212 80.531,103.123 80.596 C 102.844 80.798,101.834 82.906,101.680 83.608 C 101.599 83.977,101.451 84.279,101.351 84.279 C 101.251 84.279,101.105 84.595,101.028 84.981 C 100.950 85.367,100.756 85.975,100.597 86.332 C 100.438 86.688,100.275 87.175,100.235 87.412 C 100.195 87.650,100.087 87.900,99.995 87.968 C 99.903 88.037,99.783 88.328,99.729 88.617 C 99.675 88.905,99.539 89.335,99.427 89.573 C 99.158 90.143,98.666 91.641,98.220 93.247 C 98.022 93.960,97.777 94.738,97.675 94.976 C 97.574 95.213,97.430 95.868,97.355 96.429 C 97.281 96.991,97.136 97.503,97.033 97.566 C 96.930 97.630,96.779 98.313,96.696 99.084 C 96.614 99.855,96.470 100.486,96.378 100.486 C 96.285 100.486,96.140 101.264,96.056 102.215 C 95.972 103.166,95.833 103.944,95.747 103.944 C 95.660 103.944,95.568 104.486,95.541 105.149 C 95.514 105.812,95.402 106.594,95.291 106.886 C 95.180 107.178,95.104 107.486,95.123 107.571 C 95.183 107.844,94.843 109.440,94.630 109.887 C 94.512 110.135,94.450 112.484,94.484 115.397 L 94.543 120.475 122.078 120.530 C 151.647 120.589,150.405 120.630,150.405 119.596 C 150.405 119.446,150.493 119.290,150.601 119.251 C 150.708 119.211,150.835 118.204,150.882 117.012 C 150.929 115.821,151.042 114.727,151.132 114.581 C 151.221 114.436,151.256 114.317,151.208 114.317 C 151.160 114.317,151.260 113.660,151.429 112.858 C 151.599 112.056,151.845 110.840,151.977 110.157 C 152.109 109.473,152.295 108.914,152.391 108.914 C 152.487 108.914,152.566 108.723,152.566 108.490 C 152.566 108.082,153.124 106.486,153.740 105.132 C 154.604 103.235,155.262 101.879,155.366 101.783 C 155.546 101.617,157.753 98.320,157.753 98.217 C 157.753 98.168,157.997 97.855,158.296 97.524 C 160.320 95.277,160.766 94.728,160.772 94.477 C 160.775 94.321,160.875 94.254,160.994 94.327 C 161.113 94.401,161.222 94.309,161.237 94.124 C 161.252 93.939,161.283 93.666,161.305 93.517 C 161.411 92.821,155.726 86.656,154.978 86.656 C 154.840 86.656,154.727 86.556,154.727 86.434 C 154.727 86.312,147.525 79.019,138.723 70.227 C 120.344 51.869,122.193 53.317,120.030 55.589 M264.073 67.144 C 263.895 67.210,256.602 74.396,247.866 83.112 C 222.653 108.270,225.068 105.828,225.068 106.161 C 225.068 106.258,224.960 106.406,224.828 106.491 C 223.708 107.210,223.464 110.649,224.396 112.580 C 224.760 113.335,224.959 114.112,224.959 114.774 C 224.959 115.820,225.341 116.478,225.947 116.478 C 226.117 116.478,226.256 116.575,226.256 116.694 C 226.256 117.102,279.642 116.980,280.465 116.569 C 281.416 116.095,281.624 115.585,281.499 114.034 C 281.440 113.298,281.323 111.845,281.238 110.805 C 281.154 109.765,281.025 108.914,280.953 108.914 C 280.880 108.914,280.802 108.501,280.778 107.996 C 280.700 106.323,280.453 104.487,280.276 104.268 C 280.180 104.149,280.032 103.323,279.947 102.431 C 279.863 101.540,279.721 100.713,279.632 100.594 C 279.544 100.475,279.401 99.892,279.315 99.298 C 279.229 98.703,279.096 98.120,279.021 98.001 C 278.945 97.882,278.876 97.736,278.867 97.677 C 278.684 96.449,278.489 95.538,278.335 95.192 C 278.230 94.954,277.933 94.030,277.677 93.139 C 276.557 89.243,276.117 87.952,275.909 87.952 C 275.820 87.952,275.686 87.563,275.610 87.088 C 275.534 86.613,275.399 86.224,275.311 86.224 C 275.222 86.224,275.088 85.835,275.012 85.359 C 274.936 84.884,274.777 84.495,274.660 84.495 C 274.542 84.495,274.446 84.340,274.446 84.150 C 274.446 83.960,274.306 83.547,274.134 83.232 C 273.962 82.916,273.684 82.318,273.515 81.902 C 272.678 79.837,272.421 79.308,272.252 79.308 C 272.152 79.308,272.069 79.121,272.069 78.892 C 272.069 78.662,271.923 78.329,271.745 78.151 C 271.567 77.973,271.421 77.766,271.421 77.691 C 271.421 77.262,270.139 74.857,268.879 72.921 C 268.728 72.690,268.500 72.234,268.371 71.907 C 268.242 71.580,268.049 71.313,267.942 71.313 C 267.835 71.313,267.747 71.187,267.747 71.033 C 267.747 70.138,264.982 66.775,264.438 67.008 C 264.416 67.017,264.252 67.079,264.073 67.144 M187.031 93.792 C 186.985 93.866,187.420 93.949,187.998 93.975 C 188.576 94.001,189.097 93.946,189.155 93.851 C 189.213 93.756,188.778 93.674,188.187 93.668 C 187.597 93.662,187.077 93.718,187.031 93.792 M229.119 119.664 C 230.397 119.702,232.488 119.702,233.766 119.664 C 235.043 119.626,233.998 119.595,231.442 119.595 C 228.887 119.595,227.842 119.626,229.119 119.664 M246.515 119.665 C 252.250 119.697,261.634 119.697,267.369 119.665 C 273.104 119.633,268.412 119.607,256.942 119.607 C 245.473 119.607,240.781 119.633,246.515 119.665 M278.174 119.652 C 278.382 119.706,278.722 119.706,278.930 119.652 C 279.138 119.598,278.968 119.553,278.552 119.553 C 278.136 119.553,277.966 119.598,278.174 119.652 M211.073 149.290 C 210.286 149.764,209.980 151.486,210.683 151.486 C 210.769 151.486,211.067 151.972,211.345 152.566 C 211.624 153.160,211.917 153.647,211.998 153.647 C 212.078 153.647,212.319 154.036,212.534 154.511 C 212.748 154.986,213.006 155.375,213.107 155.375 C 213.208 155.375,213.290 155.514,213.290 155.684 C 213.290 155.854,213.418 156.121,213.573 156.278 C 213.729 156.436,214.087 157.026,214.368 157.590 C 214.649 158.155,214.959 158.617,215.057 158.617 C 215.155 158.617,215.235 158.724,215.235 158.855 C 215.235 159.138,216.785 161.719,217.018 161.822 C 217.107 161.862,217.180 162.032,217.180 162.201 C 217.180 162.369,217.267 162.507,217.373 162.507 C 217.479 162.507,217.626 162.750,217.701 163.047 C 217.775 163.344,217.932 163.587,218.048 163.587 C 218.165 163.587,218.260 163.699,218.260 163.837 C 218.260 163.974,218.990 165.275,219.881 166.728 C 220.773 168.181,221.502 169.478,221.502 169.612 C 221.502 169.745,221.589 169.854,221.695 169.854 C 221.801 169.854,221.948 170.097,222.023 170.394 C 222.097 170.692,222.254 170.935,222.370 170.935 C 222.487 170.935,222.582 171.084,222.582 171.266 C 222.582 171.448,222.728 171.652,222.907 171.721 C 223.085 171.789,223.231 172.032,223.231 172.261 C 223.231 172.490,223.377 172.733,223.555 172.801 C 223.733 172.870,223.879 173.110,223.879 173.335 C 223.879 173.560,223.974 173.744,224.091 173.744 C 224.208 173.744,224.365 173.992,224.441 174.294 C 224.517 174.597,224.628 174.795,224.688 174.735 C 224.748 174.675,225.053 175.133,225.365 175.752 C 225.677 176.371,225.981 176.926,226.040 176.985 C 226.259 177.205,226.711 177.975,226.960 178.552 C 227.100 178.879,227.291 179.146,227.384 179.146 C 227.477 179.146,227.553 179.278,227.553 179.438 C 227.553 179.599,227.844 180.133,228.201 180.625 C 228.558 181.117,228.849 181.579,228.849 181.650 C 228.849 181.722,229.068 182.088,229.335 182.463 C 229.912 183.272,230.505 184.294,230.702 184.819 C 230.781 185.027,230.930 185.197,231.035 185.197 C 231.140 185.197,231.226 185.336,231.226 185.506 C 231.226 185.676,231.348 185.943,231.497 186.100 C 231.646 186.257,231.960 186.750,232.194 187.196 C 232.429 187.642,232.696 188.006,232.788 188.006 C 232.880 188.006,232.955 188.145,232.955 188.315 C 232.955 188.485,233.088 188.757,233.251 188.920 C 233.413 189.082,233.614 189.429,233.698 189.691 C 233.781 189.953,233.939 190.167,234.050 190.167 C 234.161 190.167,234.252 190.306,234.252 190.476 C 234.252 190.646,234.373 190.918,234.522 191.080 C 234.670 191.243,234.971 191.712,235.191 192.122 C 236.093 193.814,236.320 194.177,236.629 194.428 C 236.807 194.573,236.886 194.695,236.803 194.699 C 236.662 194.705,237.860 196.673,238.347 197.236 C 238.472 197.379,238.574 197.598,238.574 197.722 C 238.574 198.159,240.325 198.054,240.583 197.602 C 240.678 197.435,240.897 197.299,241.070 197.299 C 241.242 197.299,241.383 197.202,241.383 197.083 C 241.383 196.964,241.505 196.866,241.653 196.866 C 241.802 196.865,242.218 196.589,242.577 196.251 C 242.937 195.914,243.339 195.598,243.470 195.550 C 243.733 195.453,245.351 194.170,245.965 193.571 C 246.179 193.363,246.431 193.193,246.527 193.193 C 246.623 193.193,247.029 192.854,247.431 192.440 C 247.832 192.026,248.200 191.726,248.247 191.773 C 248.295 191.821,248.703 191.479,249.155 191.014 C 249.607 190.548,250.080 190.167,250.206 190.167 C 250.605 190.167,251.108 189.233,251.108 188.491 C 251.108 187.744,212.632 148.862,211.942 148.912 C 211.792 148.923,211.401 149.093,211.073 149.290 M144.140 168.551 C 122.446 190.235,123.895 188.545,125.662 190.109 C 126.078 190.478,126.418 190.734,126.418 190.678 C 126.418 190.623,126.637 190.811,126.904 191.097 C 127.565 191.803,129.747 193.587,131.064 194.498 C 131.659 194.909,132.177 195.319,132.217 195.408 C 132.256 195.497,132.372 195.570,132.474 195.570 C 132.575 195.570,132.978 195.862,133.368 196.218 C 133.759 196.575,134.194 196.867,134.336 196.867 C 134.478 196.867,134.626 196.939,134.666 197.029 C 134.763 197.247,136.081 198.163,136.298 198.163 C 136.393 198.163,136.733 198.406,137.054 198.703 C 137.374 199.001,137.742 199.244,137.871 199.244 C 138.001 199.244,138.370 199.490,138.691 199.791 C 139.013 200.092,139.495 200.394,139.762 200.462 C 140.030 200.531,140.249 200.666,140.249 200.763 C 140.249 200.859,140.540 201.002,140.897 201.080 C 141.253 201.159,141.545 201.311,141.545 201.418 C 141.545 201.525,141.788 201.674,142.085 201.748 C 142.382 201.823,142.626 201.963,142.626 202.059 C 142.626 202.156,142.917 202.299,143.274 202.377 C 143.630 202.455,143.922 202.598,143.922 202.693 C 143.922 202.789,144.092 202.924,144.300 202.994 C 144.508 203.064,144.824 203.217,145.003 203.335 C 145.832 203.882,148.124 204.862,148.575 204.862 C 149.286 204.862,150.059 204.001,150.289 202.953 C 150.372 202.577,150.505 202.269,150.586 202.269 C 150.728 202.269,151.177 201.130,151.416 200.162 C 151.482 199.895,151.622 199.676,151.727 199.676 C 151.832 199.676,151.918 199.506,151.919 199.298 C 151.920 199.090,152.066 198.641,152.243 198.301 C 152.421 197.960,152.566 197.597,152.566 197.494 C 152.566 197.390,152.856 196.707,153.210 195.976 C 153.564 195.245,153.916 194.319,153.991 193.920 C 154.066 193.520,154.212 193.193,154.316 193.193 C 154.421 193.193,154.568 192.806,154.644 192.332 C 154.719 191.859,154.866 191.525,154.970 191.589 C 155.074 191.653,155.159 191.522,155.159 191.297 C 155.159 191.072,155.232 190.815,155.321 190.726 C 155.411 190.637,155.487 190.499,155.492 190.420 C 155.500 190.279,155.861 189.447,156.692 187.659 C 156.919 187.170,157.104 186.562,157.104 186.308 C 157.104 186.054,157.194 185.845,157.303 185.845 C 157.494 185.845,157.879 184.615,157.794 184.279 C 157.771 184.190,157.850 184.117,157.969 184.117 C 158.088 184.117,158.185 184.014,158.185 183.889 C 158.185 183.634,158.847 182.068,159.491 180.801 C 159.724 180.344,159.914 179.877,159.914 179.762 C 159.914 179.648,160.097 179.147,160.322 178.648 C 160.547 178.150,160.910 177.231,161.129 176.607 C 161.348 175.983,161.602 175.473,161.693 175.473 C 161.784 175.473,161.858 175.297,161.858 175.082 C 161.858 174.867,162.001 174.502,162.176 174.271 C 162.350 174.041,162.496 173.681,162.500 173.473 C 162.504 173.265,162.697 172.738,162.930 172.304 C 163.163 171.869,163.303 171.432,163.242 171.332 C 163.180 171.232,163.233 171.151,163.358 171.151 C 163.484 171.151,163.587 171.044,163.587 170.913 C 163.587 170.783,163.740 170.321,163.927 169.887 C 164.114 169.453,164.404 168.780,164.570 168.392 C 164.736 168.004,165.020 167.372,165.201 166.988 C 165.382 166.603,165.592 165.972,165.666 165.586 C 165.741 165.200,165.886 164.884,165.989 164.884 C 166.091 164.884,166.238 164.492,166.315 164.012 C 166.391 163.533,166.506 163.192,166.568 163.255 C 166.724 163.410,167.477 161.696,167.477 161.187 C 167.477 160.962,167.574 160.778,167.693 160.778 C 167.812 160.778,167.913 160.656,167.917 160.508 C 167.921 160.359,168.112 159.849,168.341 159.373 C 168.571 158.898,168.762 158.355,168.766 158.167 C 168.770 157.979,168.836 157.762,168.913 157.686 C 169.118 157.480,170.068 155.095,170.069 154.781 C 170.070 154.633,170.167 154.511,170.286 154.511 C 170.732 154.511,170.489 153.397,169.931 152.880 C 169.616 152.589,169.281 152.350,169.185 152.350 C 169.090 152.350,168.750 152.107,168.429 151.810 C 168.108 151.513,167.723 151.270,167.572 151.270 C 167.421 151.270,167.265 151.197,167.225 151.108 C 167.185 151.018,166.611 150.581,165.949 150.135 C 163.734 148.645,165.806 146.895,144.140 168.551 " stroke="none" fill="#586638" fill-rule="evenodd"></path></g></svg>