<svg id="svg" xmlns="http://www.w3.org/2000/svg" xmlns:xlink="http://www.w3.org/1999/xlink" width="400" height="300" viewBox="0, 0, 400,300"><g id="svgg"><path id="path0" d="M151.688 107.413 C 151.193 107.688,150.654 108.209,150.491 108.570 C 150.329 108.932,150.092 109.227,149.966 109.227 C 149.553 109.227,149.704 112.834,150.124 112.995 C 150.337 113.077,150.533 113.432,150.559 113.784 C 150.586 114.136,150.717 114.504,150.851 114.602 C 150.984 114.699,151.355 115.277,151.674 115.886 C 151.993 116.494,152.335 116.943,152.434 116.882 C 152.533 116.821,152.635 117.053,152.661 117.398 C 152.687 117.743,152.816 118.105,152.948 118.203 C 153.080 118.300,153.446 118.886,153.761 119.505 C 154.075 120.124,154.447 120.630,154.586 120.630 C 154.725 120.630,154.839 120.830,154.839 121.075 C 154.839 121.320,155.354 122.366,155.983 123.401 C 156.613 124.435,157.226 125.484,157.346 125.731 C 157.859 126.794,158.353 127.519,158.479 127.393 C 158.553 127.318,158.636 127.554,158.663 127.915 C 158.691 128.277,158.854 128.620,159.026 128.678 C 159.199 128.735,159.340 128.966,159.340 129.190 C 159.340 129.414,159.496 129.693,159.686 129.811 C 159.919 129.955,159.953 129.887,159.788 129.604 C 159.654 129.372,159.659 129.287,159.800 129.415 C 159.940 129.543,160.100 129.942,160.155 130.302 C 160.210 130.662,160.353 131.030,160.473 131.120 C 160.592 131.209,160.959 131.823,161.287 132.483 C 161.616 133.143,161.954 133.751,162.038 133.834 C 162.122 133.916,162.406 134.389,162.670 134.884 C 162.933 135.379,163.844 136.985,164.695 138.453 C 165.546 139.920,166.242 141.237,166.242 141.378 C 166.242 141.520,166.362 141.635,166.509 141.635 C 166.656 141.635,166.861 141.973,166.965 142.386 C 167.068 142.798,167.286 143.136,167.448 143.136 C 167.609 143.136,167.742 143.406,167.742 143.736 C 167.742 144.066,167.844 144.336,167.969 144.336 C 168.094 144.336,168.376 144.744,168.597 145.243 C 168.818 145.742,169.155 146.316,169.345 146.518 C 169.536 146.721,169.931 147.359,170.222 147.937 C 171.387 150.248,172.538 151.984,172.854 151.906 C 173.038 151.860,173.107 151.955,173.007 152.116 C 172.806 152.440,174.665 156.061,174.944 155.889 C 175.040 155.829,175.140 156.063,175.166 156.408 C 175.192 156.753,175.325 157.115,175.460 157.212 C 175.595 157.310,175.873 157.768,176.076 158.231 C 176.280 158.695,176.580 158.991,176.742 158.891 C 176.911 158.787,176.961 158.908,176.859 159.174 C 176.760 159.430,176.829 159.640,177.012 159.640 C 177.195 159.640,177.344 159.833,177.344 160.069 C 177.344 160.840,179.498 164.141,180.005 164.146 C 180.431 164.150,180.436 164.188,180.045 164.441 C 179.770 164.619,173.627 164.734,164.216 164.737 L 148.837 164.741 148.837 165.642 C 148.837 166.800,150.327 169.201,150.938 169.026 C 151.289 168.925,151.302 168.957,150.993 169.174 C 150.677 169.397,150.720 169.652,151.215 170.472 C 151.553 171.034,151.964 171.797,152.127 172.168 C 152.290 172.539,152.557 172.843,152.721 172.843 C 152.885 172.843,152.942 173.046,152.847 173.293 C 152.694 173.690,154.593 173.743,168.838 173.743 L 185.002 173.743 185.424 174.419 C 186.567 176.245,188.747 180.161,188.747 180.388 C 188.747 180.530,188.882 180.645,189.047 180.645 C 189.212 180.645,189.347 180.856,189.347 181.113 C 189.347 181.370,189.481 181.498,189.644 181.397 C 189.814 181.292,189.864 181.413,189.762 181.680 C 189.664 181.936,189.733 182.146,189.915 182.146 C 190.098 182.146,190.248 182.416,190.248 182.746 C 190.248 183.076,190.351 183.346,190.476 183.346 C 190.706 183.346,191.248 184.235,191.620 185.221 C 191.729 185.510,191.937 185.746,192.083 185.746 C 192.229 185.746,192.348 185.957,192.348 186.214 C 192.348 186.472,192.482 186.600,192.645 186.499 C 192.811 186.396,192.867 186.509,192.772 186.758 C 192.678 187.001,192.882 187.481,193.225 187.824 C 193.568 188.167,193.848 188.643,193.848 188.882 C 193.848 189.122,194.085 189.450,194.374 189.611 C 194.662 189.773,194.865 189.982,194.824 190.076 C 194.641 190.494,194.806 190.818,195.652 191.703 C 196.148 192.223,196.756 192.648,197.002 192.648 C 197.248 192.648,197.449 192.783,197.449 192.948 C 197.449 193.113,198.125 193.248,198.950 193.248 C 199.775 193.248,200.450 193.130,200.450 192.986 C 200.450 192.841,200.821 192.648,201.275 192.557 C 202.218 192.367,203.151 191.009,203.151 189.826 C 203.151 189.398,203.291 189.047,203.461 189.047 C 203.676 189.047,203.676 188.867,203.461 188.467 C 203.291 188.148,203.151 187.601,203.151 187.252 C 203.151 186.903,202.779 186.265,202.326 185.833 C 201.872 185.401,201.669 185.146,201.875 185.265 C 202.082 185.384,202.251 185.339,202.251 185.164 C 202.251 184.989,202.116 184.846,201.950 184.846 C 201.785 184.846,201.650 184.636,201.650 184.378 C 201.650 184.101,201.509 183.998,201.304 184.125 C 201.090 184.257,201.039 184.207,201.171 183.993 C 201.416 183.598,200.650 182.346,200.348 182.648 C 200.239 182.757,200.149 182.519,200.149 182.121 C 200.148 181.722,199.744 180.788,199.250 180.045 C 198.756 179.302,198.352 178.526,198.351 178.320 C 198.350 178.113,198.247 177.944,198.121 177.944 C 197.892 177.944,197.810 177.811,196.715 175.648 C 196.393 175.013,196.040 174.426,195.930 174.344 C 195.820 174.261,195.635 173.890,195.519 173.518 C 195.403 173.147,195.182 172.843,195.029 172.843 C 194.875 172.843,194.749 172.641,194.749 172.393 C 194.749 172.146,194.614 171.943,194.449 171.943 C 194.284 171.943,194.149 171.736,194.149 171.482 C 194.149 171.073,193.381 169.640,192.949 169.242 C 192.859 169.160,192.620 168.755,192.416 168.342 C 192.213 167.929,191.572 166.782,190.992 165.791 C 190.412 164.801,189.773 163.653,189.573 163.241 C 189.374 162.828,189.035 162.381,188.822 162.247 C 188.609 162.113,188.513 161.877,188.609 161.722 C 188.704 161.567,188.654 161.440,188.497 161.440 C 188.340 161.440,188.126 161.097,188.021 160.678 C 187.915 160.259,187.698 159.996,187.538 160.095 C 187.378 160.194,187.247 159.930,187.247 159.508 C 187.247 159.085,187.141 158.740,187.013 158.740 C 186.884 158.740,186.625 158.335,186.438 157.839 C 186.232 157.293,185.882 156.937,185.547 156.935 C 185.082 156.931,185.066 156.885,185.446 156.639 C 185.746 156.445,185.771 156.347,185.521 156.344 C 185.315 156.341,185.146 156.137,185.146 155.889 C 185.146 155.641,185.011 155.439,184.846 155.439 C 184.681 155.439,184.562 155.338,184.582 155.214 C 184.682 154.578,184.496 154.239,184.046 154.239 C 183.771 154.239,183.625 154.160,183.721 154.063 C 183.959 153.826,183.343 152.105,183.079 152.268 C 182.964 152.339,182.851 152.134,182.826 151.814 C 182.802 151.494,182.572 151.021,182.314 150.763 C 182.056 150.506,181.845 150.102,181.845 149.866 C 181.845 149.630,181.738 149.437,181.607 149.437 C 181.476 149.437,181.118 148.830,180.811 148.087 C 180.505 147.344,180.140 146.737,180.000 146.737 C 179.860 146.737,179.745 146.534,179.745 146.287 C 179.745 146.039,179.625 145.836,179.477 145.836 C 179.330 145.836,179.124 145.493,179.018 145.073 C 178.913 144.654,178.527 144.189,178.161 144.042 C 177.768 143.884,177.680 143.764,177.944 143.750 C 178.290 143.732,178.306 143.670,178.012 143.484 C 177.802 143.351,177.575 142.954,177.507 142.602 C 177.439 142.250,177.037 141.452,176.614 140.829 C 176.190 140.206,175.844 139.524,175.844 139.315 C 175.844 139.106,175.741 138.935,175.615 138.935 C 175.386 138.935,175.305 138.801,174.209 136.638 C 173.888 136.003,173.535 135.416,173.424 135.334 C 173.314 135.251,173.129 134.878,173.012 134.504 C 172.895 134.131,172.675 133.902,172.522 133.997 C 172.368 134.092,172.243 133.891,172.243 133.551 C 172.243 133.211,172.108 132.933,171.943 132.933 C 171.778 132.933,171.643 132.742,171.643 132.507 C 171.643 131.972,170.669 130.237,170.368 130.234 C 170.244 130.233,170.143 130.022,170.143 129.765 C 170.143 129.507,170.017 129.375,169.863 129.470 C 169.710 129.565,169.486 129.484,169.367 129.291 C 169.231 129.071,169.280 129.020,169.496 129.154 C 170.017 129.476,169.918 129.138,169.129 127.901 C 168.736 127.285,168.230 126.343,168.005 125.806 C 167.780 125.270,167.455 124.831,167.282 124.831 C 167.110 124.831,166.947 124.529,166.919 124.160 C 166.891 123.792,166.727 123.443,166.555 123.385 C 166.383 123.328,166.242 123.090,166.242 122.856 C 166.242 122.622,166.107 122.431,165.941 122.431 C 165.776 122.431,165.641 122.220,165.641 121.963 C 165.641 121.705,165.508 121.577,165.345 121.678 C 165.175 121.783,165.124 121.663,165.227 121.396 C 165.325 121.140,165.256 120.930,165.073 120.930 C 164.891 120.930,164.741 120.660,164.741 120.330 C 164.741 120.000,164.621 119.730,164.474 119.730 C 164.326 119.730,164.129 119.423,164.035 119.049 C 163.941 118.674,163.623 118.095,163.327 117.761 C 163.032 117.427,162.404 116.385,161.931 115.445 C 161.458 114.505,160.953 113.809,160.809 113.898 C 160.665 113.987,160.627 113.851,160.725 113.597 C 160.829 113.324,160.705 113.058,160.423 112.949 C 160.159 112.848,160.019 112.643,160.111 112.494 C 160.203 112.345,160.067 112.012,159.809 111.754 C 159.551 111.496,159.340 111.092,159.340 110.856 C 159.340 110.621,159.205 110.428,159.040 110.428 C 158.875 110.428,158.740 110.158,158.740 109.827 C 158.740 109.497,158.637 109.227,158.511 109.227 C 158.385 109.227,158.149 108.935,157.986 108.577 C 157.823 108.219,157.419 107.780,157.089 107.601 C 156.759 107.423,156.413 107.174,156.320 107.049 C 156.010 106.632,152.613 106.899,151.688 107.413 M199.700 107.392 C 199.205 107.679,198.666 108.209,198.503 108.570 C 198.341 108.932,198.104 109.227,197.978 109.227 C 196.935 109.227,198.255 114.298,199.414 114.742 C 199.654 114.835,199.848 115.083,199.845 115.294 C 199.842 115.563,199.753 115.544,199.550 115.229 C 199.372 114.953,199.257 114.919,199.254 115.139 C 199.252 115.337,199.419 115.607,199.625 115.739 C 199.831 115.871,200.000 116.182,200.000 116.429 C 200.000 116.677,200.141 116.855,200.313 116.825 C 200.485 116.795,200.647 117.053,200.673 117.398 C 200.699 117.743,200.828 118.105,200.960 118.203 C 201.092 118.300,201.458 118.886,201.773 119.505 C 202.087 120.124,202.459 120.630,202.598 120.630 C 202.737 120.630,202.851 120.895,202.851 121.220 C 202.851 121.544,203.125 121.956,203.459 122.135 C 203.794 122.314,203.995 122.579,203.906 122.723 C 203.704 123.050,204.907 125.131,205.299 125.131 C 205.457 125.131,205.513 125.250,205.424 125.395 C 205.216 125.731,206.127 127.583,206.413 127.406 C 206.531 127.333,206.649 127.566,206.676 127.923 C 206.703 128.281,206.866 128.620,207.038 128.678 C 207.211 128.735,207.352 128.973,207.352 129.207 C 207.352 129.441,207.622 129.902,207.952 130.233 C 208.282 130.563,208.475 130.833,208.381 130.833 C 208.286 130.833,208.423 131.046,208.683 131.307 C 208.944 131.568,209.080 131.906,208.986 132.059 C 208.891 132.212,209.025 132.418,209.282 132.517 C 209.539 132.615,209.694 132.786,209.626 132.895 C 209.473 133.142,210.803 135.384,210.991 135.196 C 211.066 135.121,211.145 135.301,211.167 135.596 C 211.190 135.890,211.490 136.594,211.835 137.158 C 212.179 137.723,212.543 138.421,212.642 138.710 C 212.742 138.998,212.928 139.235,213.056 139.235 C 213.184 139.235,213.372 139.567,213.473 139.972 C 213.575 140.378,213.992 141.070,214.400 141.510 C 214.809 141.951,215.074 142.422,214.990 142.558 C 214.906 142.694,215.115 142.954,215.454 143.136 C 215.793 143.317,215.997 143.586,215.906 143.733 C 215.725 144.025,216.772 145.919,216.992 145.698 C 217.067 145.623,217.147 145.803,217.169 146.098 C 217.191 146.393,217.488 147.096,217.829 147.661 C 218.170 148.225,218.542 148.890,218.655 149.137 C 218.768 149.385,218.938 149.655,219.033 149.737 C 219.127 149.820,219.439 150.394,219.725 151.013 C 220.011 151.632,220.383 152.138,220.550 152.138 C 220.718 152.138,220.855 152.333,220.855 152.571 C 220.855 153.162,222.046 155.139,222.403 155.139 C 222.561 155.139,222.632 155.240,222.560 155.364 C 222.488 155.488,222.885 156.399,223.443 157.389 C 224.001 158.380,224.540 159.426,224.642 159.715 C 224.743 160.004,224.931 160.240,225.059 160.240 C 225.187 160.240,225.368 160.547,225.462 160.921 C 225.556 161.296,225.922 161.912,226.274 162.290 C 226.627 162.669,226.939 163.139,226.968 163.336 C 227.063 163.983,228.745 165.641,229.307 165.641 C 229.610 165.641,229.857 165.776,229.857 165.941 C 229.857 166.107,230.465 166.242,231.208 166.242 C 231.950 166.242,232.558 166.107,232.558 165.941 C 232.558 165.776,232.819 165.641,233.137 165.641 C 233.672 165.641,233.998 165.396,234.819 164.377 C 235.758 163.210,236.160 162.427,236.164 161.749 C 236.167 161.149,236.229 161.084,236.459 161.440 C 236.711 161.830,236.751 161.823,236.755 161.390 C 236.757 161.115,236.860 160.845,236.984 160.790 C 237.108 160.735,237.478 160.150,237.807 159.490 C 238.135 158.830,238.473 158.222,238.557 158.140 C 238.899 157.804,239.904 155.603,239.828 155.358 C 239.782 155.213,239.883 155.180,240.053 155.284 C 240.222 155.389,240.370 155.365,240.383 155.232 C 240.468 154.335,240.673 153.784,240.956 153.690 C 241.182 153.614,241.164 153.430,240.898 153.103 C 240.567 152.696,240.587 152.655,241.031 152.821 C 241.628 153.045,242.158 152.279,242.165 151.183 C 242.169 150.624,242.227 150.576,242.461 150.938 C 242.709 151.322,242.752 151.311,242.756 150.863 C 242.759 150.574,242.862 150.336,242.986 150.335 C 243.110 150.333,243.477 149.726,243.803 148.984 C 244.129 148.243,244.515 147.637,244.660 147.637 C 244.806 147.637,244.848 147.434,244.753 147.187 C 244.658 146.939,244.733 146.737,244.921 146.737 C 245.108 146.737,245.185 146.661,245.093 146.568 C 245.000 146.475,245.257 146.041,245.664 145.602 C 246.070 145.163,246.478 144.429,246.570 143.970 C 246.662 143.511,246.826 143.136,246.935 143.136 C 247.285 143.136,248.203 141.344,248.012 141.035 C 247.910 140.870,248.037 140.735,248.294 140.735 C 248.552 140.735,248.762 140.533,248.762 140.285 C 248.762 140.038,248.863 139.834,248.987 139.832 C 249.111 139.831,249.479 139.223,249.805 138.482 C 250.130 137.741,250.516 137.134,250.662 137.134 C 250.808 137.134,250.849 136.932,250.754 136.684 C 250.659 136.437,250.735 136.234,250.922 136.234 C 251.110 136.234,251.187 136.158,251.094 136.066 C 251.002 135.973,251.258 135.538,251.665 135.099 C 252.072 134.660,252.480 133.926,252.571 133.467 C 252.663 133.008,252.827 132.633,252.936 132.633 C 253.351 132.633,254.216 130.833,253.805 130.824 C 253.590 130.819,253.683 130.664,254.014 130.479 C 254.907 129.980,254.935 129.925,254.455 129.621 C 254.096 129.394,254.126 129.339,254.614 129.330 C 255.030 129.323,255.418 128.885,255.882 127.901 L 256.551 126.482 256.536 158.563 C 256.520 194.376,256.381 191.989,258.520 192.526 C 258.930 192.629,259.265 192.834,259.265 192.981 C 259.265 193.128,259.940 193.248,260.765 193.248 C 261.590 193.248,262.266 193.128,262.266 192.981 C 262.266 192.834,262.603 192.628,263.016 192.525 C 263.428 192.421,263.766 192.129,263.766 191.875 C 263.766 191.620,263.897 191.493,264.057 191.592 C 264.217 191.691,264.435 191.429,264.540 191.010 C 264.645 190.591,264.835 190.248,264.961 190.248 C 265.280 190.248,265.252 188.773,264.929 188.574 C 264.780 188.482,264.698 171.629,264.739 149.795 L 264.813 111.178 264.966 149.887 L 265.120 188.597 265.193 149.391 C 265.275 105.361,265.439 108.676,263.123 107.347 C 260.639 105.921,255.032 107.747,255.794 109.734 C 255.884 109.969,255.825 110.077,255.660 109.975 C 255.497 109.875,255.364 110.003,255.364 110.260 C 255.364 110.517,255.229 110.728,255.064 110.728 C 254.899 110.728,254.764 110.998,254.764 111.328 C 254.764 111.658,254.631 111.928,254.469 111.928 C 254.307 111.928,254.090 112.266,253.987 112.678 C 253.883 113.091,253.664 113.428,253.499 113.428 C 253.334 113.428,253.277 113.631,253.372 113.878 C 253.469 114.131,253.380 114.329,253.170 114.329 C 252.820 114.329,251.937 116.005,252.024 116.504 C 252.045 116.628,251.924 116.729,251.753 116.729 C 251.306 116.729,250.871 118.037,251.240 118.272 C 251.406 118.378,251.275 118.549,250.948 118.653 C 250.621 118.756,250.097 119.377,249.783 120.032 C 249.469 120.687,249.111 121.225,248.987 121.227 C 248.863 121.229,248.762 121.500,248.762 121.830 C 248.762 122.161,248.636 122.431,248.482 122.431 C 248.328 122.431,248.108 122.734,247.992 123.106 C 247.876 123.477,247.698 123.848,247.596 123.931 C 247.349 124.132,246.190 126.165,245.373 127.832 C 245.009 128.575,244.555 129.348,244.364 129.551 C 244.173 129.753,243.837 130.327,243.616 130.826 C 243.395 131.325,243.112 131.733,242.988 131.733 C 242.863 131.733,242.761 132.003,242.761 132.333 C 242.761 132.663,242.635 132.933,242.481 132.933 C 242.327 132.933,242.106 133.237,241.990 133.608 C 241.874 133.980,241.689 134.351,241.578 134.434 C 241.123 134.773,240.116 137.230,240.269 137.629 C 240.366 137.882,240.275 138.023,240.049 137.972 C 239.838 137.924,239.450 138.290,239.187 138.785 C 238.925 139.280,238.575 139.784,238.410 139.905 C 238.245 140.027,238.234 140.128,238.387 140.130 C 238.539 140.133,238.404 140.439,238.087 140.810 C 237.217 141.827,236.717 142.826,236.917 143.148 C 237.015 143.306,236.899 143.436,236.659 143.436 C 236.420 143.436,236.139 143.773,236.036 144.186 C 235.932 144.599,235.715 144.936,235.553 144.936 C 235.391 144.936,235.259 145.079,235.259 145.254 C 235.259 145.429,235.428 145.486,235.634 145.382 C 235.840 145.277,235.747 145.404,235.427 145.664 C 234.864 146.121,233.830 147.822,233.089 149.512 C 232.889 149.966,232.621 150.338,232.492 150.338 C 232.363 150.338,232.254 150.506,232.248 150.713 C 232.225 151.598,230.758 152.836,230.758 151.970 C 230.758 151.681,230.615 151.585,230.383 151.718 C 230.176 151.837,230.106 151.825,230.227 151.692 C 230.410 151.489,229.450 149.330,228.957 148.837 C 228.875 148.755,228.550 148.181,228.235 147.562 C 227.920 146.943,227.549 146.437,227.410 146.437 C 227.271 146.437,227.157 146.221,227.157 145.958 C 227.157 145.437,226.332 143.839,225.731 143.195 C 225.525 142.974,225.356 142.592,225.356 142.346 C 225.356 142.101,225.221 141.984,225.056 142.086 C 224.891 142.188,224.756 142.064,224.756 141.810 C 224.756 141.140,223.693 139.498,223.430 139.761 C 223.307 139.884,223.233 139.850,223.266 139.685 C 223.418 138.933,223.218 138.335,222.815 138.335 C 222.557 138.335,222.442 138.157,222.538 137.908 C 222.628 137.673,222.433 137.212,222.104 136.882 C 221.775 136.553,221.584 136.205,221.680 136.109 C 221.777 136.013,221.698 135.934,221.505 135.934 C 221.313 135.934,221.155 135.656,221.155 135.316 C 221.155 134.926,221.028 134.777,220.809 134.912 C 220.599 135.042,220.544 134.995,220.669 134.792 C 220.876 134.457,220.429 133.459,219.730 132.698 C 219.524 132.474,219.355 132.097,219.355 131.862 C 219.355 131.626,219.247 131.433,219.116 131.433 C 218.985 131.433,218.627 130.825,218.321 130.083 C 218.015 129.340,217.649 128.732,217.509 128.732 C 217.369 128.732,217.254 128.541,217.254 128.307 C 217.254 128.073,217.153 127.837,217.029 127.782 C 216.905 127.727,216.564 127.209,216.272 126.632 C 215.096 124.315,214.095 122.560,213.734 122.184 C 213.525 121.966,213.353 121.595,213.353 121.359 C 213.353 121.123,213.246 120.930,213.115 120.930 C 212.984 120.930,212.626 120.323,212.319 119.580 C 212.013 118.837,211.648 118.230,211.508 118.230 C 211.367 118.230,211.253 118.027,211.253 117.779 C 211.253 117.532,211.118 117.329,210.953 117.329 C 210.788 117.329,210.653 117.127,210.653 116.879 C 210.653 116.632,210.518 116.429,210.353 116.429 C 210.188 116.429,210.086 116.320,210.128 116.187 C 210.240 115.825,208.558 112.828,208.243 112.828 C 208.093 112.828,208.049 112.626,208.144 112.378 C 208.239 112.131,208.181 111.928,208.017 111.928 C 207.852 111.928,207.632 111.590,207.529 111.178 C 207.425 110.765,207.208 110.428,207.046 110.428 C 206.884 110.428,206.752 110.158,206.752 109.827 C 206.752 109.497,206.649 109.227,206.523 109.227 C 206.397 109.227,206.161 108.935,205.998 108.577 C 205.835 108.219,205.431 107.780,205.101 107.601 C 204.771 107.423,204.434 107.193,204.351 107.090 C 204.007 106.661,200.578 106.884,199.700 107.392 M297.212 108.115 L 296.024 109.317 295.938 149.107 C 295.890 170.992,295.924 189.302,296.013 189.797 C 296.211 190.896,297.652 192.648,298.359 192.648 C 298.642 192.648,298.875 192.783,298.875 192.948 C 298.875 193.146,307.627 193.248,324.531 193.248 L 350.188 193.248 350.188 192.468 C 350.188 191.719,349.382 189.658,348.968 189.347 C 348.858 189.265,348.673 188.893,348.557 188.522 C 348.441 188.151,348.221 187.847,348.067 187.847 C 347.913 187.847,347.787 187.644,347.787 187.397 C 347.787 187.149,347.652 186.947,347.487 186.947 C 347.322 186.947,347.183 186.710,347.177 186.422 C 347.165 185.753,346.445 184.788,346.166 185.067 C 346.050 185.183,346.048 185.034,346.163 184.736 C 346.321 184.323,346.236 184.208,345.804 184.255 C 345.492 184.288,336.155 184.300,325.056 184.281 L 304.876 184.246 304.876 146.877 C 304.876 114.001,304.822 109.488,304.428 109.336 C 304.181 109.242,304.055 109.043,304.147 108.893 C 304.239 108.744,304.137 108.453,303.920 108.246 C 301.909 106.325,299.036 106.269,297.212 108.115 M49.812 108.774 C 49.812 109.353,49.933 109.827,50.080 109.827 C 50.227 109.827,50.432 110.165,50.536 110.578 C 50.639 110.990,50.857 111.328,51.018 111.328 C 51.180 111.328,51.313 111.530,51.313 111.778 C 51.313 112.026,51.433 112.228,51.580 112.228 C 51.728 112.228,51.936 112.578,52.043 113.006 C 52.170 113.509,52.387 113.726,52.660 113.621 C 52.936 113.515,53.026 113.607,52.919 113.886 C 52.829 114.121,52.971 114.529,53.234 114.792 C 53.498 115.056,53.713 115.465,53.713 115.700 C 53.713 116.068,56.812 116.129,75.451 116.129 C 89.619 116.129,97.253 116.234,97.374 116.429 C 97.476 116.594,98.084 116.729,98.725 116.729 C 99.365 116.729,99.963 116.849,100.054 116.995 C 100.144 117.141,100.827 117.351,101.572 117.463 C 102.316 117.575,102.926 117.801,102.926 117.966 C 102.926 118.130,103.062 118.181,103.228 118.078 C 103.394 117.975,103.606 118.090,103.700 118.333 C 103.793 118.577,104.197 118.858,104.598 118.958 C 104.999 119.059,105.326 119.274,105.326 119.436 C 105.326 119.597,105.572 119.730,105.873 119.730 C 106.173 119.730,106.795 120.202,107.255 120.778 C 107.714 121.355,108.232 121.739,108.405 121.632 C 108.589 121.519,108.631 121.582,108.506 121.784 C 108.388 121.975,108.426 122.131,108.589 122.131 C 108.753 122.131,108.970 122.394,109.072 122.715 C 109.174 123.037,109.521 123.384,109.843 123.486 C 110.164 123.588,110.428 123.937,110.428 124.261 C 110.428 124.585,110.630 124.928,110.878 125.023 C 111.125 125.118,111.328 125.451,111.328 125.764 C 111.328 126.076,111.457 126.332,111.614 126.332 C 111.772 126.332,111.987 126.793,112.093 127.356 C 112.199 127.919,112.538 128.652,112.848 128.984 C 113.248 129.414,113.305 129.631,113.044 129.738 C 112.775 129.847,112.796 129.968,113.123 130.195 C 113.721 130.611,113.796 139.262,113.203 139.460 C 112.997 139.529,112.828 139.903,112.828 140.292 C 112.828 140.681,112.691 141.085,112.523 141.188 C 112.356 141.292,112.290 141.493,112.378 141.635 C 112.466 141.778,112.401 141.979,112.233 142.082 C 112.065 142.186,111.928 142.522,111.928 142.828 C 111.928 143.135,111.827 143.431,111.703 143.486 C 111.579 143.541,110.877 144.396,110.142 145.386 C 108.534 147.553,108.421 147.671,107.277 148.400 C 106.782 148.715,106.269 149.145,106.137 149.355 C 106.005 149.565,105.722 149.737,105.508 149.737 C 105.294 149.737,104.882 150.000,104.592 150.321 C 104.301 150.641,103.674 150.989,103.198 151.094 C 102.722 151.198,102.255 151.409,102.161 151.561 C 102.067 151.713,101.728 151.838,101.408 151.838 C 101.087 151.838,100.825 151.973,100.825 152.138 C 100.825 152.303,100.532 152.438,100.174 152.438 C 99.815 152.438,99.275 152.662,98.973 152.935 C 98.645 153.232,98.425 153.292,98.425 153.085 C 98.425 152.665,97.615 152.619,97.474 153.030 C 97.412 153.212,93.357 153.336,86.797 153.358 C 75.053 153.396,75.555 153.293,76.969 155.374 C 77.382 155.982,77.719 156.650,77.719 156.859 C 77.719 157.068,77.854 157.239,78.020 157.239 C 78.185 157.239,78.320 157.442,78.320 157.689 C 78.320 157.937,78.440 158.140,78.587 158.140 C 78.734 158.140,78.939 158.477,79.043 158.890 C 79.147 159.302,79.364 159.640,79.526 159.640 C 79.687 159.640,79.820 159.896,79.820 160.208 C 79.820 161.010,80.370 161.140,83.745 161.140 C 86.146 161.140,86.722 161.225,86.722 161.575 C 86.722 161.815,86.936 162.131,87.199 162.278 C 87.461 162.424,87.671 162.667,87.666 162.818 C 87.661 162.968,87.866 163.070,88.122 163.044 C 88.428 163.013,88.485 163.098,88.289 163.294 C 87.950 163.633,88.156 164.741,88.557 164.741 C 88.703 164.741,88.822 164.944,88.822 165.191 C 88.822 165.439,88.955 165.641,89.117 165.641 C 89.278 165.641,89.496 165.979,89.599 166.392 C 89.703 166.804,89.908 167.142,90.055 167.142 C 90.202 167.142,90.323 167.328,90.323 167.555 C 90.323 167.783,90.525 168.137,90.773 168.342 C 91.020 168.548,91.223 168.969,91.223 169.279 C 91.223 169.589,91.358 169.842,91.523 169.842 C 91.688 169.842,91.823 170.031,91.823 170.260 C 91.823 170.490,92.026 170.756,92.273 170.851 C 92.521 170.946,92.723 171.298,92.723 171.633 C 92.723 171.969,92.858 172.243,93.023 172.243 C 93.188 172.243,93.323 172.446,93.323 172.693 C 93.323 172.941,93.444 173.143,93.591 173.143 C 93.738 173.143,93.943 173.481,94.047 173.893 C 94.150 174.306,94.367 174.644,94.529 174.644 C 94.691 174.644,94.824 174.914,94.824 175.244 C 94.824 175.574,94.956 175.844,95.118 175.844 C 95.280 175.844,95.499 176.190,95.605 176.612 C 95.718 177.061,95.955 177.320,96.177 177.235 C 96.428 177.138,96.505 177.284,96.405 177.667 C 96.322 177.985,96.405 178.245,96.589 178.245 C 96.773 178.245,96.924 178.448,96.924 178.697 C 96.924 178.945,97.262 179.442,97.674 179.801 C 98.087 180.160,98.425 180.689,98.425 180.978 C 98.425 181.266,98.627 181.705,98.875 181.953 C 99.122 182.200,99.325 182.615,99.325 182.874 C 99.325 183.134,99.445 183.346,99.592 183.346 C 99.740 183.346,99.945 183.683,100.048 184.096 C 100.152 184.509,100.369 184.846,100.531 184.846 C 100.693 184.846,100.825 185.034,100.825 185.264 C 100.825 185.494,101.047 185.767,101.318 185.871 C 101.589 185.975,101.728 186.144,101.626 186.246 C 101.407 186.465,102.349 188.147,102.690 188.147 C 102.820 188.147,102.926 188.354,102.926 188.608 C 102.926 189.042,103.736 190.521,104.154 190.848 C 104.259 190.930,104.443 191.311,104.563 191.695 C 104.705 192.151,104.936 192.332,105.231 192.219 C 105.519 192.108,105.739 192.263,105.839 192.647 C 106.263 194.267,112.228 192.912,112.228 191.196 C 112.228 191.004,112.356 190.848,112.512 190.848 C 112.669 190.848,112.793 190.038,112.788 189.047 C 112.784 188.057,112.656 187.247,112.504 187.247 C 112.352 187.247,112.228 187.044,112.228 186.797 C 112.228 186.549,112.096 186.347,111.934 186.347 C 111.772 186.347,111.555 186.009,111.451 185.596 C 111.347 185.184,111.142 184.846,110.995 184.846 C 110.848 184.846,110.728 184.644,110.728 184.396 C 110.728 184.149,110.595 183.946,110.433 183.946 C 110.271 183.946,110.054 183.608,109.951 183.196 C 109.847 182.783,109.672 182.446,109.562 182.446 C 109.452 182.446,109.095 181.839,108.769 181.098 C 108.444 180.357,108.076 179.749,107.952 179.748 C 107.828 179.746,107.727 179.542,107.727 179.295 C 107.727 179.047,107.607 178.845,107.459 178.845 C 107.312 178.845,107.106 178.502,107.000 178.082 C 106.895 177.663,106.678 177.401,106.518 177.500 C 106.358 177.599,106.227 177.402,106.227 177.062 C 106.227 176.722,106.106 176.444,105.959 176.444 C 105.812 176.444,105.607 176.107,105.503 175.694 C 105.400 175.281,105.182 174.944,105.021 174.944 C 104.859 174.944,104.726 174.674,104.726 174.344 C 104.726 174.014,104.606 173.743,104.459 173.743 C 104.311 173.743,104.114 173.437,104.020 173.062 C 103.926 172.688,103.608 172.110,103.312 171.779 C 103.017 171.447,102.518 170.674,102.203 170.059 C 101.888 169.445,101.517 168.942,101.378 168.942 C 101.239 168.942,101.125 168.706,101.124 168.417 C 101.123 168.128,100.719 167.284,100.225 166.542 C 99.731 165.799,99.327 165.023,99.326 164.816 C 99.325 164.610,99.114 164.441,98.857 164.441 C 98.600 164.441,98.460 164.327,98.547 164.186 C 98.633 164.046,98.472 163.675,98.189 163.361 C 97.178 162.241,97.441 161.740,99.040 161.740 C 99.838 161.740,100.573 161.605,100.675 161.440 C 100.777 161.275,101.325 161.140,101.893 161.140 C 102.461 161.140,102.926 161.018,102.926 160.868 C 102.926 160.719,103.174 160.661,103.477 160.741 C 103.780 160.820,104.527 160.605,105.137 160.262 C 105.746 159.920,106.451 159.640,106.704 159.640 C 106.974 159.640,107.074 159.498,106.948 159.293 C 106.814 159.076,106.866 159.029,107.087 159.165 C 107.467 159.400,109.227 158.743,109.227 158.366 C 109.227 158.242,109.409 158.140,109.631 158.140 C 109.853 158.140,110.427 157.802,110.906 157.390 C 111.386 156.977,111.867 156.640,111.976 156.640 C 112.328 156.639,116.129 152.866,116.129 152.517 C 116.129 152.331,116.392 152.095,116.714 151.993 C 117.035 151.891,117.392 151.510,117.507 151.147 C 117.622 150.785,117.934 150.285,118.200 150.038 C 118.818 149.465,120.630 145.814,120.630 145.143 C 120.630 144.864,120.765 144.636,120.930 144.636 C 121.095 144.636,121.230 144.310,121.230 143.911 C 121.230 143.512,121.367 143.140,121.535 143.084 C 121.702 143.028,121.925 142.068,122.029 140.949 C 122.134 139.831,122.334 138.844,122.475 138.757 C 122.616 138.670,122.731 138.397,122.731 138.149 C 122.731 137.869,122.589 137.784,122.356 137.924 C 122.069 138.097,122.060 138.048,122.318 137.717 C 122.718 137.205,122.844 131.488,122.466 131.009 C 122.324 130.830,122.115 129.823,122.001 128.773 C 121.886 127.723,121.678 126.643,121.537 126.372 C 121.396 126.102,121.085 125.409,120.846 124.831 C 119.779 122.258,119.572 121.830,119.389 121.830 C 119.282 121.830,119.110 121.493,119.007 121.080 C 118.903 120.668,118.686 120.330,118.524 120.330 C 118.362 120.330,118.230 120.128,118.230 119.880 C 118.230 119.632,118.116 119.430,117.978 119.430 C 117.839 119.430,117.568 119.085,117.376 118.663 C 117.167 118.205,116.888 117.982,116.682 118.109 C 116.467 118.241,116.418 118.190,116.552 117.974 C 116.788 117.591,116.080 116.759,115.102 116.272 C 114.759 116.101,114.479 115.815,114.479 115.635 C 114.479 115.259,113.038 113.913,111.474 112.828 C 110.879 112.416,110.207 111.909,109.981 111.703 C 109.755 111.497,109.358 111.328,109.099 111.328 C 108.839 111.328,108.627 111.197,108.627 111.037 C 108.627 110.877,108.425 110.824,108.177 110.919 C 107.929 111.014,107.727 110.942,107.727 110.760 C 107.727 110.577,107.524 110.428,107.277 110.428 C 107.029 110.428,106.827 110.293,106.827 110.128 C 106.827 109.962,106.565 109.827,106.244 109.827 C 105.924 109.827,105.586 109.704,105.493 109.553 C 105.399 109.403,104.750 109.185,104.049 109.069 C 103.349 108.954,102.641 108.756,102.476 108.629 C 101.698 108.031,98.097 107.927,74.794 107.827 L 49.812 107.720 49.812 108.774 " stroke="none" fill="#75cae1" fill-rule="evenodd"></path><path id="path1" d="M264.738 149.795 C 264.699 171.034,264.767 188.474,264.891 188.551 C 265.095 188.677,265.093 162.004,264.888 125.131 C 264.845 117.457,264.778 128.555,264.738 149.795 M256.409 157.539 C 256.409 174.621,256.445 181.609,256.489 173.068 C 256.533 164.527,256.533 150.551,256.489 142.011 C 256.445 133.470,256.409 140.458,256.409 157.539 " stroke="none" fill="#75cae1" fill-rule="evenodd"></path></g></svg>