<?xml version="1.0" encoding="utf-8"?>
<!-- Generator: Adobe Illustrator 23.0.2, SVG Export Plug-In . SVG Version: 6.00 Build 0)  -->
<svg version="1.1" xmlns="http://www.w3.org/2000/svg" xmlns:xlink="http://www.w3.org/1999/xlink" x="0px" y="0px"
	 viewBox="0 0 127.56 127.56" style="enable-background:new 0 0 127.56 127.56;" xml:space="preserve">
<style type="text/css">
	.st0{fill:#FFFFFF;}
	.st1{fill:#7955FF;}
</style>
<g id="bg">
	<rect class="st0" width="127.56" height="127.56"/>
</g>
<g id="Layer_2">
	<path class="st1" d="M88.32,37.43c-1.28,0-2.32-1.04-2.32-2.32s1.04-2.32,2.32-2.32c1.28,0,2.32,1.04,2.32,2.32
		S89.6,37.43,88.32,37.43z M85.72,38.24c0-1.25-1.01-2.26-2.26-2.26c-1.25,0-2.26,1.01-2.26,2.26s1.01,2.26,2.26,2.26
		C84.71,40.5,85.72,39.49,85.72,38.24z M80.32,40.39c0-1.23-1-2.23-2.23-2.23c-1.23,0-2.23,1-2.23,2.23c0,1.23,1,2.23,2.23,2.23
		C79.32,42.63,80.32,41.63,80.32,40.39z M74.67,41.75c0-1.22-0.99-2.21-2.21-2.21c-1.22,0-2.21,0.99-2.21,2.21s0.99,2.21,2.21,2.21
		C73.68,43.96,74.67,42.97,74.67,41.75z M68.9,42.4c0-1.21-0.98-2.19-2.19-2.19c-1.21,0-2.19,0.98-2.19,2.19
		c0,1.21,0.98,2.19,2.19,2.19C67.91,44.6,68.9,43.61,68.9,42.4z M63.1,42.42c0-1.21-0.98-2.19-2.19-2.19
		c-1.21,0-2.19,0.98-2.19,2.19c0,1.21,0.98,2.19,2.19,2.19C62.12,44.61,63.1,43.63,63.1,42.42z M57.37,41.8
		c0-1.22-0.99-2.21-2.21-2.21c-1.22,0-2.21,0.99-2.21,2.21c0,1.22,0.99,2.21,2.21,2.21C56.38,44.01,57.37,43.02,57.37,41.8z
		 M51.75,40.48c0-1.23-1-2.23-2.23-2.23c-1.23,0-2.23,1-2.23,2.23c0,1.23,1,2.23,2.23,2.23C50.75,42.71,51.75,41.71,51.75,40.48z
		 M46.39,38.36c0-1.25-1.01-2.26-2.26-2.26c-1.25,0-2.26,1.01-2.26,2.26c0,1.25,1.01,2.26,2.26,2.26
		C45.38,40.62,46.39,39.61,46.39,38.36z M41.56,35.25c0-1.28-1.04-2.32-2.32-2.32c-1.28,0-2.32,1.04-2.32,2.32
		c0,1.28,1.04,2.32,2.32,2.32C40.52,37.57,41.56,36.53,41.56,35.25z M39.89,93.42c3.03-2.71,10.45-7.39,23.89-7.53
		c13.44,0.14,20.86,4.82,23.89,7.53l2.77-3.28c-2.46-2.07-11.4-7.87-26.66-7.83c-15.27-0.04-24.2,5.76-26.66,7.83L39.89,93.42z
		 M101.44,61.64c0,0-18.83,0.36-37.66,0.36c-18.83,0-37.66-0.36-37.66-0.36v4.29c0,0,18.83-0.36,37.66-0.36s37.66,0.36,37.66,0.36
		V61.64z M29.38,80.24c2.78-0.75,14.65-4.18,34.4-4.29c19.75,0.12,31.62,3.55,34.4,4.3l1.04-4.17c-2.92-0.66-17.04-3.79-35.44-3.71
		c-18.4-0.08-32.52,3.04-35.44,3.71L29.38,80.24z M53.36,102.23c1.15-1.87,4.38-6.29,10.42-6.39c6.03,0.09,9.27,4.52,10.42,6.39
		l3.5-2.49c-1.67-2.08-6.37-7.57-13.92-7.48c-7.55-0.09-12.25,5.4-13.92,7.48L53.36,102.23z M32.49,48.85
		c0-1.45-1.18-2.63-2.63-2.63c-1.45,0-2.63,1.18-2.63,2.63c0,1.45,1.18,2.63,2.63,2.63C31.31,51.48,32.49,50.3,32.49,48.85z
		 M39.07,50.26c0-1.39-1.13-2.52-2.52-2.52c-1.39,0-2.52,1.13-2.52,2.52c0,1.39,1.13,2.52,2.52,2.52
		C37.94,52.78,39.07,51.65,39.07,50.26z M45.76,51.31c0-1.35-1.1-2.45-2.45-2.45c-1.35,0-2.45,1.1-2.45,2.45
		c0,1.35,1.1,2.45,2.45,2.45C44.66,53.76,45.76,52.66,45.76,51.31z M52.51,52.03c0-1.33-1.07-2.4-2.4-2.4s-2.4,1.07-2.4,2.4
		c0,1.33,1.07,2.4,2.4,2.4S52.51,53.35,52.51,52.03z M59.32,52.44c0-1.32-1.07-2.38-2.38-2.38c-1.32,0-2.38,1.07-2.38,2.38
		c0,1.32,1.07,2.38,2.38,2.38C58.25,54.82,59.32,53.76,59.32,52.44z M66.13,52.57c0-1.3-1.06-2.36-2.36-2.36s-2.36,1.06-2.36,2.36
		s1.06,2.36,2.36,2.36S66.13,53.87,66.13,52.57z M72.99,52.44c0-1.32-1.07-2.38-2.38-2.38c-1.32,0-2.38,1.07-2.38,2.38
		s1.07,2.38,2.38,2.38C71.93,54.82,72.99,53.76,72.99,52.44z M79.84,52.03c0-1.33-1.07-2.4-2.4-2.4c-1.33,0-2.4,1.07-2.4,2.4
		c0,1.33,1.07,2.4,2.4,2.4C78.76,54.43,79.84,53.35,79.84,52.03z M86.69,51.31c0-1.35-1.1-2.45-2.45-2.45
		c-1.35,0-2.45,1.1-2.45,2.45c0,1.35,1.1,2.45,2.45,2.45C85.59,53.76,86.69,52.66,86.69,51.31z M93.52,50.26
		c0-1.39-1.13-2.52-2.52-2.52c-1.39,0-2.52,1.13-2.52,2.52c0,1.39,1.13,2.52,2.52,2.52C92.39,52.78,93.52,51.65,93.52,50.26z
		 M100.32,48.85c0-1.45-1.18-2.63-2.63-2.63c-1.45,0-2.63,1.18-2.63,2.63c0,1.45,1.18,2.63,2.63,2.63
		C99.15,51.48,100.32,50.3,100.32,48.85z M55.6,27.55c0-1.23-0.99-2.22-2.22-2.22s-2.22,0.99-2.22,2.22c0,1.23,0.99,2.22,2.22,2.22
		S55.6,28.78,55.6,27.55z M60.23,31.01c0-1.17-0.95-2.12-2.12-2.12c-1.17,0-2.12,0.95-2.12,2.12c0,1.17,0.95,2.12,2.12,2.12
		C59.28,33.13,60.23,32.18,60.23,31.01z M65.86,32.43c0-1.15-0.93-2.08-2.08-2.08s-2.08,0.93-2.08,2.08s0.93,2.08,2.08,2.08
		S65.86,33.58,65.86,32.43z M71.56,31.01c0-1.17-0.95-2.12-2.12-2.12s-2.12,0.95-2.12,2.12c0,1.17,0.95,2.12,2.12,2.12
		S71.56,32.18,71.56,31.01z M76.4,27.55c0-1.23-0.99-2.22-2.22-2.22s-2.22,0.99-2.22,2.22c0,1.23,0.99,2.22,2.22,2.22
		S76.4,28.78,76.4,27.55z"/>
</g>
<g id="guides">
</g>
</svg>
